%TF.GenerationSoftware,KiCad,Pcbnew,9.0.5*%
%TF.CreationDate,2025-11-03T21:44:09+01:00*%
%TF.ProjectId,7_4V_battery_replacement,375f3456-5f62-4617-9474-6572795f7265,rev?*%
%TF.SameCoordinates,Original*%
%TF.FileFunction,Soldermask,Top*%
%TF.FilePolarity,Negative*%
%FSLAX46Y46*%
G04 Gerber Fmt 4.6, Leading zero omitted, Abs format (unit mm)*
G04 Created by KiCad (PCBNEW 9.0.5) date 2025-11-03 21:44:09*
%MOMM*%
%LPD*%
G01*
G04 APERTURE LIST*
G04 Aperture macros list*
%AMRoundRect*
0 Rectangle with rounded corners*
0 $1 Rounding radius*
0 $2 $3 $4 $5 $6 $7 $8 $9 X,Y pos of 4 corners*
0 Add a 4 corners polygon primitive as box body*
4,1,4,$2,$3,$4,$5,$6,$7,$8,$9,$2,$3,0*
0 Add four circle primitives for the rounded corners*
1,1,$1+$1,$2,$3*
1,1,$1+$1,$4,$5*
1,1,$1+$1,$6,$7*
1,1,$1+$1,$8,$9*
0 Add four rect primitives between the rounded corners*
20,1,$1+$1,$2,$3,$4,$5,0*
20,1,$1+$1,$4,$5,$6,$7,0*
20,1,$1+$1,$6,$7,$8,$9,0*
20,1,$1+$1,$8,$9,$2,$3,0*%
%AMFreePoly0*
4,1,23,0.500000,-0.750000,0.000000,-0.750000,0.000000,-0.745722,-0.065263,-0.745722,-0.191342,-0.711940,-0.304381,-0.646677,-0.396677,-0.554381,-0.461940,-0.441342,-0.495722,-0.315263,-0.495722,-0.250000,-0.500000,-0.250000,-0.500000,0.250000,-0.495722,0.250000,-0.495722,0.315263,-0.461940,0.441342,-0.396677,0.554381,-0.304381,0.646677,-0.191342,0.711940,-0.065263,0.745722,0.000000,0.745722,
0.000000,0.750000,0.500000,0.750000,0.500000,-0.750000,0.500000,-0.750000,$1*%
%AMFreePoly1*
4,1,23,0.000000,0.745722,0.065263,0.745722,0.191342,0.711940,0.304381,0.646677,0.396677,0.554381,0.461940,0.441342,0.495722,0.315263,0.495722,0.250000,0.500000,0.250000,0.500000,-0.250000,0.495722,-0.250000,0.495722,-0.315263,0.461940,-0.441342,0.396677,-0.554381,0.304381,-0.646677,0.191342,-0.711940,0.065263,-0.745722,0.000000,-0.745722,0.000000,-0.750000,-0.500000,-0.750000,
-0.500000,0.750000,0.000000,0.750000,0.000000,0.745722,0.000000,0.745722,$1*%
G04 Aperture macros list end*
%ADD10R,2.000000X4.600000*%
%ADD11O,2.000000X4.200000*%
%ADD12O,4.200000X2.000000*%
%ADD13RoundRect,0.237500X0.237500X-0.250000X0.237500X0.250000X-0.237500X0.250000X-0.237500X-0.250000X0*%
%ADD14RoundRect,0.237500X-0.250000X-0.237500X0.250000X-0.237500X0.250000X0.237500X-0.250000X0.237500X0*%
%ADD15RoundRect,0.250000X-1.000000X1.950000X-1.000000X-1.950000X1.000000X-1.950000X1.000000X1.950000X0*%
%ADD16RoundRect,0.237500X-0.237500X0.250000X-0.237500X-0.250000X0.237500X-0.250000X0.237500X0.250000X0*%
%ADD17C,3.600000*%
%ADD18C,5.600000*%
%ADD19R,7.000000X4.000000*%
%ADD20RoundRect,0.250000X0.412500X0.650000X-0.412500X0.650000X-0.412500X-0.650000X0.412500X-0.650000X0*%
%ADD21RoundRect,0.250000X-0.900000X1.500000X-0.900000X-1.500000X0.900000X-1.500000X0.900000X1.500000X0*%
%ADD22RoundRect,0.237500X-0.300000X-0.237500X0.300000X-0.237500X0.300000X0.237500X-0.300000X0.237500X0*%
%ADD23RoundRect,0.237500X0.237500X-0.300000X0.237500X0.300000X-0.237500X0.300000X-0.237500X-0.300000X0*%
%ADD24RoundRect,0.250000X-0.600000X0.400000X-0.600000X-0.400000X0.600000X-0.400000X0.600000X0.400000X0*%
%ADD25RoundRect,0.250001X0.462499X0.624999X-0.462499X0.624999X-0.462499X-0.624999X0.462499X-0.624999X0*%
%ADD26RoundRect,0.099250X-0.297750X0.727750X-0.297750X-0.727750X0.297750X-0.727750X0.297750X0.727750X0*%
%ADD27R,3.810000X4.240000*%
%ADD28FreePoly0,0.000000*%
%ADD29FreePoly1,0.000000*%
%ADD30RoundRect,0.237500X0.250000X0.237500X-0.250000X0.237500X-0.250000X-0.237500X0.250000X-0.237500X0*%
%ADD31RoundRect,0.250000X1.050000X-1.050000X1.050000X1.050000X-1.050000X1.050000X-1.050000X-1.050000X0*%
%ADD32C,2.600000*%
%ADD33RoundRect,0.150000X0.587500X0.150000X-0.587500X0.150000X-0.587500X-0.150000X0.587500X-0.150000X0*%
%ADD34RoundRect,0.250000X-0.412500X-0.650000X0.412500X-0.650000X0.412500X0.650000X-0.412500X0.650000X0*%
G04 APERTURE END LIST*
%TO.C,JP1*%
G36*
X119138560Y-87388000D02*
G01*
X119438560Y-87388000D01*
X119438560Y-88888000D01*
X119138560Y-88888000D01*
X119138560Y-87388000D01*
G37*
%TD*%
D10*
%TO.C,J1*%
X109805000Y-89281000D03*
D11*
X103505000Y-89281000D03*
D12*
X106905000Y-94081000D03*
%TD*%
D13*
%TO.C,R5*%
X129667000Y-100861500D03*
X129667000Y-99036500D03*
%TD*%
D14*
%TO.C,R7*%
X151130000Y-82296000D03*
X152955000Y-82296000D03*
%TD*%
D15*
%TO.C,C8*%
X144018000Y-94217000D03*
X144018000Y-101617000D03*
%TD*%
D16*
%TO.C,R2*%
X125984000Y-99036500D03*
X125984000Y-100861500D03*
%TD*%
%TO.C,R6*%
X127889000Y-99036500D03*
X127889000Y-100861500D03*
%TD*%
%TO.C,R3*%
X125984000Y-94337500D03*
X125984000Y-96162500D03*
%TD*%
D17*
%TO.C,H4*%
X100000000Y-80000000D03*
D18*
X100000000Y-80000000D03*
%TD*%
D19*
%TO.C,L1*%
X139319000Y-79074000D03*
X139319000Y-89074000D03*
%TD*%
D20*
%TO.C,C4*%
X137452500Y-96139000D03*
X134327500Y-96139000D03*
%TD*%
D21*
%TO.C,D1*%
X150876000Y-88232000D03*
X150876000Y-93632000D03*
%TD*%
D22*
%TO.C,C2*%
X127407500Y-90744000D03*
X129132500Y-90744000D03*
%TD*%
D23*
%TO.C,C6*%
X131572000Y-100811500D03*
X131572000Y-99086500D03*
%TD*%
D21*
%TO.C,D2*%
X114300000Y-93446000D03*
X114300000Y-98846000D03*
%TD*%
D24*
%TO.C,D3*%
X122936000Y-93246000D03*
X122936000Y-96746000D03*
%TD*%
D17*
%TO.C,H1*%
X100000000Y-100000000D03*
D18*
X100000000Y-100000000D03*
%TD*%
D25*
%TO.C,D4*%
X153633500Y-78359000D03*
X150658500Y-78359000D03*
%TD*%
D26*
%TO.C,U1*%
X129838000Y-94589000D03*
X128888000Y-94589000D03*
X127938000Y-94589000D03*
X127938000Y-96899000D03*
X128888000Y-96899000D03*
X129838000Y-96899000D03*
%TD*%
D17*
%TO.C,H3*%
X160000000Y-80000000D03*
D18*
X160000000Y-80000000D03*
%TD*%
D27*
%TO.C,F1*%
X114469097Y-81737668D03*
X114469097Y-88107668D03*
%TD*%
D17*
%TO.C,H2*%
X160000000Y-100000000D03*
D18*
X160000000Y-100000000D03*
%TD*%
D28*
%TO.C,JP1*%
X118638560Y-88138000D03*
D29*
X119938560Y-88138000D03*
%TD*%
D30*
%TO.C,R1*%
X120201060Y-97028000D03*
X118376060Y-97028000D03*
%TD*%
D23*
%TO.C,C3*%
X131445000Y-97382500D03*
X131445000Y-95657500D03*
%TD*%
D20*
%TO.C,C5*%
X137452500Y-93218000D03*
X134327500Y-93218000D03*
%TD*%
D31*
%TO.C,J2*%
X159004000Y-93091000D03*
D32*
X159004000Y-88011000D03*
%TD*%
D33*
%TO.C,Q2*%
X120130060Y-94596000D03*
X120130060Y-92696000D03*
X118255060Y-93646000D03*
%TD*%
D34*
%TO.C,C1*%
X126961500Y-88265000D03*
X130086500Y-88265000D03*
%TD*%
D22*
%TO.C,C7*%
X151053000Y-84074000D03*
X152778000Y-84074000D03*
%TD*%
D16*
%TO.C,R4*%
X133604000Y-99036500D03*
X133604000Y-100861500D03*
%TD*%
M02*
