%TF.GenerationSoftware,KiCad,Pcbnew,9.0.5*%
%TF.CreationDate,2025-11-03T21:44:12+01:00*%
%TF.ProjectId,7_4V_battery_replacement,375f3456-5f62-4617-9474-6572795f7265,rev?*%
%TF.SameCoordinates,Original*%
%TF.FileFunction,Plated,1,2,PTH,Mixed*%
%TF.FilePolarity,Positive*%
%FSLAX46Y46*%
G04 Gerber Fmt 4.6, Leading zero omitted, Abs format (unit mm)*
G04 Created by KiCad (PCBNEW 9.0.5) date 2025-11-03 21:44:12*
%MOMM*%
%LPD*%
G01*
G04 APERTURE LIST*
%TA.AperFunction,ViaDrill*%
%ADD10C,0.300000*%
%TD*%
G04 aperture for slot hole*
%TA.AperFunction,ComponentDrill*%
%ADD11C,1.000000*%
%TD*%
%TA.AperFunction,ComponentDrill*%
%ADD12C,1.300000*%
%TD*%
%TA.AperFunction,ComponentDrill*%
%ADD13C,3.200000*%
%TD*%
G04 APERTURE END LIST*
D10*
X96393000Y-83185000D03*
X96520000Y-76708000D03*
X96647000Y-96139000D03*
X96647000Y-103505000D03*
X97663000Y-89154000D03*
X97663000Y-91440000D03*
X97790000Y-86487000D03*
X99822000Y-86487000D03*
X99822000Y-91440000D03*
X99949000Y-89027000D03*
X103124000Y-83312000D03*
X103124000Y-103632000D03*
X103251000Y-96266000D03*
X103378000Y-76708000D03*
X105410000Y-97663000D03*
X105664000Y-100076000D03*
X105664000Y-102489000D03*
X106553000Y-78105000D03*
X106553000Y-80264000D03*
X106553000Y-82423000D03*
X108204000Y-97663000D03*
X108204000Y-99949000D03*
X108204000Y-102489000D03*
X108888868Y-79783972D03*
X109640414Y-77097195D03*
X110744000Y-102489000D03*
X112395000Y-76200000D03*
X113792000Y-102489000D03*
X115126700Y-77022040D03*
X116332000Y-102489000D03*
X117475000Y-100203000D03*
X118038941Y-76683844D03*
X118745000Y-102489000D03*
X119761000Y-78105000D03*
X119761000Y-80264000D03*
X119761000Y-100203000D03*
X120015000Y-82804000D03*
X121158000Y-102489000D03*
X121412000Y-98552000D03*
X122047000Y-100203000D03*
X122174000Y-80010000D03*
X122301000Y-77978000D03*
X122301000Y-82804000D03*
X123317000Y-102489000D03*
X124714000Y-77978000D03*
X124714000Y-80010000D03*
X124714000Y-82804000D03*
X125984000Y-102616000D03*
X127889000Y-76581000D03*
X128638000Y-92075000D03*
X128651000Y-78867000D03*
X128651000Y-79629000D03*
X128651000Y-92837000D03*
X129388000Y-92075000D03*
X129413000Y-78867000D03*
X129413000Y-79629000D03*
X129413000Y-92837000D03*
X131191000Y-76454000D03*
X131445000Y-91059000D03*
X131445000Y-93345000D03*
X131445000Y-94361000D03*
X131826000Y-86487000D03*
X131826000Y-89662000D03*
X131953000Y-83820000D03*
X132461000Y-93345000D03*
X132461000Y-94361000D03*
X132461000Y-102616000D03*
X135763000Y-100457000D03*
X135763000Y-102489000D03*
X138176000Y-100330000D03*
X138176000Y-102489000D03*
X147193000Y-82423000D03*
X147320000Y-77216000D03*
X147447000Y-80010000D03*
X148590000Y-103251000D03*
X151384000Y-103251000D03*
X151511000Y-98425000D03*
X153416000Y-102362000D03*
X153543000Y-99822000D03*
X153670000Y-97536000D03*
X155575000Y-81407000D03*
X155575000Y-83185000D03*
X155702000Y-103378000D03*
X155829000Y-100965000D03*
X155956000Y-98425000D03*
X156083000Y-96393000D03*
X156845000Y-76708000D03*
X162814000Y-96393000D03*
X162814000Y-103378000D03*
X162941000Y-91694000D03*
X162941000Y-93472000D03*
X163068000Y-76835000D03*
D11*
%TO.C,J1*%
X103505000Y-90381000D02*
X103505000Y-88181000D01*
X105805000Y-94081000D02*
X108005000Y-94081000D01*
X109805000Y-90581000D02*
X109805000Y-87981000D01*
D12*
%TO.C,J2*%
X159004000Y-88011000D03*
X159004000Y-93091000D03*
D13*
%TO.C,H4*%
X100000000Y-80000000D03*
%TO.C,H1*%
X100000000Y-100000000D03*
%TO.C,H3*%
X160000000Y-80000000D03*
%TO.C,H2*%
X160000000Y-100000000D03*
M02*
