%TF.GenerationSoftware,KiCad,Pcbnew,9.0.5*%
%TF.CreationDate,2025-11-03T21:44:09+01:00*%
%TF.ProjectId,7_4V_battery_replacement,375f3456-5f62-4617-9474-6572795f7265,rev?*%
%TF.SameCoordinates,Original*%
%TF.FileFunction,Copper,L1,Top*%
%TF.FilePolarity,Positive*%
%FSLAX46Y46*%
G04 Gerber Fmt 4.6, Leading zero omitted, Abs format (unit mm)*
G04 Created by KiCad (PCBNEW 9.0.5) date 2025-11-03 21:44:09*
%MOMM*%
%LPD*%
G01*
G04 APERTURE LIST*
G04 Aperture macros list*
%AMRoundRect*
0 Rectangle with rounded corners*
0 $1 Rounding radius*
0 $2 $3 $4 $5 $6 $7 $8 $9 X,Y pos of 4 corners*
0 Add a 4 corners polygon primitive as box body*
4,1,4,$2,$3,$4,$5,$6,$7,$8,$9,$2,$3,0*
0 Add four circle primitives for the rounded corners*
1,1,$1+$1,$2,$3*
1,1,$1+$1,$4,$5*
1,1,$1+$1,$6,$7*
1,1,$1+$1,$8,$9*
0 Add four rect primitives between the rounded corners*
20,1,$1+$1,$2,$3,$4,$5,0*
20,1,$1+$1,$4,$5,$6,$7,0*
20,1,$1+$1,$6,$7,$8,$9,0*
20,1,$1+$1,$8,$9,$2,$3,0*%
%AMFreePoly0*
4,1,23,0.500000,-0.750000,0.000000,-0.750000,0.000000,-0.745722,-0.065263,-0.745722,-0.191342,-0.711940,-0.304381,-0.646677,-0.396677,-0.554381,-0.461940,-0.441342,-0.495722,-0.315263,-0.495722,-0.250000,-0.500000,-0.250000,-0.500000,0.250000,-0.495722,0.250000,-0.495722,0.315263,-0.461940,0.441342,-0.396677,0.554381,-0.304381,0.646677,-0.191342,0.711940,-0.065263,0.745722,0.000000,0.745722,
0.000000,0.750000,0.500000,0.750000,0.500000,-0.750000,0.500000,-0.750000,$1*%
%AMFreePoly1*
4,1,23,0.000000,0.745722,0.065263,0.745722,0.191342,0.711940,0.304381,0.646677,0.396677,0.554381,0.461940,0.441342,0.495722,0.315263,0.495722,0.250000,0.500000,0.250000,0.500000,-0.250000,0.495722,-0.250000,0.495722,-0.315263,0.461940,-0.441342,0.396677,-0.554381,0.304381,-0.646677,0.191342,-0.711940,0.065263,-0.745722,0.000000,-0.745722,0.000000,-0.750000,-0.500000,-0.750000,
-0.500000,0.750000,0.000000,0.750000,0.000000,0.745722,0.000000,0.745722,$1*%
G04 Aperture macros list end*
%TA.AperFunction,ComponentPad*%
%ADD10R,2.000000X4.600000*%
%TD*%
%TA.AperFunction,ComponentPad*%
%ADD11O,2.000000X4.200000*%
%TD*%
%TA.AperFunction,ComponentPad*%
%ADD12O,4.200000X2.000000*%
%TD*%
%TA.AperFunction,SMDPad,CuDef*%
%ADD13RoundRect,0.237500X0.237500X-0.250000X0.237500X0.250000X-0.237500X0.250000X-0.237500X-0.250000X0*%
%TD*%
%TA.AperFunction,SMDPad,CuDef*%
%ADD14RoundRect,0.237500X-0.250000X-0.237500X0.250000X-0.237500X0.250000X0.237500X-0.250000X0.237500X0*%
%TD*%
%TA.AperFunction,SMDPad,CuDef*%
%ADD15RoundRect,0.250000X-1.000000X1.950000X-1.000000X-1.950000X1.000000X-1.950000X1.000000X1.950000X0*%
%TD*%
%TA.AperFunction,SMDPad,CuDef*%
%ADD16RoundRect,0.237500X-0.237500X0.250000X-0.237500X-0.250000X0.237500X-0.250000X0.237500X0.250000X0*%
%TD*%
%TA.AperFunction,ComponentPad*%
%ADD17C,3.600000*%
%TD*%
%TA.AperFunction,ConnectorPad*%
%ADD18C,5.600000*%
%TD*%
%TA.AperFunction,SMDPad,CuDef*%
%ADD19R,7.000000X4.000000*%
%TD*%
%TA.AperFunction,SMDPad,CuDef*%
%ADD20RoundRect,0.250000X0.412500X0.650000X-0.412500X0.650000X-0.412500X-0.650000X0.412500X-0.650000X0*%
%TD*%
%TA.AperFunction,SMDPad,CuDef*%
%ADD21RoundRect,0.250000X-0.900000X1.500000X-0.900000X-1.500000X0.900000X-1.500000X0.900000X1.500000X0*%
%TD*%
%TA.AperFunction,SMDPad,CuDef*%
%ADD22RoundRect,0.237500X-0.300000X-0.237500X0.300000X-0.237500X0.300000X0.237500X-0.300000X0.237500X0*%
%TD*%
%TA.AperFunction,SMDPad,CuDef*%
%ADD23RoundRect,0.237500X0.237500X-0.300000X0.237500X0.300000X-0.237500X0.300000X-0.237500X-0.300000X0*%
%TD*%
%TA.AperFunction,SMDPad,CuDef*%
%ADD24RoundRect,0.250000X-0.600000X0.400000X-0.600000X-0.400000X0.600000X-0.400000X0.600000X0.400000X0*%
%TD*%
%TA.AperFunction,SMDPad,CuDef*%
%ADD25RoundRect,0.250001X0.462499X0.624999X-0.462499X0.624999X-0.462499X-0.624999X0.462499X-0.624999X0*%
%TD*%
%TA.AperFunction,SMDPad,CuDef*%
%ADD26RoundRect,0.073750X-0.221250X0.651250X-0.221250X-0.651250X0.221250X-0.651250X0.221250X0.651250X0*%
%TD*%
%TA.AperFunction,SMDPad,CuDef*%
%ADD27R,3.810000X4.240000*%
%TD*%
%TA.AperFunction,SMDPad,CuDef*%
%ADD28FreePoly0,0.000000*%
%TD*%
%TA.AperFunction,SMDPad,CuDef*%
%ADD29FreePoly1,0.000000*%
%TD*%
%TA.AperFunction,SMDPad,CuDef*%
%ADD30RoundRect,0.237500X0.250000X0.237500X-0.250000X0.237500X-0.250000X-0.237500X0.250000X-0.237500X0*%
%TD*%
%TA.AperFunction,ComponentPad*%
%ADD31RoundRect,0.250000X1.050000X-1.050000X1.050000X1.050000X-1.050000X1.050000X-1.050000X-1.050000X0*%
%TD*%
%TA.AperFunction,ComponentPad*%
%ADD32C,2.600000*%
%TD*%
%TA.AperFunction,SMDPad,CuDef*%
%ADD33RoundRect,0.150000X0.587500X0.150000X-0.587500X0.150000X-0.587500X-0.150000X0.587500X-0.150000X0*%
%TD*%
%TA.AperFunction,SMDPad,CuDef*%
%ADD34RoundRect,0.250000X-0.412500X-0.650000X0.412500X-0.650000X0.412500X0.650000X-0.412500X0.650000X0*%
%TD*%
%TA.AperFunction,ViaPad*%
%ADD35C,0.600000*%
%TD*%
%TA.AperFunction,Conductor*%
%ADD36C,0.200000*%
%TD*%
%TA.AperFunction,Conductor*%
%ADD37C,1.000000*%
%TD*%
G04 APERTURE END LIST*
D10*
%TO.P,J1,1*%
%TO.N,Net-(F1-Pad1)*%
X109805000Y-89281000D03*
D11*
%TO.P,J1,2*%
%TO.N,GND*%
X103505000Y-89281000D03*
D12*
%TO.P,J1,3*%
%TO.N,unconnected-(J1-Pad3)*%
X106905000Y-94081000D03*
%TD*%
D13*
%TO.P,R5,1*%
%TO.N,Net-(C6-Pad1)*%
X129667000Y-100861500D03*
%TO.P,R5,2*%
%TO.N,/FB_*%
X129667000Y-99036500D03*
%TD*%
D14*
%TO.P,R7,1*%
%TO.N,+8.5V*%
X151130000Y-82296000D03*
%TO.P,R7,2*%
%TO.N,Net-(D4-A)*%
X152955000Y-82296000D03*
%TD*%
D15*
%TO.P,C8,1*%
%TO.N,+8.5V*%
X144018000Y-94217000D03*
%TO.P,C8,2*%
%TO.N,GND*%
X144018000Y-101617000D03*
%TD*%
D16*
%TO.P,R2,1*%
%TO.N,Net-(U1-EN)*%
X125984000Y-99036500D03*
%TO.P,R2,2*%
%TO.N,GND*%
X125984000Y-100861500D03*
%TD*%
%TO.P,R6,1*%
%TO.N,/FB_*%
X127889000Y-99036500D03*
%TO.P,R6,2*%
%TO.N,GND*%
X127889000Y-100861500D03*
%TD*%
%TO.P,R3,1*%
%TO.N,VDD*%
X125984000Y-94337500D03*
%TO.P,R3,2*%
%TO.N,Net-(U1-EN)*%
X125984000Y-96162500D03*
%TD*%
D17*
%TO.P,H4,1,1*%
%TO.N,GND*%
X100000000Y-80000000D03*
D18*
X100000000Y-80000000D03*
%TD*%
D19*
%TO.P,L1,1,1*%
%TO.N,Net-(U1-SW)*%
X139319000Y-79074000D03*
%TO.P,L1,2,2*%
%TO.N,+8.5V*%
X139319000Y-89074000D03*
%TD*%
D20*
%TO.P,C4,1*%
%TO.N,+8.5V*%
X137452500Y-96139000D03*
%TO.P,C4,2*%
%TO.N,GND*%
X134327500Y-96139000D03*
%TD*%
D21*
%TO.P,D1,1,A1*%
%TO.N,+8.5V*%
X150876000Y-88232000D03*
%TO.P,D1,2,A2*%
%TO.N,GND*%
X150876000Y-93632000D03*
%TD*%
D22*
%TO.P,C2,1*%
%TO.N,VDD*%
X127407500Y-90744000D03*
%TO.P,C2,2*%
%TO.N,GND*%
X129132500Y-90744000D03*
%TD*%
D23*
%TO.P,C6,1*%
%TO.N,Net-(C6-Pad1)*%
X131572000Y-100811500D03*
%TO.P,C6,2*%
%TO.N,/FB_*%
X131572000Y-99086500D03*
%TD*%
D21*
%TO.P,D2,1,A1*%
%TO.N,Net-(D2-A1)*%
X114300000Y-93446000D03*
%TO.P,D2,2,A2*%
%TO.N,GND*%
X114300000Y-98846000D03*
%TD*%
D24*
%TO.P,D3,1,K*%
%TO.N,VDD*%
X122936000Y-93246000D03*
%TO.P,D3,2,A*%
%TO.N,Net-(D3-A)*%
X122936000Y-96746000D03*
%TD*%
D17*
%TO.P,H1,1,1*%
%TO.N,GND*%
X100000000Y-100000000D03*
D18*
X100000000Y-100000000D03*
%TD*%
D25*
%TO.P,D4,1,K*%
%TO.N,GND*%
X153633500Y-78359000D03*
%TO.P,D4,2,A*%
%TO.N,Net-(D4-A)*%
X150658500Y-78359000D03*
%TD*%
D26*
%TO.P,U1,1,GND*%
%TO.N,GND*%
X129838000Y-94589000D03*
%TO.P,U1,2,SW*%
%TO.N,Net-(U1-SW)*%
X128888000Y-94589000D03*
%TO.P,U1,3,VIN*%
%TO.N,VDD*%
X127938000Y-94589000D03*
%TO.P,U1,4,FB*%
%TO.N,/FB_*%
X127938000Y-96899000D03*
%TO.P,U1,5,EN*%
%TO.N,Net-(U1-EN)*%
X128888000Y-96899000D03*
%TO.P,U1,6,BOOT*%
%TO.N,Net-(U1-BOOT)*%
X129838000Y-96899000D03*
%TD*%
D17*
%TO.P,H3,1,1*%
%TO.N,GND*%
X160000000Y-80000000D03*
D18*
X160000000Y-80000000D03*
%TD*%
D27*
%TO.P,F1,1*%
%TO.N,Net-(F1-Pad1)*%
X114469097Y-81737668D03*
%TO.P,F1,2*%
%TO.N,Net-(D2-A1)*%
X114469097Y-88107668D03*
%TD*%
D17*
%TO.P,H2,1,1*%
%TO.N,GND*%
X160000000Y-100000000D03*
D18*
X160000000Y-100000000D03*
%TD*%
D28*
%TO.P,JP1,1,A*%
%TO.N,Net-(D2-A1)*%
X118638560Y-88138000D03*
D29*
%TO.P,JP1,2,B*%
%TO.N,VDD*%
X119938560Y-88138000D03*
%TD*%
D30*
%TO.P,R1,1*%
%TO.N,Net-(D3-A)*%
X120201060Y-97028000D03*
%TO.P,R1,2*%
%TO.N,GND*%
X118376060Y-97028000D03*
%TD*%
D23*
%TO.P,C3,1*%
%TO.N,Net-(U1-BOOT)*%
X131445000Y-97382500D03*
%TO.P,C3,2*%
%TO.N,Net-(U1-SW)*%
X131445000Y-95657500D03*
%TD*%
D20*
%TO.P,C5,1*%
%TO.N,+8.5V*%
X137452500Y-93218000D03*
%TO.P,C5,2*%
%TO.N,GND*%
X134327500Y-93218000D03*
%TD*%
D31*
%TO.P,J2,1,Pin_1*%
%TO.N,GND*%
X159004000Y-93091000D03*
D32*
%TO.P,J2,2,Pin_2*%
%TO.N,+8.5V*%
X159004000Y-88011000D03*
%TD*%
D33*
%TO.P,Q2,1,G*%
%TO.N,Net-(D3-A)*%
X120130060Y-94596000D03*
%TO.P,Q2,2,S*%
%TO.N,VDD*%
X120130060Y-92696000D03*
%TO.P,Q2,3,D*%
%TO.N,Net-(D2-A1)*%
X118255060Y-93646000D03*
%TD*%
D34*
%TO.P,C1,1*%
%TO.N,VDD*%
X126961500Y-88265000D03*
%TO.P,C1,2*%
%TO.N,GND*%
X130086500Y-88265000D03*
%TD*%
D22*
%TO.P,C7,1*%
%TO.N,+8.5V*%
X151053000Y-84074000D03*
%TO.P,C7,2*%
%TO.N,GND*%
X152778000Y-84074000D03*
%TD*%
D16*
%TO.P,R4,1*%
%TO.N,+8.5V*%
X133604000Y-99036500D03*
%TO.P,R4,2*%
%TO.N,Net-(C6-Pad1)*%
X133604000Y-100861500D03*
%TD*%
D35*
%TO.N,GND*%
X109640414Y-77097195D03*
X127889000Y-76581000D03*
X135763000Y-100457000D03*
X131191000Y-76454000D03*
X96393000Y-83185000D03*
X103378000Y-76708000D03*
X132461000Y-102616000D03*
X106553000Y-78105000D03*
X122174000Y-80010000D03*
X113792000Y-102489000D03*
X121158000Y-102489000D03*
X131445000Y-91059000D03*
X135763000Y-102489000D03*
X106553000Y-82423000D03*
X96520000Y-76708000D03*
X108204000Y-97663000D03*
X97663000Y-91440000D03*
X162941000Y-93472000D03*
X108204000Y-102489000D03*
X108888868Y-79783972D03*
X118038941Y-76683844D03*
X151511000Y-98425000D03*
X147320000Y-77216000D03*
X163068000Y-76835000D03*
X122301000Y-82804000D03*
X105664000Y-102489000D03*
X103251000Y-96266000D03*
X120015000Y-82804000D03*
X162814000Y-103378000D03*
X155575000Y-83185000D03*
X131826000Y-89662000D03*
X148590000Y-103251000D03*
X155956000Y-98425000D03*
X124714000Y-80010000D03*
X121412000Y-98552000D03*
X103124000Y-103632000D03*
X124714000Y-77978000D03*
X123317000Y-102489000D03*
X162814000Y-96393000D03*
X132461000Y-93345000D03*
X155829000Y-100965000D03*
X108204000Y-99949000D03*
X156083000Y-96393000D03*
X112395000Y-76200000D03*
X155575000Y-81407000D03*
X99822000Y-91440000D03*
X162941000Y-91694000D03*
X106553000Y-80264000D03*
X117475000Y-100203000D03*
X115126700Y-77022040D03*
X156845000Y-76708000D03*
X155702000Y-103378000D03*
X122047000Y-100203000D03*
X105664000Y-100076000D03*
X122301000Y-77978000D03*
X119761000Y-100203000D03*
X99949000Y-89027000D03*
X116332000Y-102489000D03*
X124714000Y-82804000D03*
X131953000Y-83820000D03*
X118745000Y-102489000D03*
X105410000Y-97663000D03*
X125984000Y-102616000D03*
X153416000Y-102362000D03*
X99822000Y-86487000D03*
X110744000Y-102489000D03*
X138176000Y-100330000D03*
X97663000Y-89154000D03*
X96647000Y-103505000D03*
X97790000Y-86487000D03*
X147447000Y-80010000D03*
X103124000Y-83312000D03*
X131445000Y-93345000D03*
X119761000Y-78105000D03*
X147193000Y-82423000D03*
X132461000Y-94361000D03*
X96647000Y-96139000D03*
X153543000Y-99822000D03*
X138176000Y-102489000D03*
X119761000Y-80264000D03*
X131826000Y-86487000D03*
X153670000Y-97536000D03*
X151384000Y-103251000D03*
X131445000Y-94361000D03*
%TO.N,Net-(U1-SW)*%
X129413000Y-79629000D03*
X129388000Y-92075000D03*
X128638000Y-92075000D03*
X129413000Y-78867000D03*
X128651000Y-92837000D03*
X128651000Y-78867000D03*
X128651000Y-79629000D03*
X129413000Y-92837000D03*
%TD*%
D36*
%TO.N,Net-(U1-SW)*%
X129401000Y-95873000D02*
X128888000Y-95360000D01*
X130736000Y-95911500D02*
X130697500Y-95873000D01*
X130697500Y-95873000D02*
X129401000Y-95873000D01*
X128888000Y-95360000D02*
X128888000Y-94589000D01*
X131826000Y-95911500D02*
X130736000Y-95911500D01*
%TO.N,Net-(U1-BOOT)*%
X130247500Y-97308500D02*
X131498000Y-97308500D01*
X131498000Y-97308500D02*
X131826000Y-97636500D01*
X129838000Y-96899000D02*
X130247500Y-97308500D01*
%TO.N,+8.5V*%
X133604000Y-99036500D02*
X134555000Y-99036500D01*
X151130000Y-83997000D02*
X151053000Y-84074000D01*
X151130000Y-82296000D02*
X151130000Y-83997000D01*
X134555000Y-99036500D02*
X137452500Y-96139000D01*
X151130000Y-84151000D02*
X151053000Y-84074000D01*
X151130000Y-88232000D02*
X151130000Y-84151000D01*
%TO.N,/FB_*%
X127889000Y-99036500D02*
X129667000Y-99036500D01*
X127938000Y-98987500D02*
X127889000Y-99036500D01*
X127938000Y-96899000D02*
X127938000Y-98987500D01*
X129667000Y-99036500D02*
X131522000Y-99036500D01*
X131522000Y-99036500D02*
X131572000Y-99086500D01*
%TO.N,Net-(C6-Pad1)*%
X131725500Y-100811500D02*
X131775500Y-100861500D01*
X131775500Y-100861500D02*
X133604000Y-100861500D01*
X131522000Y-100861500D02*
X131572000Y-100811500D01*
X131572000Y-100811500D02*
X131725500Y-100811500D01*
X129667000Y-100861500D02*
X131522000Y-100861500D01*
D37*
%TO.N,Net-(D3-A)*%
X122936000Y-96746000D02*
X120483060Y-96746000D01*
D36*
X120130060Y-96957000D02*
X120201060Y-97028000D01*
X120483060Y-96746000D02*
X120201060Y-97028000D01*
D37*
X120130060Y-94596000D02*
X120130060Y-96957000D01*
D36*
%TO.N,Net-(D4-A)*%
X152955000Y-82296000D02*
X152955000Y-80655500D01*
X152955000Y-80655500D02*
X150658500Y-78359000D01*
%TO.N,Net-(U1-EN)*%
X125984000Y-99036500D02*
X125984000Y-96162500D01*
X128888000Y-96899000D02*
X128888000Y-96444480D01*
X128316520Y-95873000D02*
X126273500Y-95873000D01*
X128888000Y-96444480D02*
X128316520Y-95873000D01*
X126273500Y-95873000D02*
X125984000Y-96162500D01*
%TD*%
%TA.AperFunction,Conductor*%
%TO.N,Net-(U1-SW)*%
G36*
X143961039Y-75838685D02*
G01*
X144006794Y-75891489D01*
X144018000Y-75943000D01*
X144018000Y-82045000D01*
X143998315Y-82112039D01*
X143945511Y-82157794D01*
X143894000Y-82169000D01*
X135383199Y-82169000D01*
X135336414Y-82159835D01*
X132748450Y-81105479D01*
X135419001Y-81105479D01*
X135433835Y-81199149D01*
X135433837Y-81199155D01*
X135491356Y-81312041D01*
X135491363Y-81312050D01*
X135580949Y-81401636D01*
X135580953Y-81401639D01*
X135693855Y-81459166D01*
X135787514Y-81473999D01*
X139118999Y-81473999D01*
X139519000Y-81473999D01*
X142850479Y-81473999D01*
X142944149Y-81459164D01*
X142944155Y-81459162D01*
X143057041Y-81401643D01*
X143057050Y-81401636D01*
X143146636Y-81312050D01*
X143146639Y-81312046D01*
X143204166Y-81199144D01*
X143219000Y-81105486D01*
X143219000Y-79274000D01*
X139519000Y-79274000D01*
X139519000Y-81473999D01*
X139118999Y-81473999D01*
X139119000Y-81473998D01*
X139119000Y-79274000D01*
X135419001Y-79274000D01*
X135419001Y-81105479D01*
X132748450Y-81105479D01*
X130683004Y-80264001D01*
X130683001Y-80264000D01*
X130683000Y-80264000D01*
X130682998Y-80264000D01*
X128013000Y-80264000D01*
X127945961Y-80244315D01*
X127900206Y-80191511D01*
X127889000Y-80140000D01*
X127889000Y-78356000D01*
X127908685Y-78288961D01*
X127961489Y-78243206D01*
X128013000Y-78232000D01*
X132715000Y-78232000D01*
X133649596Y-77042513D01*
X135419000Y-77042513D01*
X135419000Y-78874000D01*
X139119000Y-78874000D01*
X139519000Y-78874000D01*
X143218999Y-78874000D01*
X143218999Y-77042520D01*
X143204164Y-76948850D01*
X143204162Y-76948844D01*
X143146643Y-76835958D01*
X143146636Y-76835949D01*
X143057050Y-76746363D01*
X143057046Y-76746360D01*
X142944144Y-76688833D01*
X142850486Y-76674000D01*
X139519000Y-76674000D01*
X139519000Y-78874000D01*
X139119000Y-78874000D01*
X139119000Y-76674000D01*
X135787520Y-76674000D01*
X135693850Y-76688835D01*
X135693844Y-76688837D01*
X135580958Y-76746356D01*
X135580949Y-76746363D01*
X135491363Y-76835949D01*
X135491360Y-76835953D01*
X135433833Y-76948855D01*
X135419000Y-77042513D01*
X133649596Y-77042513D01*
X134573694Y-75866388D01*
X134630589Y-75825837D01*
X134671196Y-75819000D01*
X143894000Y-75819000D01*
X143961039Y-75838685D01*
G37*
%TD.AperFunction*%
%TD*%
%TA.AperFunction,Conductor*%
%TO.N,VDD*%
G36*
X127201271Y-86252685D02*
G01*
X127227552Y-86275345D01*
X127826457Y-86959808D01*
X127855788Y-87023223D01*
X127846179Y-87092429D01*
X127800680Y-87145453D01*
X127733736Y-87165462D01*
X127666602Y-87146101D01*
X127658213Y-87140268D01*
X127646097Y-87131080D01*
X127505443Y-87075613D01*
X127417054Y-87065000D01*
X127111500Y-87065000D01*
X127111500Y-89465000D01*
X127417054Y-89465000D01*
X127505443Y-89454386D01*
X127646095Y-89398920D01*
X127766566Y-89307563D01*
X127793196Y-89272447D01*
X127849388Y-89230924D01*
X127919109Y-89226372D01*
X127980223Y-89260236D01*
X128013327Y-89321766D01*
X128016000Y-89347372D01*
X128016000Y-89868180D01*
X127996315Y-89935219D01*
X127943511Y-89980974D01*
X127874353Y-89990918D01*
X127846511Y-89983535D01*
X127835956Y-89979373D01*
X127749572Y-89969000D01*
X127557500Y-89969000D01*
X127557500Y-91519000D01*
X127719127Y-91519000D01*
X127786166Y-91538685D01*
X127831921Y-91591489D01*
X127841864Y-91660644D01*
X127837500Y-91691000D01*
X127837500Y-91691004D01*
X127837500Y-93001621D01*
X127837934Y-93017897D01*
X127838637Y-93031092D01*
X127838638Y-93031095D01*
X127861403Y-93131598D01*
X127861404Y-93131602D01*
X127861405Y-93131606D01*
X127861406Y-93131607D01*
X127881455Y-93180072D01*
X127888116Y-93196172D01*
X127888118Y-93196177D01*
X127917212Y-93250326D01*
X127917213Y-93250327D01*
X127996061Y-93330248D01*
X127996071Y-93330256D01*
X128053427Y-93370119D01*
X128057239Y-93372383D01*
X128056499Y-93373627D01*
X128103052Y-93416986D01*
X128120318Y-93484689D01*
X128098240Y-93550979D01*
X128088000Y-93563230D01*
X128088000Y-94465000D01*
X128085449Y-94473685D01*
X128086738Y-94482647D01*
X128075759Y-94506687D01*
X128068315Y-94532039D01*
X128061474Y-94537966D01*
X128057713Y-94546203D01*
X128035478Y-94560492D01*
X128015511Y-94577794D01*
X128004996Y-94580081D01*
X127998935Y-94583977D01*
X127964000Y-94589000D01*
X127938000Y-94589000D01*
X127938000Y-94615000D01*
X127918315Y-94682039D01*
X127865511Y-94727794D01*
X127814000Y-94739000D01*
X127343000Y-94739000D01*
X127343000Y-95275720D01*
X127353584Y-95348368D01*
X127356428Y-95357571D01*
X127354470Y-95358175D01*
X127357610Y-95380013D01*
X127363228Y-95412910D01*
X127362564Y-95414469D01*
X127362806Y-95416147D01*
X127348943Y-95446501D01*
X127335886Y-95477208D01*
X127334485Y-95478161D01*
X127333781Y-95479703D01*
X127305698Y-95497750D01*
X127278122Y-95516516D01*
X127275972Y-95516854D01*
X127275003Y-95517477D01*
X127240068Y-95522500D01*
X127196862Y-95522500D01*
X127133859Y-95504000D01*
X127127000Y-95504000D01*
X126531393Y-95504000D01*
X126464354Y-95484315D01*
X126458032Y-95479926D01*
X126457783Y-95479791D01*
X126457781Y-95479790D01*
X126457778Y-95479788D01*
X126387881Y-95453717D01*
X126326299Y-95430748D01*
X126268190Y-95424500D01*
X126268174Y-95424500D01*
X125699826Y-95424500D01*
X125699809Y-95424500D01*
X125641700Y-95430748D01*
X125557149Y-95462285D01*
X125510222Y-95479788D01*
X125510219Y-95479789D01*
X125510216Y-95479791D01*
X125502434Y-95484040D01*
X125501704Y-95482703D01*
X125445453Y-95503684D01*
X125436607Y-95504000D01*
X124711000Y-95504000D01*
X124643961Y-95484315D01*
X124598206Y-95431511D01*
X124587000Y-95380000D01*
X124587000Y-94629571D01*
X125209000Y-94629571D01*
X125219373Y-94715958D01*
X125273576Y-94853407D01*
X125273579Y-94853413D01*
X125362856Y-94971143D01*
X125480586Y-95060420D01*
X125480592Y-95060423D01*
X125618041Y-95114626D01*
X125704428Y-95125000D01*
X125834000Y-95125000D01*
X126134000Y-95125000D01*
X126263572Y-95125000D01*
X126349958Y-95114626D01*
X126487407Y-95060423D01*
X126487413Y-95060420D01*
X126605143Y-94971143D01*
X126694420Y-94853413D01*
X126694423Y-94853407D01*
X126748626Y-94715958D01*
X126759000Y-94629571D01*
X126759000Y-94487500D01*
X126134000Y-94487500D01*
X126134000Y-95125000D01*
X125834000Y-95125000D01*
X125834000Y-94487500D01*
X125209000Y-94487500D01*
X125209000Y-94629571D01*
X124587000Y-94629571D01*
X124587000Y-94361000D01*
X123870660Y-94361000D01*
X123803621Y-94341315D01*
X123757866Y-94288511D01*
X123747922Y-94219353D01*
X123776947Y-94155797D01*
X123801732Y-94135568D01*
X123801336Y-94135046D01*
X123919513Y-94045428D01*
X125209000Y-94045428D01*
X125209000Y-94187500D01*
X125834000Y-94187500D01*
X126134000Y-94187500D01*
X126759000Y-94187500D01*
X126759000Y-94045428D01*
X126748626Y-93959041D01*
X126726242Y-93902279D01*
X127343000Y-93902279D01*
X127343000Y-94439000D01*
X127788000Y-94439000D01*
X127788000Y-93564000D01*
X127681279Y-93564000D01*
X127608632Y-93574584D01*
X127496567Y-93629369D01*
X127408369Y-93717567D01*
X127353584Y-93829632D01*
X127343000Y-93902279D01*
X126726242Y-93902279D01*
X126694423Y-93821592D01*
X126694420Y-93821586D01*
X126605143Y-93703856D01*
X126487413Y-93614579D01*
X126487407Y-93614576D01*
X126349958Y-93560373D01*
X126263572Y-93550000D01*
X126134000Y-93550000D01*
X126134000Y-94187500D01*
X125834000Y-94187500D01*
X125834000Y-93550000D01*
X125704428Y-93550000D01*
X125618041Y-93560373D01*
X125480592Y-93614576D01*
X125480586Y-93614579D01*
X125362856Y-93703856D01*
X125273579Y-93821586D01*
X125273576Y-93821592D01*
X125219373Y-93959041D01*
X125209000Y-94045428D01*
X123919513Y-94045428D01*
X123928564Y-94038564D01*
X123982994Y-93966790D01*
X123982995Y-93966788D01*
X124019919Y-93918097D01*
X124075386Y-93777443D01*
X124086000Y-93689053D01*
X124086000Y-93396000D01*
X121786000Y-93396000D01*
X121786000Y-93689053D01*
X121796613Y-93777443D01*
X121852079Y-93918095D01*
X121943435Y-94038564D01*
X122070664Y-94135046D01*
X122069540Y-94136526D01*
X122110903Y-94178931D01*
X122124904Y-94247384D01*
X122099675Y-94312539D01*
X122043225Y-94353712D01*
X122001340Y-94361000D01*
X121717362Y-94361000D01*
X121650323Y-94341315D01*
X121629681Y-94324681D01*
X120790576Y-93485576D01*
X120757091Y-93424253D01*
X120762075Y-93354561D01*
X120803947Y-93298628D01*
X120837304Y-93280853D01*
X120930203Y-93248347D01*
X120930205Y-93248346D01*
X121039352Y-93167792D01*
X121119906Y-93058645D01*
X121164709Y-92930604D01*
X121164709Y-92930600D01*
X121167560Y-92900206D01*
X121167560Y-92846000D01*
X120254060Y-92846000D01*
X120245374Y-92843449D01*
X120236413Y-92844738D01*
X120212372Y-92833759D01*
X120187021Y-92826315D01*
X120181093Y-92819474D01*
X120172857Y-92815713D01*
X120164652Y-92802946D01*
X121786000Y-92802946D01*
X121786000Y-93096000D01*
X122786000Y-93096000D01*
X123086000Y-93096000D01*
X124086000Y-93096000D01*
X124086000Y-92802946D01*
X124075386Y-92714556D01*
X124019920Y-92573904D01*
X123928564Y-92453435D01*
X123808095Y-92362079D01*
X123667443Y-92306613D01*
X123579054Y-92296000D01*
X123086000Y-92296000D01*
X123086000Y-93096000D01*
X122786000Y-93096000D01*
X122786000Y-92296000D01*
X122292946Y-92296000D01*
X122204556Y-92306613D01*
X122063904Y-92362079D01*
X121943435Y-92453435D01*
X121852079Y-92573904D01*
X121796613Y-92714556D01*
X121786000Y-92802946D01*
X120164652Y-92802946D01*
X120158567Y-92793478D01*
X120141266Y-92773511D01*
X120138978Y-92762996D01*
X120135083Y-92756935D01*
X120130060Y-92722000D01*
X120130060Y-92696000D01*
X120104060Y-92696000D01*
X120037021Y-92676315D01*
X119991266Y-92623511D01*
X119980060Y-92572000D01*
X119980060Y-92546000D01*
X120280060Y-92546000D01*
X121167559Y-92546000D01*
X121167559Y-92491803D01*
X121164708Y-92461393D01*
X121119906Y-92333354D01*
X121039352Y-92224207D01*
X120930205Y-92143653D01*
X120802162Y-92098850D01*
X120771767Y-92096000D01*
X120280060Y-92096000D01*
X120280060Y-92546000D01*
X119980060Y-92546000D01*
X119980060Y-92096000D01*
X119803097Y-92096000D01*
X119736058Y-92076315D01*
X119690303Y-92023511D01*
X119680359Y-91954353D01*
X119680374Y-91954244D01*
X119682049Y-91942880D01*
X119685238Y-91023571D01*
X126570000Y-91023571D01*
X126580373Y-91109958D01*
X126634576Y-91247407D01*
X126634579Y-91247413D01*
X126723856Y-91365143D01*
X126841586Y-91454420D01*
X126841592Y-91454423D01*
X126979041Y-91508626D01*
X127065428Y-91519000D01*
X127257500Y-91519000D01*
X127257500Y-90894000D01*
X126570000Y-90894000D01*
X126570000Y-91023571D01*
X119685238Y-91023571D01*
X119686728Y-90594000D01*
X119687178Y-90464428D01*
X126570000Y-90464428D01*
X126570000Y-90594000D01*
X127257500Y-90594000D01*
X127257500Y-89969000D01*
X127065428Y-89969000D01*
X126979041Y-89979373D01*
X126841592Y-90033576D01*
X126841586Y-90033579D01*
X126723856Y-90122856D01*
X126634579Y-90240586D01*
X126634576Y-90240592D01*
X126580373Y-90378041D01*
X126570000Y-90464428D01*
X119687178Y-90464428D01*
X119687192Y-90460286D01*
X119690906Y-89389524D01*
X119690906Y-89389521D01*
X119685888Y-89316696D01*
X119680866Y-89281332D01*
X119665413Y-89209996D01*
X119605645Y-89079117D01*
X119567872Y-89020339D01*
X119567870Y-89020335D01*
X119513903Y-88958053D01*
X125999000Y-88958053D01*
X126009613Y-89046443D01*
X126065079Y-89187095D01*
X126156435Y-89307564D01*
X126276904Y-89398920D01*
X126417556Y-89454386D01*
X126505946Y-89465000D01*
X126811500Y-89465000D01*
X126811500Y-88415000D01*
X125999000Y-88415000D01*
X125999000Y-88958053D01*
X119513903Y-88958053D01*
X119473649Y-88911597D01*
X119472266Y-88910398D01*
X119467917Y-88905261D01*
X119455765Y-88877818D01*
X119441387Y-88851471D01*
X119440519Y-88843389D01*
X119439627Y-88841375D01*
X119440026Y-88838804D01*
X119438560Y-88825145D01*
X119438560Y-87571946D01*
X125999000Y-87571946D01*
X125999000Y-88115000D01*
X126811500Y-88115000D01*
X126811500Y-87065000D01*
X126505946Y-87065000D01*
X126417556Y-87075613D01*
X126276904Y-87131079D01*
X126156435Y-87222435D01*
X126065079Y-87342904D01*
X126009613Y-87483556D01*
X125999000Y-87571946D01*
X119438560Y-87571946D01*
X119438560Y-87448956D01*
X119458245Y-87381917D01*
X119484838Y-87352337D01*
X119485048Y-87352168D01*
X119493969Y-87344992D01*
X119531008Y-87308080D01*
X119598483Y-87224791D01*
X119658707Y-87094121D01*
X119678624Y-87027150D01*
X119699594Y-86884807D01*
X119699645Y-86869832D01*
X119701428Y-86356570D01*
X119721345Y-86289599D01*
X119774307Y-86244028D01*
X119825427Y-86233000D01*
X127134232Y-86233000D01*
X127201271Y-86252685D01*
G37*
%TD.AperFunction*%
%TD*%
%TA.AperFunction,Conductor*%
%TO.N,Net-(D2-A1)*%
G36*
X117558391Y-85221765D02*
G01*
X117625132Y-85241458D01*
X119139106Y-86214684D01*
X119184854Y-86267493D01*
X119196053Y-86319421D01*
X119194097Y-86883053D01*
X119174180Y-86950024D01*
X119137141Y-86986936D01*
X119107531Y-87005966D01*
X119107525Y-87005971D01*
X119013310Y-87114700D01*
X119013304Y-87114709D01*
X118953536Y-87245580D01*
X118953535Y-87245585D01*
X118933060Y-87387999D01*
X118933060Y-88888002D01*
X118938204Y-88959940D01*
X118978742Y-89097994D01*
X119056527Y-89219030D01*
X119142614Y-89293626D01*
X119180387Y-89352404D01*
X119185409Y-89387768D01*
X119176552Y-91941127D01*
X119156635Y-92008098D01*
X119140235Y-92028378D01*
X119024480Y-92144133D01*
X119024477Y-92144137D01*
X118940815Y-92285603D01*
X118940814Y-92285606D01*
X118894962Y-92443426D01*
X118894961Y-92443432D01*
X118892060Y-92480298D01*
X118892060Y-92722000D01*
X118872375Y-92789039D01*
X118819571Y-92834794D01*
X118768060Y-92846000D01*
X118505060Y-92846000D01*
X118505060Y-94446000D01*
X118768060Y-94446000D01*
X118776745Y-94448550D01*
X118785707Y-94447262D01*
X118809747Y-94458240D01*
X118835099Y-94465685D01*
X118841026Y-94472525D01*
X118849263Y-94476287D01*
X118863552Y-94498521D01*
X118880854Y-94518489D01*
X118883141Y-94529003D01*
X118887037Y-94535065D01*
X118892060Y-94570000D01*
X118892060Y-94789255D01*
X118872375Y-94856294D01*
X118819571Y-94902049D01*
X118769438Y-94913247D01*
X117476083Y-94927624D01*
X117476081Y-94927625D01*
X116196598Y-96207109D01*
X116135275Y-96240594D01*
X116110367Y-96243420D01*
X112003083Y-96291459D01*
X111935818Y-96272559D01*
X111889449Y-96220294D01*
X111877634Y-96166909D01*
X111882926Y-94995986D01*
X112650001Y-94995986D01*
X112660494Y-95098697D01*
X112715641Y-95265119D01*
X112715643Y-95265124D01*
X112807684Y-95414345D01*
X112931654Y-95538315D01*
X113080875Y-95630356D01*
X113080880Y-95630358D01*
X113247302Y-95685505D01*
X113247309Y-95685506D01*
X113350019Y-95695999D01*
X114049999Y-95695999D01*
X114550000Y-95695999D01*
X115249972Y-95695999D01*
X115249986Y-95695998D01*
X115352697Y-95685505D01*
X115519119Y-95630358D01*
X115519124Y-95630356D01*
X115668345Y-95538315D01*
X115792315Y-95414345D01*
X115884356Y-95265124D01*
X115884358Y-95265119D01*
X115939505Y-95098697D01*
X115939506Y-95098690D01*
X115949999Y-94995986D01*
X115950000Y-94995973D01*
X115950000Y-93896001D01*
X117020264Y-93896001D01*
X117020459Y-93898486D01*
X117066278Y-94056198D01*
X117149874Y-94197552D01*
X117149881Y-94197561D01*
X117265998Y-94313678D01*
X117266007Y-94313685D01*
X117407363Y-94397282D01*
X117407366Y-94397283D01*
X117565064Y-94443099D01*
X117565070Y-94443100D01*
X117601910Y-94445999D01*
X117601926Y-94446000D01*
X118005060Y-94446000D01*
X118005060Y-93896000D01*
X117020265Y-93896000D01*
X117020264Y-93896001D01*
X115950000Y-93896001D01*
X115950000Y-93696000D01*
X114550000Y-93696000D01*
X114550000Y-95695999D01*
X114049999Y-95695999D01*
X114050000Y-95695998D01*
X114050000Y-93696000D01*
X112650001Y-93696000D01*
X112650001Y-94995986D01*
X111882926Y-94995986D01*
X111890158Y-93395998D01*
X117020264Y-93395998D01*
X117020265Y-93396000D01*
X118005060Y-93396000D01*
X118005060Y-92846000D01*
X117601910Y-92846000D01*
X117565070Y-92848899D01*
X117565064Y-92848900D01*
X117407366Y-92894716D01*
X117407363Y-92894717D01*
X117266007Y-92978314D01*
X117265998Y-92978321D01*
X117149881Y-93094438D01*
X117149874Y-93094447D01*
X117066278Y-93235801D01*
X117020459Y-93393513D01*
X117020264Y-93395998D01*
X111890158Y-93395998D01*
X111896938Y-91896013D01*
X112650000Y-91896013D01*
X112650000Y-93196000D01*
X114050000Y-93196000D01*
X114550000Y-93196000D01*
X115949999Y-93196000D01*
X115949999Y-91896028D01*
X115949998Y-91896013D01*
X115939505Y-91793302D01*
X115884358Y-91626880D01*
X115884356Y-91626875D01*
X115792315Y-91477654D01*
X115668345Y-91353684D01*
X115519124Y-91261643D01*
X115519119Y-91261641D01*
X115352697Y-91206494D01*
X115352690Y-91206493D01*
X115249986Y-91196000D01*
X114550000Y-91196000D01*
X114550000Y-93196000D01*
X114050000Y-93196000D01*
X114050000Y-91196000D01*
X113350028Y-91196000D01*
X113350012Y-91196001D01*
X113247302Y-91206494D01*
X113080880Y-91261641D01*
X113080875Y-91261643D01*
X112931654Y-91353684D01*
X112807684Y-91477654D01*
X112715643Y-91626875D01*
X112715641Y-91626880D01*
X112660494Y-91793302D01*
X112660493Y-91793309D01*
X112650000Y-91896013D01*
X111896938Y-91896013D01*
X111903018Y-90550907D01*
X111923006Y-90483958D01*
X111976016Y-90438442D01*
X112045219Y-90428811D01*
X112108642Y-90458123D01*
X112126283Y-90477157D01*
X112206906Y-90584855D01*
X112206909Y-90584858D01*
X112322003Y-90671018D01*
X112322010Y-90671022D01*
X112456717Y-90721264D01*
X112456724Y-90721266D01*
X112516252Y-90727667D01*
X112516269Y-90727668D01*
X114219097Y-90727668D01*
X114719097Y-90727668D01*
X116421925Y-90727668D01*
X116421941Y-90727667D01*
X116481469Y-90721266D01*
X116481476Y-90721264D01*
X116616183Y-90671022D01*
X116616190Y-90671018D01*
X116731284Y-90584858D01*
X116731287Y-90584855D01*
X116817447Y-90469761D01*
X116817451Y-90469754D01*
X116867693Y-90335047D01*
X116867695Y-90335040D01*
X116874096Y-90275512D01*
X116874097Y-90275495D01*
X116874097Y-88357668D01*
X114719097Y-88357668D01*
X114719097Y-90727668D01*
X114219097Y-90727668D01*
X114219097Y-87857668D01*
X114719097Y-87857668D01*
X116874097Y-87857668D01*
X116874097Y-85939840D01*
X116874096Y-85939823D01*
X116867695Y-85880295D01*
X116867693Y-85880288D01*
X116817451Y-85745581D01*
X116817447Y-85745574D01*
X116731287Y-85630480D01*
X116731284Y-85630477D01*
X116616190Y-85544317D01*
X116616183Y-85544313D01*
X116481476Y-85494071D01*
X116481469Y-85494069D01*
X116421941Y-85487668D01*
X114719097Y-85487668D01*
X114719097Y-87857668D01*
X114219097Y-87857668D01*
X114219097Y-85487668D01*
X112516252Y-85487668D01*
X112456724Y-85494069D01*
X112456717Y-85494071D01*
X112322010Y-85544313D01*
X112322003Y-85544317D01*
X112206909Y-85630477D01*
X112148508Y-85708490D01*
X112092574Y-85750360D01*
X112022882Y-85755344D01*
X111961559Y-85721858D01*
X111928075Y-85660534D01*
X111925243Y-85633623D01*
X111926609Y-85331376D01*
X111946597Y-85264429D01*
X111999607Y-85218913D01*
X112050916Y-85207939D01*
X117558391Y-85221765D01*
G37*
%TD.AperFunction*%
%TD*%
%TA.AperFunction,Conductor*%
%TO.N,Net-(U1-SW)*%
G36*
X129737039Y-91586685D02*
G01*
X129782794Y-91639489D01*
X129794000Y-91691000D01*
X129794000Y-93094000D01*
X129774315Y-93161039D01*
X129721511Y-93206794D01*
X129670000Y-93218000D01*
X129413000Y-93218000D01*
X129413000Y-93471578D01*
X129393315Y-93538617D01*
X129340511Y-93584372D01*
X129271353Y-93594316D01*
X129234542Y-93582980D01*
X129217367Y-93574584D01*
X129217368Y-93574584D01*
X129144721Y-93564000D01*
X129038000Y-93564000D01*
X129038000Y-94465000D01*
X129035449Y-94473685D01*
X129036738Y-94482647D01*
X129025759Y-94506687D01*
X129018315Y-94532039D01*
X129011474Y-94537966D01*
X129007713Y-94546203D01*
X128985478Y-94560492D01*
X128965511Y-94577794D01*
X128954996Y-94580081D01*
X128948935Y-94583977D01*
X128914000Y-94589000D01*
X128862000Y-94589000D01*
X128794961Y-94569315D01*
X128749206Y-94516511D01*
X128738000Y-94465000D01*
X128738000Y-93564000D01*
X128648000Y-93564000D01*
X128580961Y-93544315D01*
X128535206Y-93491511D01*
X128524000Y-93440000D01*
X128524000Y-93218000D01*
X128227787Y-93119262D01*
X128170413Y-93079387D01*
X128143704Y-93014824D01*
X128143000Y-93001625D01*
X128143000Y-91691000D01*
X128162685Y-91623961D01*
X128215489Y-91578206D01*
X128267000Y-91567000D01*
X129670000Y-91567000D01*
X129737039Y-91586685D01*
G37*
%TD.AperFunction*%
%TD*%
%TA.AperFunction,Conductor*%
%TO.N,Net-(F1-Pad1)*%
G36*
X117548464Y-78338707D02*
G01*
X117594728Y-78391065D01*
X117606436Y-78444028D01*
X117588511Y-84592389D01*
X117568632Y-84659370D01*
X117515694Y-84704971D01*
X117464201Y-84716027D01*
X112052186Y-84702441D01*
X112052185Y-84702441D01*
X112008117Y-84707044D01*
X111945180Y-84713620D01*
X111893890Y-84724591D01*
X111893881Y-84724593D01*
X111791697Y-84758149D01*
X111791689Y-84758153D01*
X111757700Y-84779778D01*
X111757655Y-84779808D01*
X111725442Y-84800305D01*
X111688378Y-84800542D01*
X111689537Y-84823152D01*
X111670303Y-84835391D01*
X111638385Y-84862796D01*
X111638373Y-84862805D01*
X111617290Y-84880909D01*
X111522588Y-84989206D01*
X111522587Y-84989207D01*
X111462225Y-85119812D01*
X111462224Y-85119813D01*
X111442284Y-85186603D01*
X111442233Y-85186773D01*
X111421114Y-85329089D01*
X111421113Y-85329094D01*
X111419748Y-85631349D01*
X111422517Y-85686502D01*
X111422521Y-85686551D01*
X111425349Y-85713428D01*
X111434124Y-85767976D01*
X111484402Y-85902782D01*
X111484403Y-85902785D01*
X111484404Y-85902786D01*
X111516828Y-85962170D01*
X111517595Y-85963636D01*
X111517887Y-85964110D01*
X111604110Y-86079293D01*
X111604114Y-86079297D01*
X111697929Y-86149528D01*
X111739799Y-86205462D01*
X111747614Y-86247971D01*
X111771898Y-89906365D01*
X111752659Y-89973534D01*
X111714470Y-90011804D01*
X111646714Y-90054917D01*
X111593699Y-90100438D01*
X111522344Y-90182037D01*
X111463396Y-90219545D01*
X111393527Y-90219229D01*
X111334920Y-90181188D01*
X111306183Y-90117502D01*
X111305000Y-90100411D01*
X111305000Y-89531000D01*
X110305000Y-89531000D01*
X110305000Y-89031000D01*
X111305000Y-89031000D01*
X111305000Y-86933172D01*
X111304999Y-86933155D01*
X111298598Y-86873627D01*
X111298596Y-86873620D01*
X111248354Y-86738913D01*
X111248350Y-86738906D01*
X111162190Y-86623812D01*
X111162187Y-86623809D01*
X111047093Y-86537649D01*
X111047086Y-86537645D01*
X110912379Y-86487403D01*
X110912372Y-86487401D01*
X110852844Y-86481000D01*
X110055000Y-86481000D01*
X110055000Y-87547988D01*
X109997993Y-87515075D01*
X109870826Y-87481000D01*
X109739174Y-87481000D01*
X109612007Y-87515075D01*
X109555000Y-87547988D01*
X109555000Y-86481000D01*
X108757155Y-86481000D01*
X108697627Y-86487401D01*
X108697620Y-86487403D01*
X108562913Y-86537645D01*
X108562906Y-86537649D01*
X108447812Y-86623809D01*
X108447809Y-86623812D01*
X108361649Y-86738906D01*
X108361645Y-86738913D01*
X108311403Y-86873620D01*
X108311401Y-86873627D01*
X108305000Y-86933155D01*
X108305000Y-89031000D01*
X109305000Y-89031000D01*
X109305000Y-89531000D01*
X108305000Y-89531000D01*
X108305000Y-91628844D01*
X108311401Y-91688372D01*
X108311403Y-91688379D01*
X108361645Y-91823086D01*
X108361649Y-91823093D01*
X108447809Y-91938187D01*
X108447812Y-91938190D01*
X108562906Y-92024350D01*
X108562913Y-92024354D01*
X108697620Y-92074596D01*
X108697627Y-92074598D01*
X108757155Y-92080999D01*
X108757172Y-92081000D01*
X109555000Y-92081000D01*
X109555000Y-91014012D01*
X109612007Y-91046925D01*
X109739174Y-91081000D01*
X109870826Y-91081000D01*
X109997993Y-91046925D01*
X110055000Y-91014012D01*
X110055000Y-92081000D01*
X110852828Y-92081000D01*
X110852844Y-92080999D01*
X110912372Y-92074598D01*
X110912379Y-92074596D01*
X111047086Y-92024354D01*
X111047093Y-92024350D01*
X111162185Y-91938191D01*
X111167669Y-91930867D01*
X111223603Y-91888996D01*
X111293294Y-91884011D01*
X111354618Y-91917495D01*
X111388103Y-91978818D01*
X111390936Y-92005738D01*
X111389909Y-92232771D01*
X111369921Y-92299721D01*
X111316911Y-92345236D01*
X111265144Y-92356208D01*
X107923419Y-92335559D01*
X107856502Y-92315460D01*
X107811074Y-92262375D01*
X107800190Y-92210502D01*
X107817548Y-90182037D01*
X107823568Y-89478577D01*
X107842566Y-87258321D01*
X107836489Y-86932161D01*
X107780091Y-83905512D01*
X112064097Y-83905512D01*
X112070498Y-83965040D01*
X112070500Y-83965047D01*
X112120742Y-84099754D01*
X112120746Y-84099761D01*
X112206906Y-84214855D01*
X112206909Y-84214858D01*
X112322003Y-84301018D01*
X112322010Y-84301022D01*
X112456717Y-84351264D01*
X112456724Y-84351266D01*
X112516252Y-84357667D01*
X112516269Y-84357668D01*
X114219097Y-84357668D01*
X114719097Y-84357668D01*
X116421925Y-84357668D01*
X116421941Y-84357667D01*
X116481469Y-84351266D01*
X116481476Y-84351264D01*
X116616183Y-84301022D01*
X116616190Y-84301018D01*
X116731284Y-84214858D01*
X116731287Y-84214855D01*
X116817447Y-84099761D01*
X116817451Y-84099754D01*
X116867693Y-83965047D01*
X116867695Y-83965040D01*
X116874096Y-83905512D01*
X116874097Y-83905495D01*
X116874097Y-81987668D01*
X114719097Y-81987668D01*
X114719097Y-84357668D01*
X114219097Y-84357668D01*
X114219097Y-81987668D01*
X112064097Y-81987668D01*
X112064097Y-83905512D01*
X107780091Y-83905512D01*
X107758947Y-82770785D01*
X107777379Y-82703391D01*
X107791937Y-82684230D01*
X110675786Y-79569823D01*
X112064097Y-79569823D01*
X112064097Y-81487668D01*
X114219097Y-81487668D01*
X114719097Y-81487668D01*
X116874097Y-81487668D01*
X116874097Y-79569840D01*
X116874096Y-79569823D01*
X116867695Y-79510295D01*
X116867693Y-79510288D01*
X116817451Y-79375581D01*
X116817447Y-79375574D01*
X116731287Y-79260480D01*
X116731284Y-79260477D01*
X116616190Y-79174317D01*
X116616183Y-79174313D01*
X116481476Y-79124071D01*
X116481469Y-79124069D01*
X116421941Y-79117668D01*
X114719097Y-79117668D01*
X114719097Y-81487668D01*
X114219097Y-81487668D01*
X114219097Y-79117668D01*
X112516252Y-79117668D01*
X112456724Y-79124069D01*
X112456717Y-79124071D01*
X112322010Y-79174313D01*
X112322003Y-79174317D01*
X112206909Y-79260477D01*
X112206906Y-79260480D01*
X112120746Y-79375574D01*
X112120742Y-79375581D01*
X112070500Y-79510288D01*
X112070498Y-79510295D01*
X112064097Y-79569823D01*
X110675786Y-79569823D01*
X111745999Y-78414048D01*
X111805988Y-78378235D01*
X111835775Y-78374305D01*
X117481237Y-78319672D01*
X117548464Y-78338707D01*
G37*
%TD.AperFunction*%
%TD*%
%TA.AperFunction,Conductor*%
%TO.N,+8.5V*%
G36*
X136603203Y-97271889D02*
G01*
X136609681Y-97277921D01*
X136638438Y-97306678D01*
X136638447Y-97306685D01*
X136779803Y-97390282D01*
X136779806Y-97390283D01*
X136881829Y-97419924D01*
X136940715Y-97457530D01*
X136969921Y-97521002D01*
X136960175Y-97590189D01*
X136914571Y-97643123D01*
X136847588Y-97662999D01*
X136847234Y-97663000D01*
X136522000Y-97663000D01*
X136454961Y-97643315D01*
X136409206Y-97590511D01*
X136398000Y-97539000D01*
X136398000Y-97365602D01*
X136417685Y-97298563D01*
X136470489Y-97252808D01*
X136539647Y-97242864D01*
X136603203Y-97271889D01*
G37*
%TD.AperFunction*%
%TA.AperFunction,Conductor*%
G36*
X161487039Y-85236685D02*
G01*
X161532794Y-85289489D01*
X161544000Y-85341000D01*
X161544000Y-89284000D01*
X161524315Y-89351039D01*
X161471511Y-89396794D01*
X161420000Y-89408000D01*
X160170346Y-89408000D01*
X160170346Y-89403817D01*
X160147510Y-89406228D01*
X160085091Y-89374834D01*
X160082080Y-89371922D01*
X159301489Y-88591330D01*
X159311890Y-88587022D01*
X159418351Y-88515888D01*
X159508888Y-88425351D01*
X159580022Y-88318890D01*
X159584330Y-88308488D01*
X160339255Y-89063413D01*
X160339257Y-89063413D01*
X160420533Y-88957495D01*
X160420535Y-88957491D01*
X160531945Y-88764520D01*
X160531954Y-88764502D01*
X160617236Y-88558618D01*
X160674911Y-88343367D01*
X160674914Y-88343354D01*
X160704000Y-88122424D01*
X160704000Y-87899575D01*
X160674914Y-87678645D01*
X160674911Y-87678632D01*
X160617236Y-87463381D01*
X160531954Y-87257497D01*
X160531945Y-87257479D01*
X160420537Y-87064511D01*
X160339256Y-86958585D01*
X159584330Y-87713511D01*
X159580022Y-87703110D01*
X159508888Y-87596649D01*
X159418351Y-87506112D01*
X159311890Y-87434978D01*
X159301487Y-87430669D01*
X160056413Y-86675742D01*
X159950488Y-86594462D01*
X159757520Y-86483054D01*
X159757502Y-86483045D01*
X159551618Y-86397763D01*
X159336367Y-86340088D01*
X159336354Y-86340085D01*
X159115425Y-86311000D01*
X158892575Y-86311000D01*
X158671645Y-86340085D01*
X158671632Y-86340088D01*
X158456381Y-86397763D01*
X158250497Y-86483045D01*
X158250479Y-86483054D01*
X158057508Y-86594464D01*
X158057506Y-86594465D01*
X157951585Y-86675741D01*
X157951585Y-86675742D01*
X158706512Y-87430669D01*
X158696110Y-87434978D01*
X158589649Y-87506112D01*
X158499112Y-87596649D01*
X158427978Y-87703110D01*
X158423669Y-87713511D01*
X157668742Y-86958585D01*
X157668741Y-86958585D01*
X157587465Y-87064506D01*
X157587464Y-87064508D01*
X157476054Y-87257479D01*
X157476045Y-87257497D01*
X157390763Y-87463381D01*
X157333088Y-87678632D01*
X157333085Y-87678645D01*
X157304000Y-87899575D01*
X157304000Y-88122424D01*
X157333085Y-88343354D01*
X157333088Y-88343367D01*
X157390763Y-88558618D01*
X157476045Y-88764502D01*
X157476054Y-88764520D01*
X157587462Y-88957488D01*
X157668742Y-89063413D01*
X158423669Y-88308487D01*
X158427978Y-88318890D01*
X158499112Y-88425351D01*
X158589649Y-88515888D01*
X158696110Y-88587022D01*
X158706511Y-88591330D01*
X157925919Y-89371922D01*
X157864596Y-89405407D01*
X157837654Y-89403480D01*
X157837654Y-89408000D01*
X155203769Y-89408000D01*
X153518553Y-90777238D01*
X153454110Y-90804235D01*
X153440360Y-90805000D01*
X148653500Y-90805000D01*
X147311069Y-91401636D01*
X145786845Y-92079068D01*
X145717589Y-92088307D01*
X145654332Y-92058637D01*
X145625250Y-92012723D01*
X145622382Y-92013965D01*
X145619282Y-92006803D01*
X145535685Y-91865447D01*
X145535678Y-91865438D01*
X145419561Y-91749321D01*
X145419552Y-91749314D01*
X145278196Y-91665717D01*
X145278193Y-91665716D01*
X145120495Y-91619900D01*
X145120489Y-91619899D01*
X145083649Y-91617000D01*
X144218000Y-91617000D01*
X144218000Y-96817000D01*
X145083634Y-96817000D01*
X145083649Y-96816999D01*
X145120489Y-96814100D01*
X145120495Y-96814099D01*
X145278193Y-96768283D01*
X145278196Y-96768282D01*
X145419552Y-96684685D01*
X145419557Y-96684681D01*
X145478875Y-96625363D01*
X145540198Y-96591878D01*
X145609890Y-96596862D01*
X145665824Y-96638733D01*
X145690241Y-96704197D01*
X145690525Y-96715861D01*
X145671754Y-97541817D01*
X145650551Y-97608392D01*
X145596721Y-97652936D01*
X145547786Y-97663000D01*
X138057766Y-97663000D01*
X137990727Y-97643315D01*
X137944972Y-97590511D01*
X137935028Y-97521353D01*
X137964053Y-97457797D01*
X138022831Y-97420023D01*
X138023171Y-97419924D01*
X138125193Y-97390283D01*
X138125196Y-97390282D01*
X138266552Y-97306685D01*
X138266561Y-97306678D01*
X138382678Y-97190561D01*
X138382685Y-97190552D01*
X138466282Y-97049196D01*
X138466283Y-97049193D01*
X138512099Y-96891495D01*
X138512100Y-96891489D01*
X138514999Y-96854649D01*
X138515000Y-96854634D01*
X138515000Y-96339000D01*
X137576500Y-96339000D01*
X137509461Y-96319315D01*
X137463706Y-96266511D01*
X137456339Y-96232649D01*
X142368000Y-96232649D01*
X142370899Y-96269489D01*
X142370900Y-96269495D01*
X142416716Y-96427193D01*
X142416717Y-96427196D01*
X142500314Y-96568552D01*
X142500321Y-96568561D01*
X142616438Y-96684678D01*
X142616447Y-96684685D01*
X142757803Y-96768282D01*
X142757806Y-96768283D01*
X142915504Y-96814099D01*
X142915510Y-96814100D01*
X142952350Y-96816999D01*
X142952366Y-96817000D01*
X143818000Y-96817000D01*
X143818000Y-94417000D01*
X142368000Y-94417000D01*
X142368000Y-96232649D01*
X137456339Y-96232649D01*
X137452500Y-96215000D01*
X137452500Y-96139000D01*
X137376500Y-96139000D01*
X137309461Y-96119315D01*
X137263706Y-96066511D01*
X137252500Y-96015000D01*
X137252500Y-95939000D01*
X137652500Y-95939000D01*
X138515000Y-95939000D01*
X138515000Y-95423365D01*
X138514999Y-95423350D01*
X138512100Y-95386510D01*
X138512099Y-95386504D01*
X138466283Y-95228806D01*
X138466282Y-95228803D01*
X138382685Y-95087447D01*
X138382678Y-95087438D01*
X138266561Y-94971321D01*
X138266552Y-94971314D01*
X138125196Y-94887717D01*
X138125193Y-94887716D01*
X137967495Y-94841900D01*
X137967489Y-94841899D01*
X137930649Y-94839000D01*
X137652500Y-94839000D01*
X137652500Y-95939000D01*
X137252500Y-95939000D01*
X137252500Y-94839000D01*
X136974350Y-94839000D01*
X136937510Y-94841899D01*
X136937504Y-94841900D01*
X136779806Y-94887716D01*
X136779803Y-94887717D01*
X136638447Y-94971314D01*
X136638438Y-94971321D01*
X136609681Y-95000079D01*
X136548358Y-95033564D01*
X136478666Y-95028580D01*
X136422733Y-94986708D01*
X136398316Y-94921244D01*
X136398000Y-94912398D01*
X136398000Y-94444602D01*
X136417685Y-94377563D01*
X136470489Y-94331808D01*
X136539647Y-94321864D01*
X136603203Y-94350889D01*
X136609681Y-94356921D01*
X136638438Y-94385678D01*
X136638447Y-94385685D01*
X136779803Y-94469282D01*
X136779806Y-94469283D01*
X136937504Y-94515099D01*
X136937510Y-94515100D01*
X136974350Y-94517999D01*
X136974366Y-94518000D01*
X137252500Y-94518000D01*
X137652500Y-94518000D01*
X137930634Y-94518000D01*
X137930649Y-94517999D01*
X137967489Y-94515100D01*
X137967495Y-94515099D01*
X138125193Y-94469283D01*
X138125196Y-94469282D01*
X138266552Y-94385685D01*
X138266561Y-94385678D01*
X138374283Y-94277957D01*
X138382678Y-94269561D01*
X138382685Y-94269552D01*
X138466282Y-94128196D01*
X138466283Y-94128193D01*
X138512099Y-93970495D01*
X138512100Y-93970489D01*
X138514999Y-93933649D01*
X138515000Y-93933634D01*
X138515000Y-93418000D01*
X137652500Y-93418000D01*
X137652500Y-94518000D01*
X137252500Y-94518000D01*
X137252500Y-93018000D01*
X137652500Y-93018000D01*
X138515000Y-93018000D01*
X138515000Y-92502365D01*
X138514999Y-92502350D01*
X138512100Y-92465510D01*
X138512099Y-92465504D01*
X138466283Y-92307806D01*
X138466282Y-92307803D01*
X138382685Y-92166447D01*
X138382678Y-92166438D01*
X138266561Y-92050321D01*
X138266552Y-92050314D01*
X138125196Y-91966717D01*
X138125193Y-91966716D01*
X137967495Y-91920900D01*
X137967489Y-91920899D01*
X137930649Y-91918000D01*
X137652500Y-91918000D01*
X137652500Y-93018000D01*
X137252500Y-93018000D01*
X137252500Y-91918000D01*
X136974350Y-91918000D01*
X136937510Y-91920899D01*
X136937504Y-91920900D01*
X136779806Y-91966716D01*
X136779803Y-91966717D01*
X136638447Y-92050314D01*
X136638442Y-92050318D01*
X136519932Y-92168828D01*
X136458609Y-92202312D01*
X136388917Y-92197328D01*
X136379818Y-92193515D01*
X135277719Y-91679202D01*
X134564562Y-91346395D01*
X134512136Y-91300207D01*
X134493000Y-91234028D01*
X134493000Y-91105479D01*
X135419001Y-91105479D01*
X135433835Y-91199149D01*
X135433837Y-91199155D01*
X135491356Y-91312041D01*
X135491363Y-91312050D01*
X135580949Y-91401636D01*
X135580953Y-91401639D01*
X135693855Y-91459166D01*
X135787514Y-91473999D01*
X139118999Y-91473999D01*
X139519000Y-91473999D01*
X142628714Y-91473999D01*
X142695753Y-91493684D01*
X142741508Y-91546488D01*
X142751452Y-91615646D01*
X142722427Y-91679202D01*
X142691835Y-91704731D01*
X142616446Y-91749315D01*
X142616438Y-91749321D01*
X142500321Y-91865438D01*
X142500314Y-91865447D01*
X142416717Y-92006803D01*
X142416716Y-92006806D01*
X142370900Y-92164504D01*
X142370899Y-92164510D01*
X142368000Y-92201350D01*
X142368000Y-94017000D01*
X143818000Y-94017000D01*
X143818000Y-91617000D01*
X143141049Y-91617000D01*
X143074010Y-91597315D01*
X143028255Y-91544511D01*
X143018311Y-91475353D01*
X143047336Y-91411797D01*
X143053368Y-91405319D01*
X143146636Y-91312050D01*
X143146639Y-91312046D01*
X143204166Y-91199144D01*
X143219000Y-91105486D01*
X143219000Y-89797649D01*
X149326000Y-89797649D01*
X149328899Y-89834489D01*
X149328900Y-89834495D01*
X149374716Y-89992193D01*
X149374717Y-89992196D01*
X149458314Y-90133552D01*
X149458321Y-90133561D01*
X149574438Y-90249678D01*
X149574447Y-90249685D01*
X149715803Y-90333282D01*
X149715806Y-90333283D01*
X149873504Y-90379099D01*
X149873510Y-90379100D01*
X149910350Y-90381999D01*
X149910366Y-90382000D01*
X150676000Y-90382000D01*
X151076000Y-90382000D01*
X151841634Y-90382000D01*
X151841649Y-90381999D01*
X151878489Y-90379100D01*
X151878495Y-90379099D01*
X152036193Y-90333283D01*
X152036196Y-90333282D01*
X152177552Y-90249685D01*
X152177561Y-90249678D01*
X152293678Y-90133561D01*
X152293685Y-90133552D01*
X152377282Y-89992196D01*
X152377283Y-89992193D01*
X152423099Y-89834495D01*
X152423100Y-89834489D01*
X152425999Y-89797649D01*
X152426000Y-89797634D01*
X152426000Y-88432000D01*
X151076000Y-88432000D01*
X151076000Y-90382000D01*
X150676000Y-90382000D01*
X150676000Y-88432000D01*
X149326000Y-88432000D01*
X149326000Y-89797649D01*
X143219000Y-89797649D01*
X143219000Y-89274000D01*
X139519000Y-89274000D01*
X139519000Y-91473999D01*
X139118999Y-91473999D01*
X139119000Y-91473998D01*
X139119000Y-89274000D01*
X135419001Y-89274000D01*
X135419001Y-91105479D01*
X134493000Y-91105479D01*
X134493000Y-87042513D01*
X135419000Y-87042513D01*
X135419000Y-88874000D01*
X139119000Y-88874000D01*
X139519000Y-88874000D01*
X143218999Y-88874000D01*
X143218999Y-87042520D01*
X143204164Y-86948850D01*
X143204162Y-86948844D01*
X143146643Y-86835958D01*
X143146636Y-86835949D01*
X143057050Y-86746363D01*
X143057046Y-86746360D01*
X142944144Y-86688833D01*
X142850486Y-86674000D01*
X139519000Y-86674000D01*
X139519000Y-88874000D01*
X139119000Y-88874000D01*
X139119000Y-86674000D01*
X135787520Y-86674000D01*
X135693850Y-86688835D01*
X135693844Y-86688837D01*
X135580958Y-86746356D01*
X135580949Y-86746363D01*
X135491363Y-86835949D01*
X135491360Y-86835953D01*
X135433833Y-86948855D01*
X135419000Y-87042513D01*
X134493000Y-87042513D01*
X134493000Y-86666350D01*
X149326000Y-86666350D01*
X149326000Y-88032000D01*
X150676000Y-88032000D01*
X151076000Y-88032000D01*
X152426000Y-88032000D01*
X152426000Y-86666365D01*
X152425999Y-86666350D01*
X152423100Y-86629510D01*
X152423099Y-86629504D01*
X152377283Y-86471806D01*
X152377282Y-86471803D01*
X152293685Y-86330447D01*
X152293678Y-86330438D01*
X152177561Y-86214321D01*
X152177552Y-86214314D01*
X152036196Y-86130717D01*
X152036193Y-86130716D01*
X151878495Y-86084900D01*
X151878489Y-86084899D01*
X151841649Y-86082000D01*
X151076000Y-86082000D01*
X151076000Y-88032000D01*
X150676000Y-88032000D01*
X150676000Y-86082000D01*
X149910350Y-86082000D01*
X149873510Y-86084899D01*
X149873504Y-86084900D01*
X149715806Y-86130716D01*
X149715803Y-86130717D01*
X149574447Y-86214314D01*
X149574438Y-86214321D01*
X149458321Y-86330438D01*
X149458314Y-86330447D01*
X149374717Y-86471803D01*
X149374716Y-86471806D01*
X149328900Y-86629504D01*
X149328899Y-86629510D01*
X149326000Y-86666350D01*
X134493000Y-86666350D01*
X134493000Y-86101732D01*
X134512685Y-86034693D01*
X134565489Y-85988938D01*
X134615723Y-85977739D01*
X146859625Y-85852000D01*
X148022897Y-85231587D01*
X148081250Y-85217000D01*
X161420000Y-85217000D01*
X161487039Y-85236685D01*
G37*
%TD.AperFunction*%
%TD*%
%TA.AperFunction,Conductor*%
%TO.N,GND*%
G36*
X134030222Y-75520185D02*
G01*
X134075977Y-75572989D01*
X134085921Y-75642147D01*
X134060686Y-75701109D01*
X133955059Y-75835544D01*
X133252111Y-76730203D01*
X133252112Y-76730204D01*
X132506544Y-77679110D01*
X132449647Y-77719663D01*
X132409040Y-77726500D01*
X128013000Y-77726500D01*
X128012991Y-77726500D01*
X128012990Y-77726501D01*
X127905549Y-77738052D01*
X127905537Y-77738054D01*
X127854027Y-77749260D01*
X127751502Y-77783383D01*
X127751496Y-77783386D01*
X127630462Y-77861171D01*
X127630451Y-77861179D01*
X127577659Y-77906923D01*
X127483433Y-78015664D01*
X127483430Y-78015668D01*
X127423664Y-78146534D01*
X127420004Y-78159000D01*
X127403977Y-78213580D01*
X127403976Y-78213584D01*
X127383500Y-78356000D01*
X127383500Y-78368500D01*
X127383500Y-80140000D01*
X127383501Y-80140009D01*
X127395052Y-80247450D01*
X127395054Y-80247462D01*
X127406260Y-80298972D01*
X127440383Y-80401497D01*
X127440386Y-80401503D01*
X127518171Y-80522537D01*
X127518179Y-80522548D01*
X127563923Y-80575340D01*
X127563926Y-80575343D01*
X127563930Y-80575347D01*
X127672664Y-80669567D01*
X127803541Y-80729338D01*
X127870580Y-80749023D01*
X127870584Y-80749024D01*
X128013000Y-80769500D01*
X130559690Y-80769500D01*
X130606474Y-80778664D01*
X131072432Y-80968499D01*
X132150214Y-81407595D01*
X132522707Y-81559351D01*
X132522711Y-81559354D01*
X134064328Y-82187420D01*
X135145690Y-82627975D01*
X135239236Y-82655906D01*
X135286021Y-82665071D01*
X135383199Y-82674500D01*
X143893990Y-82674500D01*
X143894000Y-82674500D01*
X144001456Y-82662947D01*
X144052967Y-82651741D01*
X144095964Y-82637430D01*
X144155497Y-82617616D01*
X144155501Y-82617613D01*
X144155504Y-82617613D01*
X144276543Y-82539825D01*
X144329347Y-82494070D01*
X144423567Y-82385336D01*
X144483338Y-82254459D01*
X144503023Y-82187420D01*
X144503024Y-82187416D01*
X144523500Y-82045000D01*
X144523500Y-75943000D01*
X144511947Y-75835544D01*
X144500741Y-75784033D01*
X144500637Y-75783722D01*
X144466615Y-75681499D01*
X144464952Y-75678024D01*
X144464471Y-75675057D01*
X144464164Y-75674135D01*
X144464313Y-75674085D01*
X144453771Y-75609055D01*
X144481652Y-75544989D01*
X144539744Y-75506168D01*
X144576805Y-75500500D01*
X164375500Y-75500500D01*
X164442539Y-75520185D01*
X164488294Y-75572989D01*
X164499500Y-75624500D01*
X164499500Y-104375500D01*
X164479815Y-104442539D01*
X164427011Y-104488294D01*
X164375500Y-104499500D01*
X95624500Y-104499500D01*
X95557461Y-104479815D01*
X95511706Y-104427011D01*
X95500500Y-104375500D01*
X95500500Y-103632649D01*
X142368000Y-103632649D01*
X142370899Y-103669489D01*
X142370900Y-103669495D01*
X142416716Y-103827193D01*
X142416717Y-103827196D01*
X142500314Y-103968552D01*
X142500321Y-103968561D01*
X142616438Y-104084678D01*
X142616447Y-104084685D01*
X142757803Y-104168282D01*
X142757806Y-104168283D01*
X142915504Y-104214099D01*
X142915510Y-104214100D01*
X142952350Y-104216999D01*
X142952366Y-104217000D01*
X143818000Y-104217000D01*
X144218000Y-104217000D01*
X145083634Y-104217000D01*
X145083649Y-104216999D01*
X145120489Y-104214100D01*
X145120495Y-104214099D01*
X145278193Y-104168283D01*
X145278196Y-104168282D01*
X145419552Y-104084685D01*
X145419561Y-104084678D01*
X145535678Y-103968561D01*
X145535685Y-103968552D01*
X145619282Y-103827196D01*
X145619283Y-103827193D01*
X145665099Y-103669495D01*
X145665100Y-103669489D01*
X145667999Y-103632649D01*
X145668000Y-103632634D01*
X145668000Y-101817000D01*
X144218000Y-101817000D01*
X144218000Y-104217000D01*
X143818000Y-104217000D01*
X143818000Y-101817000D01*
X142368000Y-101817000D01*
X142368000Y-103632649D01*
X95500500Y-103632649D01*
X95500500Y-101175893D01*
X125109001Y-101175893D01*
X125111844Y-101212021D01*
X125156779Y-101366689D01*
X125156780Y-101366692D01*
X125238770Y-101505331D01*
X125238776Y-101505339D01*
X125352660Y-101619223D01*
X125352668Y-101619229D01*
X125491307Y-101701219D01*
X125491310Y-101701220D01*
X125645975Y-101746155D01*
X125645981Y-101746156D01*
X125682116Y-101748999D01*
X126184000Y-101748999D01*
X126285872Y-101748999D01*
X126285893Y-101748998D01*
X126322021Y-101746155D01*
X126476689Y-101701220D01*
X126476692Y-101701219D01*
X126615331Y-101619229D01*
X126615339Y-101619223D01*
X126729223Y-101505339D01*
X126729229Y-101505331D01*
X126811218Y-101366693D01*
X126817423Y-101345339D01*
X126855030Y-101286453D01*
X126918502Y-101257246D01*
X126987689Y-101266992D01*
X127040623Y-101312595D01*
X127055577Y-101345339D01*
X127061781Y-101366693D01*
X127143770Y-101505331D01*
X127143776Y-101505339D01*
X127257660Y-101619223D01*
X127257668Y-101619229D01*
X127396307Y-101701219D01*
X127396310Y-101701220D01*
X127550975Y-101746155D01*
X127550981Y-101746156D01*
X127587116Y-101748999D01*
X127689000Y-101748998D01*
X127689000Y-101061500D01*
X127005538Y-101061500D01*
X127004744Y-101061933D01*
X126988012Y-101076432D01*
X126974679Y-101078348D01*
X126962856Y-101084805D01*
X126940769Y-101083224D01*
X126918854Y-101086376D01*
X126906601Y-101080780D01*
X126893164Y-101079819D01*
X126875436Y-101066547D01*
X126864383Y-101061500D01*
X126184000Y-101061500D01*
X126184000Y-101748999D01*
X125682116Y-101748999D01*
X125784000Y-101748998D01*
X125784000Y-101061500D01*
X125109001Y-101061500D01*
X125109001Y-101175893D01*
X95500500Y-101175893D01*
X95500500Y-100411649D01*
X112750000Y-100411649D01*
X112752899Y-100448489D01*
X112752900Y-100448495D01*
X112798716Y-100606193D01*
X112798717Y-100606196D01*
X112882314Y-100747552D01*
X112882321Y-100747561D01*
X112998438Y-100863678D01*
X112998447Y-100863685D01*
X113139803Y-100947282D01*
X113139806Y-100947283D01*
X113297504Y-100993099D01*
X113297510Y-100993100D01*
X113334350Y-100995999D01*
X113334366Y-100996000D01*
X114100000Y-100996000D01*
X114500000Y-100996000D01*
X115265634Y-100996000D01*
X115265649Y-100995999D01*
X115302489Y-100993100D01*
X115302495Y-100993099D01*
X115460193Y-100947283D01*
X115460196Y-100947282D01*
X115534388Y-100903406D01*
X115601553Y-100863684D01*
X115601561Y-100863678D01*
X115717678Y-100747561D01*
X115717685Y-100747552D01*
X115801282Y-100606196D01*
X115801283Y-100606193D01*
X115847099Y-100448495D01*
X115847100Y-100448489D01*
X115849999Y-100411649D01*
X115850000Y-100411634D01*
X115850000Y-99046000D01*
X114500000Y-99046000D01*
X114500000Y-100996000D01*
X114100000Y-100996000D01*
X114100000Y-99046000D01*
X112750000Y-99046000D01*
X112750000Y-100411649D01*
X95500500Y-100411649D01*
X95500500Y-93962902D01*
X104304500Y-93962902D01*
X104304500Y-94199097D01*
X104341446Y-94432368D01*
X104414433Y-94656996D01*
X104513655Y-94851729D01*
X104521657Y-94867433D01*
X104660483Y-95058510D01*
X104827490Y-95225517D01*
X105018567Y-95364343D01*
X105117991Y-95415002D01*
X105229003Y-95471566D01*
X105229005Y-95471566D01*
X105229008Y-95471568D01*
X105318790Y-95500740D01*
X105453631Y-95544553D01*
X105686903Y-95581500D01*
X105686908Y-95581500D01*
X108123097Y-95581500D01*
X108356368Y-95544553D01*
X108373563Y-95538966D01*
X108580992Y-95471568D01*
X108791433Y-95364343D01*
X108982510Y-95225517D01*
X109149517Y-95058510D01*
X109288343Y-94867433D01*
X109395568Y-94656992D01*
X109468553Y-94432368D01*
X109489172Y-94302184D01*
X109505500Y-94199097D01*
X109505500Y-93962902D01*
X109468553Y-93729631D01*
X109399609Y-93517446D01*
X109395568Y-93505008D01*
X109395566Y-93505005D01*
X109395566Y-93505003D01*
X109292878Y-93303468D01*
X109288343Y-93294567D01*
X109149517Y-93103490D01*
X109106631Y-93060604D01*
X109073146Y-92999281D01*
X109078130Y-92929589D01*
X109120002Y-92873656D01*
X109185466Y-92849239D01*
X109195056Y-92848925D01*
X111262021Y-92861698D01*
X111262027Y-92861697D01*
X111263271Y-92861705D01*
X111330188Y-92881804D01*
X111375616Y-92934889D01*
X111386504Y-92986263D01*
X111384663Y-93393713D01*
X111377537Y-94970227D01*
X111377431Y-94993701D01*
X111372139Y-96164622D01*
X111383581Y-96271513D01*
X111384077Y-96276141D01*
X111387982Y-96293786D01*
X111395892Y-96329529D01*
X111395893Y-96329532D01*
X111432114Y-96435642D01*
X111432119Y-96435652D01*
X111511309Y-96555763D01*
X111511315Y-96555771D01*
X111557684Y-96608036D01*
X111667511Y-96700977D01*
X111799079Y-96759214D01*
X111866344Y-96778114D01*
X111866349Y-96778115D01*
X112008995Y-96796924D01*
X112755890Y-96788188D01*
X112823151Y-96807087D01*
X112869520Y-96859352D01*
X112880272Y-96928389D01*
X112864068Y-96975300D01*
X112798717Y-97085803D01*
X112798716Y-97085806D01*
X112752900Y-97243504D01*
X112752899Y-97243510D01*
X112750000Y-97280350D01*
X112750000Y-98646000D01*
X115850000Y-98646000D01*
X115850000Y-97329893D01*
X117488561Y-97329893D01*
X117491404Y-97366021D01*
X117536339Y-97520689D01*
X117536340Y-97520692D01*
X117618330Y-97659331D01*
X117618336Y-97659339D01*
X117732220Y-97773223D01*
X117732228Y-97773229D01*
X117870867Y-97855219D01*
X117870870Y-97855220D01*
X118025535Y-97900155D01*
X118025541Y-97900156D01*
X118061676Y-97902999D01*
X118176059Y-97902999D01*
X118176060Y-97902998D01*
X118176060Y-97228000D01*
X117488561Y-97228000D01*
X117488561Y-97329893D01*
X115850000Y-97329893D01*
X115850000Y-97280365D01*
X115849999Y-97280350D01*
X115847100Y-97243510D01*
X115847099Y-97243507D01*
X115837723Y-97211234D01*
X115837722Y-97211232D01*
X115801281Y-97085802D01*
X115714737Y-96939462D01*
X115697554Y-96871738D01*
X115719714Y-96805475D01*
X115774180Y-96761712D01*
X115820013Y-96752350D01*
X116116279Y-96748885D01*
X116167354Y-96745698D01*
X116167369Y-96745696D01*
X116167373Y-96745696D01*
X116167377Y-96745696D01*
X116192222Y-96742877D01*
X116192234Y-96742875D01*
X116192262Y-96742872D01*
X116242727Y-96734542D01*
X116242733Y-96734539D01*
X116242736Y-96734539D01*
X116265337Y-96726109D01*
X117488560Y-96726109D01*
X117488560Y-96828000D01*
X118176060Y-96828000D01*
X118176060Y-96153000D01*
X118061689Y-96153000D01*
X118061665Y-96153001D01*
X118025538Y-96155844D01*
X117870870Y-96200779D01*
X117870867Y-96200780D01*
X117732228Y-96282770D01*
X117732220Y-96282776D01*
X117618336Y-96396660D01*
X117618330Y-96396668D01*
X117536340Y-96535307D01*
X117536339Y-96535310D01*
X117491404Y-96689975D01*
X117491403Y-96689981D01*
X117488560Y-96726109D01*
X116265337Y-96726109D01*
X116362214Y-96689975D01*
X116377536Y-96684260D01*
X116438859Y-96650775D01*
X116554041Y-96564551D01*
X117652039Y-95466550D01*
X117713362Y-95433066D01*
X117738341Y-95430240D01*
X118775057Y-95418716D01*
X118879634Y-95406590D01*
X118929767Y-95395392D01*
X118966073Y-95383195D01*
X119035890Y-95380506D01*
X119096078Y-95415991D01*
X119127528Y-95478382D01*
X119129560Y-95500740D01*
X119129560Y-96130233D01*
X119109875Y-96197272D01*
X119057071Y-96243027D01*
X118987913Y-96252971D01*
X118942440Y-96236966D01*
X118881250Y-96200779D01*
X118726584Y-96155844D01*
X118726578Y-96155843D01*
X118690450Y-96153000D01*
X118576060Y-96153000D01*
X118576060Y-97902999D01*
X118690432Y-97902999D01*
X118690453Y-97902998D01*
X118726581Y-97900155D01*
X118881249Y-97855220D01*
X118881252Y-97855219D01*
X119019891Y-97773229D01*
X119019899Y-97773223D01*
X119139305Y-97653818D01*
X119140874Y-97655387D01*
X119188358Y-97621086D01*
X119258125Y-97617289D01*
X119318869Y-97651813D01*
X119335246Y-97672892D01*
X119368217Y-97726346D01*
X119368220Y-97726350D01*
X119490210Y-97848340D01*
X119637044Y-97938908D01*
X119800807Y-97993174D01*
X119901883Y-98003500D01*
X120500236Y-98003499D01*
X120500244Y-98003498D01*
X120500247Y-98003498D01*
X120568606Y-97996515D01*
X120601313Y-97993174D01*
X120765076Y-97938908D01*
X120911910Y-97848340D01*
X120977431Y-97782819D01*
X121038754Y-97749334D01*
X121065112Y-97746500D01*
X121844804Y-97746500D01*
X121909900Y-97764961D01*
X122016659Y-97830810D01*
X122016660Y-97830810D01*
X122016666Y-97830814D01*
X122183203Y-97885999D01*
X122285991Y-97896500D01*
X123586008Y-97896499D01*
X123688797Y-97885999D01*
X123855334Y-97830814D01*
X124004656Y-97738712D01*
X124128712Y-97614656D01*
X124220814Y-97465334D01*
X124275999Y-97298797D01*
X124286500Y-97196009D01*
X124286499Y-96295992D01*
X124285148Y-96282770D01*
X124275999Y-96193203D01*
X124275998Y-96193200D01*
X124252813Y-96123233D01*
X124237815Y-96077974D01*
X124235414Y-96008147D01*
X124271146Y-95948105D01*
X124333666Y-95916912D01*
X124403125Y-95924472D01*
X124407011Y-95926166D01*
X124501541Y-95969338D01*
X124568580Y-95989023D01*
X124568584Y-95989024D01*
X124711000Y-96009500D01*
X124884500Y-96009500D01*
X124951539Y-96029185D01*
X124997294Y-96081989D01*
X125008500Y-96133500D01*
X125008500Y-96461668D01*
X125008501Y-96461687D01*
X125018825Y-96562752D01*
X125039259Y-96624415D01*
X125073090Y-96726511D01*
X125073092Y-96726515D01*
X125073093Y-96726518D01*
X125086192Y-96747755D01*
X125163660Y-96873350D01*
X125285650Y-96995340D01*
X125324597Y-97019362D01*
X125371320Y-97071307D01*
X125383500Y-97124900D01*
X125383500Y-98074098D01*
X125363815Y-98141137D01*
X125324598Y-98179636D01*
X125285650Y-98203659D01*
X125163661Y-98325648D01*
X125073093Y-98472481D01*
X125073091Y-98472486D01*
X125057849Y-98518484D01*
X125018826Y-98636247D01*
X125018826Y-98636248D01*
X125018825Y-98636248D01*
X125008500Y-98737315D01*
X125008500Y-99335669D01*
X125008501Y-99335687D01*
X125018825Y-99436752D01*
X125040615Y-99502507D01*
X125071620Y-99596075D01*
X125073092Y-99600515D01*
X125073093Y-99600518D01*
X125095596Y-99637001D01*
X125163660Y-99747350D01*
X125285650Y-99869340D01*
X125339108Y-99902313D01*
X125385831Y-99954260D01*
X125397054Y-100023223D01*
X125369210Y-100087305D01*
X125358025Y-100098098D01*
X125358182Y-100098255D01*
X125238776Y-100217660D01*
X125238770Y-100217668D01*
X125156780Y-100356307D01*
X125156779Y-100356310D01*
X125111844Y-100510975D01*
X125111843Y-100510981D01*
X125109000Y-100547109D01*
X125109000Y-100661500D01*
X126867460Y-100661500D01*
X126868252Y-100661067D01*
X126884987Y-100646567D01*
X126898317Y-100644650D01*
X126910139Y-100638195D01*
X126932227Y-100639774D01*
X126954145Y-100636623D01*
X126966395Y-100642217D01*
X126979830Y-100643178D01*
X127007655Y-100661060D01*
X127008618Y-100661500D01*
X127765000Y-100661500D01*
X127832039Y-100681185D01*
X127877794Y-100733989D01*
X127889000Y-100785500D01*
X127889000Y-100861500D01*
X127965000Y-100861500D01*
X128032039Y-100881185D01*
X128077794Y-100933989D01*
X128089000Y-100985500D01*
X128089000Y-101748999D01*
X128190872Y-101748999D01*
X128190893Y-101748998D01*
X128227021Y-101746155D01*
X128381689Y-101701220D01*
X128381692Y-101701219D01*
X128520331Y-101619229D01*
X128520335Y-101619226D01*
X128629159Y-101510402D01*
X128690482Y-101476917D01*
X128760174Y-101481901D01*
X128816108Y-101523772D01*
X128822379Y-101532985D01*
X128846660Y-101572350D01*
X128968650Y-101694340D01*
X129115484Y-101784908D01*
X129279247Y-101839174D01*
X129380323Y-101849500D01*
X129953676Y-101849499D01*
X129953684Y-101849498D01*
X129953687Y-101849498D01*
X130009030Y-101843844D01*
X130054753Y-101839174D01*
X130218516Y-101784908D01*
X130365350Y-101694340D01*
X130487340Y-101572350D01*
X130513961Y-101529189D01*
X130565909Y-101482465D01*
X130634871Y-101471242D01*
X130698953Y-101499085D01*
X130725038Y-101529189D01*
X130751660Y-101572350D01*
X130873650Y-101694340D01*
X131020484Y-101784908D01*
X131184247Y-101839174D01*
X131285323Y-101849500D01*
X131858676Y-101849499D01*
X131858684Y-101849498D01*
X131858687Y-101849498D01*
X131914030Y-101843844D01*
X131959753Y-101839174D01*
X132123516Y-101784908D01*
X132270350Y-101694340D01*
X132392340Y-101572350D01*
X132424072Y-101520904D01*
X132431658Y-101514080D01*
X132435898Y-101504797D01*
X132457198Y-101491108D01*
X132476020Y-101474179D01*
X132487655Y-101471534D01*
X132494676Y-101467023D01*
X132529611Y-101462000D01*
X132646389Y-101462000D01*
X132713428Y-101481685D01*
X132751928Y-101520904D01*
X132759379Y-101532985D01*
X132783660Y-101572350D01*
X132905650Y-101694340D01*
X133052484Y-101784908D01*
X133216247Y-101839174D01*
X133317323Y-101849500D01*
X133890676Y-101849499D01*
X133890684Y-101849498D01*
X133890687Y-101849498D01*
X133946030Y-101843844D01*
X133991753Y-101839174D01*
X134155516Y-101784908D01*
X134302350Y-101694340D01*
X134424340Y-101572350D01*
X134514908Y-101425516D01*
X134569174Y-101261753D01*
X134579500Y-101160677D01*
X134579499Y-100562324D01*
X134569174Y-100461247D01*
X134514908Y-100297484D01*
X134424340Y-100150650D01*
X134310371Y-100036681D01*
X134308122Y-100032562D01*
X134304177Y-100030016D01*
X134291531Y-100002179D01*
X134276886Y-99975358D01*
X134277220Y-99970676D01*
X134275279Y-99966402D01*
X134279689Y-99936151D01*
X134281870Y-99905666D01*
X134284870Y-99900620D01*
X134285360Y-99897264D01*
X134295726Y-99882365D01*
X134304501Y-99867611D01*
X134307325Y-99864364D01*
X134424340Y-99747350D01*
X134461398Y-99687269D01*
X134468060Y-99679612D01*
X134489285Y-99666031D01*
X134508021Y-99649179D01*
X134519809Y-99646500D01*
X134526913Y-99641955D01*
X134539698Y-99641980D01*
X134561611Y-99637001D01*
X134634054Y-99637001D01*
X134634057Y-99637001D01*
X134767106Y-99601350D01*
X142368000Y-99601350D01*
X142368000Y-101417000D01*
X143818000Y-101417000D01*
X144218000Y-101417000D01*
X145668000Y-101417000D01*
X145668000Y-99601365D01*
X145667999Y-99601350D01*
X145665100Y-99564510D01*
X145665099Y-99564504D01*
X145619283Y-99406806D01*
X145619282Y-99406803D01*
X145535685Y-99265447D01*
X145535678Y-99265438D01*
X145419561Y-99149321D01*
X145419552Y-99149314D01*
X145278196Y-99065717D01*
X145278193Y-99065716D01*
X145120495Y-99019900D01*
X145120489Y-99019899D01*
X145083649Y-99017000D01*
X144218000Y-99017000D01*
X144218000Y-101417000D01*
X143818000Y-101417000D01*
X143818000Y-99017000D01*
X142952350Y-99017000D01*
X142915510Y-99019899D01*
X142915504Y-99019900D01*
X142757806Y-99065716D01*
X142757803Y-99065717D01*
X142616447Y-99149314D01*
X142616438Y-99149321D01*
X142500321Y-99265438D01*
X142500314Y-99265447D01*
X142416717Y-99406803D01*
X142416716Y-99406806D01*
X142370900Y-99564504D01*
X142370899Y-99564510D01*
X142368000Y-99601350D01*
X134767106Y-99601350D01*
X134786785Y-99596077D01*
X134871655Y-99547077D01*
X134923716Y-99517020D01*
X135035520Y-99405216D01*
X135035520Y-99405214D01*
X135045724Y-99395011D01*
X135045728Y-99395006D01*
X136260442Y-98180291D01*
X136321763Y-98146808D01*
X136376429Y-98147652D01*
X136376476Y-98147414D01*
X136377798Y-98147673D01*
X136378208Y-98147680D01*
X136379574Y-98148021D01*
X136379580Y-98148023D01*
X136379584Y-98148024D01*
X136522000Y-98168500D01*
X136522003Y-98168500D01*
X136847166Y-98168500D01*
X136847234Y-98168500D01*
X136848662Y-98168498D01*
X136848878Y-98168497D01*
X136849028Y-98168497D01*
X136849032Y-98168497D01*
X136991389Y-98147614D01*
X137058372Y-98127738D01*
X137189076Y-98067596D01*
X137297545Y-97973065D01*
X137343149Y-97920131D01*
X137343150Y-97920129D01*
X137343173Y-97920092D01*
X137345784Y-97916172D01*
X137346637Y-97914668D01*
X137348078Y-97912412D01*
X137400752Y-97866516D01*
X137469883Y-97856382D01*
X137533518Y-97885232D01*
X137556887Y-97912124D01*
X137562939Y-97921541D01*
X137562945Y-97921548D01*
X137608689Y-97974340D01*
X137608692Y-97974343D01*
X137608696Y-97974347D01*
X137717430Y-98068567D01*
X137717433Y-98068568D01*
X137717434Y-98068569D01*
X137846986Y-98127735D01*
X137848307Y-98128338D01*
X137915346Y-98148023D01*
X137915350Y-98148024D01*
X138057766Y-98168500D01*
X138057769Y-98168500D01*
X145547782Y-98168500D01*
X145547786Y-98168500D01*
X145649616Y-98158137D01*
X145698551Y-98148073D01*
X145796215Y-98117406D01*
X145918990Y-98042388D01*
X145972820Y-97997844D01*
X145972823Y-97997840D01*
X145972826Y-97997838D01*
X146058854Y-97902998D01*
X146069484Y-97891279D01*
X146132213Y-97761793D01*
X146153327Y-97695496D01*
X146153417Y-97695218D01*
X146166435Y-97617289D01*
X146177124Y-97553302D01*
X146195895Y-96727346D01*
X146195875Y-96703557D01*
X146195591Y-96691893D01*
X146194453Y-96668134D01*
X146184957Y-96624483D01*
X146163871Y-96527550D01*
X146163870Y-96527548D01*
X146163869Y-96527542D01*
X146140196Y-96464073D01*
X146139663Y-96462563D01*
X146139447Y-96462066D01*
X146070495Y-96335795D01*
X146070493Y-96335792D01*
X145968761Y-96234062D01*
X145968756Y-96234057D01*
X145968750Y-96234052D01*
X145968746Y-96234049D01*
X145912826Y-96192188D01*
X145833073Y-96148641D01*
X145783667Y-96099236D01*
X145768499Y-96039808D01*
X145768499Y-95197649D01*
X149326000Y-95197649D01*
X149328899Y-95234489D01*
X149328900Y-95234495D01*
X149374716Y-95392193D01*
X149374717Y-95392196D01*
X149458314Y-95533552D01*
X149458321Y-95533561D01*
X149574438Y-95649678D01*
X149574447Y-95649685D01*
X149715803Y-95733282D01*
X149715806Y-95733283D01*
X149873504Y-95779099D01*
X149873510Y-95779100D01*
X149910350Y-95781999D01*
X149910366Y-95782000D01*
X150676000Y-95782000D01*
X151076000Y-95782000D01*
X151841634Y-95782000D01*
X151841649Y-95781999D01*
X151878489Y-95779100D01*
X151878495Y-95779099D01*
X152036193Y-95733283D01*
X152036196Y-95733282D01*
X152177552Y-95649685D01*
X152177561Y-95649678D01*
X152293678Y-95533561D01*
X152293685Y-95533552D01*
X152377282Y-95392196D01*
X152377283Y-95392193D01*
X152423099Y-95234495D01*
X152423100Y-95234489D01*
X152425999Y-95197649D01*
X152426000Y-95197634D01*
X152426000Y-93832000D01*
X151076000Y-93832000D01*
X151076000Y-95782000D01*
X150676000Y-95782000D01*
X150676000Y-93832000D01*
X149326000Y-93832000D01*
X149326000Y-95197649D01*
X145768499Y-95197649D01*
X145768499Y-92698017D01*
X145788184Y-92630978D01*
X145840988Y-92585223D01*
X145858760Y-92578696D01*
X145992148Y-92541000D01*
X148736729Y-91321186D01*
X148787090Y-91310500D01*
X149634903Y-91310500D01*
X149701942Y-91330185D01*
X149747697Y-91382989D01*
X149757641Y-91452147D01*
X149728616Y-91515703D01*
X149698024Y-91541232D01*
X149574447Y-91614314D01*
X149574438Y-91614321D01*
X149458321Y-91730438D01*
X149458314Y-91730447D01*
X149374717Y-91871803D01*
X149374716Y-91871806D01*
X149328900Y-92029504D01*
X149328899Y-92029510D01*
X149326000Y-92066350D01*
X149326000Y-93432000D01*
X152426000Y-93432000D01*
X152426000Y-92066365D01*
X152425999Y-92066350D01*
X152423100Y-92029510D01*
X152423099Y-92029507D01*
X152416711Y-92007516D01*
X152416711Y-92007514D01*
X152407366Y-91975350D01*
X157304000Y-91975350D01*
X157304000Y-92891000D01*
X158383288Y-92891000D01*
X158378979Y-92901402D01*
X158354000Y-93026981D01*
X158354000Y-93155019D01*
X158378979Y-93280598D01*
X158383288Y-93291000D01*
X157304000Y-93291000D01*
X157304000Y-94206649D01*
X157306899Y-94243489D01*
X157306900Y-94243495D01*
X157352716Y-94401193D01*
X157352717Y-94401196D01*
X157436314Y-94542552D01*
X157436321Y-94542561D01*
X157552438Y-94658678D01*
X157552447Y-94658685D01*
X157693803Y-94742282D01*
X157693806Y-94742283D01*
X157851504Y-94788099D01*
X157851510Y-94788100D01*
X157888350Y-94790999D01*
X157888366Y-94791000D01*
X158804000Y-94791000D01*
X158804000Y-93711712D01*
X158814402Y-93716021D01*
X158939981Y-93741000D01*
X159068019Y-93741000D01*
X159193598Y-93716021D01*
X159204000Y-93711712D01*
X159204000Y-94791000D01*
X160119634Y-94791000D01*
X160119649Y-94790999D01*
X160156489Y-94788100D01*
X160156495Y-94788099D01*
X160314193Y-94742283D01*
X160314196Y-94742282D01*
X160455552Y-94658685D01*
X160455561Y-94658678D01*
X160571678Y-94542561D01*
X160571685Y-94542552D01*
X160655282Y-94401196D01*
X160655283Y-94401193D01*
X160701099Y-94243495D01*
X160701100Y-94243489D01*
X160703999Y-94206649D01*
X160704000Y-94206634D01*
X160704000Y-93291000D01*
X159624712Y-93291000D01*
X159629021Y-93280598D01*
X159654000Y-93155019D01*
X159654000Y-93026981D01*
X159629021Y-92901402D01*
X159624712Y-92891000D01*
X160704000Y-92891000D01*
X160704000Y-91975365D01*
X160703999Y-91975350D01*
X160701100Y-91938510D01*
X160701099Y-91938504D01*
X160655283Y-91780806D01*
X160655282Y-91780803D01*
X160571685Y-91639447D01*
X160571678Y-91639438D01*
X160455561Y-91523321D01*
X160455552Y-91523314D01*
X160314196Y-91439717D01*
X160314193Y-91439716D01*
X160156495Y-91393900D01*
X160156489Y-91393899D01*
X160119649Y-91391000D01*
X159204000Y-91391000D01*
X159204000Y-92470287D01*
X159193598Y-92465979D01*
X159068019Y-92441000D01*
X158939981Y-92441000D01*
X158814402Y-92465979D01*
X158804000Y-92470287D01*
X158804000Y-91391000D01*
X157888350Y-91391000D01*
X157851510Y-91393899D01*
X157851504Y-91393900D01*
X157693806Y-91439716D01*
X157693803Y-91439717D01*
X157552447Y-91523314D01*
X157552438Y-91523321D01*
X157436321Y-91639438D01*
X157436314Y-91639447D01*
X157352717Y-91780803D01*
X157352716Y-91780806D01*
X157306900Y-91938504D01*
X157306899Y-91938510D01*
X157304000Y-91975350D01*
X152407366Y-91975350D01*
X152377283Y-91871806D01*
X152377282Y-91871803D01*
X152293685Y-91730447D01*
X152293678Y-91730438D01*
X152177561Y-91614321D01*
X152177552Y-91614314D01*
X152053976Y-91541232D01*
X152006293Y-91490163D01*
X151993789Y-91421421D01*
X152020434Y-91356832D01*
X152077770Y-91316902D01*
X152117097Y-91310500D01*
X153440361Y-91310500D01*
X153442232Y-91310447D01*
X153468441Y-91309719D01*
X153482191Y-91308954D01*
X153482202Y-91308953D01*
X153482221Y-91308952D01*
X153510155Y-91306618D01*
X153510157Y-91306617D01*
X153510164Y-91306617D01*
X153579797Y-91288546D01*
X153649428Y-91270476D01*
X153649428Y-91270475D01*
X153649431Y-91270475D01*
X153713874Y-91243478D01*
X153837318Y-91169564D01*
X155349075Y-89941260D01*
X155413517Y-89914265D01*
X155427267Y-89913500D01*
X157837654Y-89913500D01*
X157909594Y-89908355D01*
X157917204Y-89906119D01*
X157943308Y-89901410D01*
X157953273Y-89900697D01*
X157972048Y-89899355D01*
X158106857Y-89849073D01*
X158168180Y-89815588D01*
X158283361Y-89729364D01*
X158283365Y-89729359D01*
X158285326Y-89727892D01*
X158350790Y-89703475D01*
X158407090Y-89712598D01*
X158424007Y-89719606D01*
X158651986Y-89780693D01*
X158885989Y-89811500D01*
X158885996Y-89811500D01*
X159122004Y-89811500D01*
X159122011Y-89811500D01*
X159356014Y-89780693D01*
X159583993Y-89719606D01*
X159600157Y-89712910D01*
X159669622Y-89705440D01*
X159732102Y-89736713D01*
X159733284Y-89737835D01*
X159733286Y-89737834D01*
X159739919Y-89744140D01*
X159739922Y-89744142D01*
X159739928Y-89744148D01*
X159857957Y-89826432D01*
X159920376Y-89857826D01*
X160056807Y-89903524D01*
X160110087Y-89905528D01*
X160123059Y-89906701D01*
X160170346Y-89913500D01*
X160170348Y-89913500D01*
X161419990Y-89913500D01*
X161420000Y-89913500D01*
X161527456Y-89901947D01*
X161578967Y-89890741D01*
X161635746Y-89871843D01*
X161681497Y-89856616D01*
X161681501Y-89856613D01*
X161681504Y-89856613D01*
X161802543Y-89778825D01*
X161855347Y-89733070D01*
X161949567Y-89624336D01*
X162009338Y-89493459D01*
X162029023Y-89426420D01*
X162029024Y-89426416D01*
X162049500Y-89284000D01*
X162049500Y-85341000D01*
X162037947Y-85233544D01*
X162026741Y-85182033D01*
X162026637Y-85181722D01*
X161992616Y-85079502D01*
X161992613Y-85079496D01*
X161914828Y-84958462D01*
X161914825Y-84958457D01*
X161905758Y-84947993D01*
X161869076Y-84905659D01*
X161869072Y-84905656D01*
X161869070Y-84905653D01*
X161760336Y-84811433D01*
X161760333Y-84811431D01*
X161760331Y-84811430D01*
X161629465Y-84751664D01*
X161629460Y-84751662D01*
X161629459Y-84751662D01*
X161576880Y-84736223D01*
X161562417Y-84731976D01*
X161514944Y-84725150D01*
X161420000Y-84711500D01*
X161419998Y-84711500D01*
X153790802Y-84711500D01*
X153723763Y-84691815D01*
X153678008Y-84639011D01*
X153668064Y-84569853D01*
X153671725Y-84552905D01*
X153712656Y-84412016D01*
X153715499Y-84375890D01*
X153715500Y-84375875D01*
X153715500Y-84274000D01*
X152902000Y-84274000D01*
X152893314Y-84271449D01*
X152884353Y-84272738D01*
X152860312Y-84261759D01*
X152834961Y-84254315D01*
X152829033Y-84247474D01*
X152820797Y-84243713D01*
X152806507Y-84221478D01*
X152789206Y-84201511D01*
X152786918Y-84190996D01*
X152783023Y-84184935D01*
X152778000Y-84150000D01*
X152778000Y-83998000D01*
X152797685Y-83930961D01*
X152850489Y-83885206D01*
X152902000Y-83874000D01*
X153715499Y-83874000D01*
X153715499Y-83772128D01*
X153715498Y-83772106D01*
X153712655Y-83735978D01*
X153667720Y-83581310D01*
X153667719Y-83581307D01*
X153585729Y-83442668D01*
X153585723Y-83442660D01*
X153525352Y-83382289D01*
X153491867Y-83320966D01*
X153496851Y-83251274D01*
X153538723Y-83195341D01*
X153547920Y-83189079D01*
X153665850Y-83116340D01*
X153787840Y-82994350D01*
X153878408Y-82847516D01*
X153932674Y-82683753D01*
X153943000Y-82582677D01*
X153942999Y-82009324D01*
X153932674Y-81908247D01*
X153878408Y-81744484D01*
X153787840Y-81597650D01*
X153665850Y-81475660D01*
X153665849Y-81475659D01*
X153614402Y-81443926D01*
X153567678Y-81391978D01*
X153555500Y-81338388D01*
X153555500Y-80576441D01*
X153555499Y-80576438D01*
X153555207Y-80575348D01*
X153555197Y-80575313D01*
X153544534Y-80535519D01*
X153541057Y-80522543D01*
X153514577Y-80423716D01*
X153501753Y-80401504D01*
X153435524Y-80286790D01*
X153435521Y-80286786D01*
X153435520Y-80286784D01*
X153323716Y-80174980D01*
X153323715Y-80174979D01*
X153319385Y-80170649D01*
X153319374Y-80170639D01*
X152992845Y-79844110D01*
X152959360Y-79782787D01*
X152964344Y-79713095D01*
X153006216Y-79657162D01*
X153071680Y-79632745D01*
X153090256Y-79632811D01*
X153105361Y-79633999D01*
X153433499Y-79633999D01*
X153833500Y-79633999D01*
X154161628Y-79633999D01*
X154161653Y-79633998D01*
X154198486Y-79631100D01*
X154356197Y-79585281D01*
X154497559Y-79501678D01*
X154613678Y-79385559D01*
X154697283Y-79244194D01*
X154697283Y-79244193D01*
X154743099Y-79086494D01*
X154743100Y-79086488D01*
X154745999Y-79049648D01*
X154746000Y-79049633D01*
X154746000Y-78559000D01*
X153833500Y-78559000D01*
X153833500Y-79633999D01*
X153433499Y-79633999D01*
X153433500Y-79633998D01*
X153433500Y-78559000D01*
X152521001Y-78559000D01*
X152521001Y-79049628D01*
X152521002Y-79049663D01*
X152522189Y-79064753D01*
X152507821Y-79133129D01*
X152458767Y-79182883D01*
X152390600Y-79198218D01*
X152324965Y-79174265D01*
X152310890Y-79162155D01*
X151907819Y-78759084D01*
X151874334Y-78697761D01*
X151871500Y-78671403D01*
X151871500Y-77683997D01*
X151871498Y-77683977D01*
X151870942Y-77678524D01*
X151869903Y-77668351D01*
X152521000Y-77668351D01*
X152521000Y-78159000D01*
X153433500Y-78159000D01*
X153833500Y-78159000D01*
X154745999Y-78159000D01*
X154745999Y-77668371D01*
X154745998Y-77668346D01*
X154743100Y-77631513D01*
X154697281Y-77473802D01*
X154613678Y-77332440D01*
X154497559Y-77216321D01*
X154356193Y-77132716D01*
X154198494Y-77086900D01*
X154198488Y-77086899D01*
X154161648Y-77084000D01*
X153833500Y-77084000D01*
X153833500Y-78159000D01*
X153433500Y-78159000D01*
X153433500Y-77084000D01*
X153105370Y-77084000D01*
X153105348Y-77084001D01*
X153068513Y-77086899D01*
X152910802Y-77132718D01*
X152769440Y-77216321D01*
X152653321Y-77332440D01*
X152569716Y-77473805D01*
X152569716Y-77473806D01*
X152523900Y-77631505D01*
X152523899Y-77631511D01*
X152521000Y-77668351D01*
X151869903Y-77668351D01*
X151860999Y-77581204D01*
X151860999Y-77581203D01*
X151805814Y-77414666D01*
X151713711Y-77265345D01*
X151589655Y-77141289D01*
X151589651Y-77141286D01*
X151440337Y-77049187D01*
X151440335Y-77049186D01*
X151357065Y-77021593D01*
X151273797Y-76994001D01*
X151273795Y-76994000D01*
X151171015Y-76983500D01*
X151171008Y-76983500D01*
X150145992Y-76983500D01*
X150145984Y-76983500D01*
X150043204Y-76994000D01*
X150043203Y-76994001D01*
X149876664Y-77049186D01*
X149876662Y-77049187D01*
X149727348Y-77141286D01*
X149727344Y-77141289D01*
X149603289Y-77265344D01*
X149603286Y-77265348D01*
X149511187Y-77414662D01*
X149511186Y-77414664D01*
X149456001Y-77581203D01*
X149456000Y-77581204D01*
X149445500Y-77683984D01*
X149445500Y-79034015D01*
X149456000Y-79136795D01*
X149456001Y-79136797D01*
X149476354Y-79198218D01*
X149511186Y-79303335D01*
X149511187Y-79303337D01*
X149603286Y-79452651D01*
X149603289Y-79452655D01*
X149727344Y-79576710D01*
X149727348Y-79576713D01*
X149876662Y-79668812D01*
X149876664Y-79668813D01*
X149876666Y-79668814D01*
X150043203Y-79723999D01*
X150145992Y-79734500D01*
X150145997Y-79734500D01*
X151133403Y-79734500D01*
X151200442Y-79754185D01*
X151221084Y-79770819D01*
X152318181Y-80867916D01*
X152351666Y-80929239D01*
X152354500Y-80955597D01*
X152354500Y-81338388D01*
X152334815Y-81405427D01*
X152311889Y-81431939D01*
X152304231Y-81438601D01*
X152244150Y-81475660D01*
X152127135Y-81592674D01*
X152123889Y-81595499D01*
X152095892Y-81608351D01*
X152068858Y-81623114D01*
X152064427Y-81622797D01*
X152060392Y-81624650D01*
X152029895Y-81620327D01*
X151999166Y-81618130D01*
X151994858Y-81615361D01*
X151991213Y-81614845D01*
X151982925Y-81607692D01*
X151954819Y-81589629D01*
X151840851Y-81475661D01*
X151840850Y-81475660D01*
X151694016Y-81385092D01*
X151530253Y-81330826D01*
X151530251Y-81330825D01*
X151429178Y-81320500D01*
X150830830Y-81320500D01*
X150830812Y-81320501D01*
X150729747Y-81330825D01*
X150565984Y-81385092D01*
X150565981Y-81385093D01*
X150419148Y-81475661D01*
X150297161Y-81597648D01*
X150206593Y-81744481D01*
X150206592Y-81744484D01*
X150152326Y-81908247D01*
X150152326Y-81908248D01*
X150152325Y-81908248D01*
X150142000Y-82009315D01*
X150142000Y-82582669D01*
X150142001Y-82582687D01*
X150152325Y-82683752D01*
X150206592Y-82847515D01*
X150206593Y-82847518D01*
X150297161Y-82994351D01*
X150344741Y-83041931D01*
X150378226Y-83103254D01*
X150373242Y-83172946D01*
X150331370Y-83228879D01*
X150322159Y-83235149D01*
X150292153Y-83253657D01*
X150292149Y-83253660D01*
X150170161Y-83375648D01*
X150079593Y-83522481D01*
X150079592Y-83522484D01*
X150025326Y-83686247D01*
X150025326Y-83686248D01*
X150025325Y-83686248D01*
X150015000Y-83787315D01*
X150015000Y-84360669D01*
X150015001Y-84360687D01*
X150025325Y-84461752D01*
X150025326Y-84461755D01*
X150054070Y-84548496D01*
X150056472Y-84618324D01*
X150020740Y-84678366D01*
X149958220Y-84709559D01*
X149936364Y-84711500D01*
X148081249Y-84711500D01*
X147958660Y-84726589D01*
X147958654Y-84726590D01*
X147900305Y-84741176D01*
X147785016Y-84785557D01*
X146757574Y-85333526D01*
X146700494Y-85348107D01*
X134610543Y-85472265D01*
X134610532Y-85472266D01*
X134505729Y-85484351D01*
X134505726Y-85484351D01*
X134505723Y-85484352D01*
X134455502Y-85495548D01*
X134455486Y-85495552D01*
X134355494Y-85529119D01*
X134234462Y-85606902D01*
X134234451Y-85606911D01*
X134181659Y-85652655D01*
X134087433Y-85761396D01*
X134087430Y-85761400D01*
X134027664Y-85892266D01*
X134007976Y-85959314D01*
X133987500Y-86101733D01*
X133987500Y-91234030D01*
X134007392Y-91374441D01*
X134007394Y-91374449D01*
X134026528Y-91440623D01*
X134084646Y-91569989D01*
X134084649Y-91569995D01*
X134177974Y-91679505D01*
X134202326Y-91700959D01*
X134239616Y-91760046D01*
X134239041Y-91829913D01*
X134200784Y-91888378D01*
X134136991Y-91916879D01*
X134120355Y-91918000D01*
X133849350Y-91918000D01*
X133812510Y-91920899D01*
X133812504Y-91920900D01*
X133654806Y-91966716D01*
X133654803Y-91966717D01*
X133513447Y-92050314D01*
X133513438Y-92050321D01*
X133397321Y-92166438D01*
X133397314Y-92166447D01*
X133313717Y-92307803D01*
X133313716Y-92307806D01*
X133267900Y-92465504D01*
X133267899Y-92465510D01*
X133265000Y-92502350D01*
X133265000Y-93018000D01*
X135390000Y-93018000D01*
X135390000Y-92502365D01*
X135389999Y-92502344D01*
X135389292Y-92493366D01*
X135403652Y-92424988D01*
X135452700Y-92375228D01*
X135520864Y-92359885D01*
X135565345Y-92371262D01*
X136166049Y-92651591D01*
X136184446Y-92659734D01*
X136193545Y-92663547D01*
X136211134Y-92670509D01*
X136266224Y-92713482D01*
X136289335Y-92779419D01*
X136289500Y-92785806D01*
X136289500Y-93785639D01*
X136269815Y-93852678D01*
X136232541Y-93889954D01*
X136139456Y-93949777D01*
X136139451Y-93949781D01*
X136086659Y-93995525D01*
X135992433Y-94104266D01*
X135992430Y-94104270D01*
X135932664Y-94235136D01*
X135912976Y-94302184D01*
X135892500Y-94444603D01*
X135892500Y-94912417D01*
X135892820Y-94930399D01*
X135893139Y-94939315D01*
X135894103Y-94957301D01*
X135894105Y-94957316D01*
X135922412Y-95087438D01*
X135924688Y-95097899D01*
X135939847Y-95138543D01*
X135949105Y-95163364D01*
X135949107Y-95163368D01*
X135998021Y-95252946D01*
X136018056Y-95289638D01*
X136119793Y-95391378D01*
X136175726Y-95433250D01*
X136175734Y-95433256D01*
X136225911Y-95460654D01*
X136226782Y-95461149D01*
X136250354Y-95485543D01*
X136274331Y-95509519D01*
X136274621Y-95510656D01*
X136275334Y-95511394D01*
X136277217Y-95520828D01*
X136289500Y-95568948D01*
X136289500Y-96401401D01*
X136269815Y-96468440D01*
X136253181Y-96489082D01*
X135526187Y-97216075D01*
X135464864Y-97249560D01*
X135395172Y-97244576D01*
X135339239Y-97202704D01*
X135314822Y-97137240D01*
X135329674Y-97068967D01*
X135331776Y-97065269D01*
X135341284Y-97049192D01*
X135387099Y-96891495D01*
X135387100Y-96891489D01*
X135389999Y-96854649D01*
X135390000Y-96854634D01*
X135390000Y-96339000D01*
X134527500Y-96339000D01*
X134527500Y-97439000D01*
X134805634Y-97439000D01*
X134805649Y-97438999D01*
X134842489Y-97436100D01*
X134842495Y-97436099D01*
X135000193Y-97390283D01*
X135000194Y-97390283D01*
X135016272Y-97380775D01*
X135083996Y-97363591D01*
X135150259Y-97385750D01*
X135194023Y-97440215D01*
X135201394Y-97509695D01*
X135170030Y-97572130D01*
X135167076Y-97575187D01*
X134508157Y-98234105D01*
X134446834Y-98267590D01*
X134377142Y-98262606D01*
X134332795Y-98234105D01*
X134302351Y-98203661D01*
X134302350Y-98203660D01*
X134179178Y-98127687D01*
X134155518Y-98113093D01*
X134155513Y-98113091D01*
X134098214Y-98094104D01*
X133991753Y-98058826D01*
X133991751Y-98058825D01*
X133890678Y-98048500D01*
X133317330Y-98048500D01*
X133317312Y-98048501D01*
X133216247Y-98058825D01*
X133052484Y-98113092D01*
X133052481Y-98113093D01*
X132905648Y-98203661D01*
X132783661Y-98325648D01*
X132783660Y-98325650D01*
X132721298Y-98426756D01*
X132693539Y-98471760D01*
X132641591Y-98518484D01*
X132572628Y-98529707D01*
X132508546Y-98501863D01*
X132482461Y-98471760D01*
X132460404Y-98436000D01*
X132392340Y-98325650D01*
X132313572Y-98246882D01*
X132280087Y-98185559D01*
X132285071Y-98115867D01*
X132295715Y-98094104D01*
X132311467Y-98068567D01*
X132355908Y-97996516D01*
X132410174Y-97832753D01*
X132419463Y-97741819D01*
X132426501Y-97715557D01*
X132426501Y-97557443D01*
X132420499Y-97535046D01*
X132420499Y-97033324D01*
X132410174Y-96932247D01*
X132384460Y-96854649D01*
X133265000Y-96854649D01*
X133267899Y-96891489D01*
X133267900Y-96891495D01*
X133313716Y-97049193D01*
X133313717Y-97049196D01*
X133397314Y-97190552D01*
X133397321Y-97190561D01*
X133513438Y-97306678D01*
X133513447Y-97306685D01*
X133654803Y-97390282D01*
X133654806Y-97390283D01*
X133812504Y-97436099D01*
X133812510Y-97436100D01*
X133849350Y-97438999D01*
X133849366Y-97439000D01*
X134127500Y-97439000D01*
X134127500Y-96339000D01*
X133265000Y-96339000D01*
X133265000Y-96854649D01*
X132384460Y-96854649D01*
X132355908Y-96768484D01*
X132265340Y-96621650D01*
X132251371Y-96607681D01*
X132217886Y-96546358D01*
X132222870Y-96476666D01*
X132251371Y-96432319D01*
X132265340Y-96418350D01*
X132355908Y-96271516D01*
X132410174Y-96107753D01*
X132419464Y-96016814D01*
X132426500Y-95990557D01*
X132426500Y-95832443D01*
X132420499Y-95810049D01*
X132420499Y-95423350D01*
X133265000Y-95423350D01*
X133265000Y-95939000D01*
X134127500Y-95939000D01*
X134527500Y-95939000D01*
X135390000Y-95939000D01*
X135390000Y-95423365D01*
X135389999Y-95423350D01*
X135387100Y-95386510D01*
X135387099Y-95386504D01*
X135341283Y-95228806D01*
X135341282Y-95228803D01*
X135257685Y-95087447D01*
X135257678Y-95087438D01*
X135141561Y-94971321D01*
X135141552Y-94971314D01*
X135000196Y-94887717D01*
X135000193Y-94887716D01*
X134842495Y-94841900D01*
X134842489Y-94841899D01*
X134805649Y-94839000D01*
X134527500Y-94839000D01*
X134527500Y-95939000D01*
X134127500Y-95939000D01*
X134127500Y-94839000D01*
X133849350Y-94839000D01*
X133812510Y-94841899D01*
X133812504Y-94841900D01*
X133654806Y-94887716D01*
X133654803Y-94887717D01*
X133513447Y-94971314D01*
X133513438Y-94971321D01*
X133397321Y-95087438D01*
X133397314Y-95087447D01*
X133313717Y-95228803D01*
X133313716Y-95228806D01*
X133267900Y-95386504D01*
X133267899Y-95386510D01*
X133265000Y-95423350D01*
X132420499Y-95423350D01*
X132420499Y-95308324D01*
X132410174Y-95207247D01*
X132355908Y-95043484D01*
X132265340Y-94896650D01*
X132143350Y-94774660D01*
X131996516Y-94684092D01*
X131832753Y-94629826D01*
X131832751Y-94629825D01*
X131731678Y-94619500D01*
X131158330Y-94619500D01*
X131158312Y-94619501D01*
X131057247Y-94629825D01*
X130893484Y-94684092D01*
X130893481Y-94684093D01*
X130746648Y-94774661D01*
X130720336Y-94800974D01*
X130659013Y-94834459D01*
X130589321Y-94829475D01*
X130544974Y-94800974D01*
X130533000Y-94789000D01*
X129962000Y-94789000D01*
X129953314Y-94786449D01*
X129944353Y-94787738D01*
X129920312Y-94776759D01*
X129894961Y-94769315D01*
X129889033Y-94762474D01*
X129880797Y-94758713D01*
X129866507Y-94736478D01*
X129849206Y-94716511D01*
X129846918Y-94705996D01*
X129843023Y-94699935D01*
X129838000Y-94665000D01*
X129838000Y-94513000D01*
X129857685Y-94445961D01*
X129910489Y-94400206D01*
X129962000Y-94389000D01*
X130533000Y-94389000D01*
X130533000Y-93933649D01*
X133265000Y-93933649D01*
X133267899Y-93970489D01*
X133267900Y-93970495D01*
X133313716Y-94128193D01*
X133313717Y-94128196D01*
X133397314Y-94269552D01*
X133397321Y-94269561D01*
X133513438Y-94385678D01*
X133513447Y-94385685D01*
X133654803Y-94469282D01*
X133654806Y-94469283D01*
X133812504Y-94515099D01*
X133812510Y-94515100D01*
X133849350Y-94517999D01*
X133849366Y-94518000D01*
X134127500Y-94518000D01*
X134527500Y-94518000D01*
X134805634Y-94518000D01*
X134805649Y-94517999D01*
X134842489Y-94515100D01*
X134842495Y-94515099D01*
X135000193Y-94469283D01*
X135000196Y-94469282D01*
X135141552Y-94385685D01*
X135141561Y-94385678D01*
X135257678Y-94269561D01*
X135257685Y-94269552D01*
X135341282Y-94128196D01*
X135341283Y-94128193D01*
X135387099Y-93970495D01*
X135387100Y-93970489D01*
X135389999Y-93933649D01*
X135390000Y-93933634D01*
X135390000Y-93418000D01*
X134527500Y-93418000D01*
X134527500Y-94518000D01*
X134127500Y-94518000D01*
X134127500Y-93418000D01*
X133265000Y-93418000D01*
X133265000Y-93933649D01*
X130533000Y-93933649D01*
X130533000Y-93892434D01*
X130532999Y-93892417D01*
X130526934Y-93836015D01*
X130479325Y-93708371D01*
X130397686Y-93599313D01*
X130288628Y-93517674D01*
X130288210Y-93517446D01*
X130287872Y-93517108D01*
X130283377Y-93513744D01*
X130280592Y-93512926D01*
X130260499Y-93489737D01*
X130238803Y-93468042D01*
X130237831Y-93463575D01*
X130234838Y-93460121D01*
X130230472Y-93429749D01*
X130223950Y-93399769D01*
X130225365Y-93394222D01*
X130224897Y-93390962D01*
X130234841Y-93357098D01*
X130254011Y-93315124D01*
X130254011Y-93315123D01*
X130259338Y-93303459D01*
X130279023Y-93236420D01*
X130279024Y-93236416D01*
X130299500Y-93094000D01*
X130299500Y-91691000D01*
X130287947Y-91583544D01*
X130276741Y-91532033D01*
X130271306Y-91515703D01*
X130242616Y-91429502D01*
X130242613Y-91429496D01*
X130237423Y-91421421D01*
X130164825Y-91308457D01*
X130164820Y-91308451D01*
X130119076Y-91255659D01*
X130119072Y-91255656D01*
X130119070Y-91255653D01*
X130097331Y-91236816D01*
X130059558Y-91178038D01*
X130059460Y-91108509D01*
X130067155Y-91082021D01*
X130067156Y-91082018D01*
X130069999Y-91045890D01*
X130070000Y-91045875D01*
X130070000Y-90944000D01*
X129256500Y-90944000D01*
X129189461Y-90924315D01*
X129143706Y-90871511D01*
X129132500Y-90820000D01*
X129132500Y-90744000D01*
X129056500Y-90744000D01*
X128989461Y-90724315D01*
X128943706Y-90671511D01*
X128932500Y-90620000D01*
X128932500Y-90544000D01*
X129332500Y-90544000D01*
X130069999Y-90544000D01*
X130069999Y-90442128D01*
X130069998Y-90442106D01*
X130067155Y-90405978D01*
X130022220Y-90251310D01*
X130022219Y-90251307D01*
X129940229Y-90112668D01*
X129940223Y-90112660D01*
X129826339Y-89998776D01*
X129826331Y-89998770D01*
X129687692Y-89916780D01*
X129687689Y-89916779D01*
X129533024Y-89871844D01*
X129533018Y-89871843D01*
X129496890Y-89869000D01*
X129332500Y-89869000D01*
X129332500Y-90544000D01*
X128932500Y-90544000D01*
X128932500Y-89869000D01*
X128768129Y-89869000D01*
X128768105Y-89869001D01*
X128731980Y-89871844D01*
X128680093Y-89886918D01*
X128610224Y-89886717D01*
X128551554Y-89848774D01*
X128522712Y-89785136D01*
X128521500Y-89767841D01*
X128521500Y-89347378D01*
X128521499Y-89347355D01*
X128518770Y-89294922D01*
X128518769Y-89294915D01*
X128518768Y-89294888D01*
X128516095Y-89269282D01*
X128507932Y-89217381D01*
X128458488Y-89082263D01*
X128426247Y-89022337D01*
X128425587Y-89021065D01*
X128425387Y-89020740D01*
X128425384Y-89020733D01*
X128425382Y-89020729D01*
X128395764Y-88980649D01*
X129024000Y-88980649D01*
X129026899Y-89017489D01*
X129026900Y-89017495D01*
X129072716Y-89175193D01*
X129072717Y-89175196D01*
X129156314Y-89316552D01*
X129156321Y-89316561D01*
X129272438Y-89432678D01*
X129272447Y-89432685D01*
X129413803Y-89516282D01*
X129413806Y-89516283D01*
X129571504Y-89562099D01*
X129571510Y-89562100D01*
X129608350Y-89564999D01*
X129608366Y-89565000D01*
X129886500Y-89565000D01*
X130286500Y-89565000D01*
X130564634Y-89565000D01*
X130564649Y-89564999D01*
X130601489Y-89562100D01*
X130601495Y-89562099D01*
X130759193Y-89516283D01*
X130759196Y-89516282D01*
X130900552Y-89432685D01*
X130900561Y-89432678D01*
X131016678Y-89316561D01*
X131016685Y-89316552D01*
X131100282Y-89175196D01*
X131100283Y-89175193D01*
X131146099Y-89017495D01*
X131146100Y-89017489D01*
X131148999Y-88980649D01*
X131149000Y-88980634D01*
X131149000Y-88465000D01*
X130286500Y-88465000D01*
X130286500Y-89565000D01*
X129886500Y-89565000D01*
X129886500Y-88465000D01*
X129024000Y-88465000D01*
X129024000Y-88980649D01*
X128395764Y-88980649D01*
X128339873Y-88905015D01*
X128225228Y-88818079D01*
X128188398Y-88797671D01*
X128139301Y-88747961D01*
X128124499Y-88689210D01*
X128124499Y-87583233D01*
X128133340Y-87553123D01*
X128134207Y-87549350D01*
X129024000Y-87549350D01*
X129024000Y-88065000D01*
X129886500Y-88065000D01*
X130286500Y-88065000D01*
X131149000Y-88065000D01*
X131149000Y-87549365D01*
X131148999Y-87549350D01*
X131146100Y-87512510D01*
X131146099Y-87512504D01*
X131100283Y-87354806D01*
X131100282Y-87354803D01*
X131016685Y-87213447D01*
X131016678Y-87213438D01*
X130900561Y-87097321D01*
X130900552Y-87097314D01*
X130759196Y-87013717D01*
X130759193Y-87013716D01*
X130601495Y-86967900D01*
X130601489Y-86967899D01*
X130564649Y-86965000D01*
X130286500Y-86965000D01*
X130286500Y-88065000D01*
X129886500Y-88065000D01*
X129886500Y-86965000D01*
X129608350Y-86965000D01*
X129571510Y-86967899D01*
X129571504Y-86967900D01*
X129413806Y-87013716D01*
X129413803Y-87013717D01*
X129272447Y-87097314D01*
X129272438Y-87097321D01*
X129156321Y-87213438D01*
X129156314Y-87213447D01*
X129072717Y-87354803D01*
X129072716Y-87354806D01*
X129026900Y-87512504D01*
X129026899Y-87512510D01*
X129024000Y-87549350D01*
X128134207Y-87549350D01*
X128140371Y-87522534D01*
X128143428Y-87518766D01*
X128144184Y-87516194D01*
X128161852Y-87494529D01*
X128164266Y-87492170D01*
X128184306Y-87474636D01*
X128226740Y-87425183D01*
X128228232Y-87423574D01*
X128229792Y-87421626D01*
X128229805Y-87421612D01*
X128229807Y-87421610D01*
X128307008Y-87300195D01*
X128346876Y-87161949D01*
X128356485Y-87092743D01*
X128355790Y-86948871D01*
X128314589Y-86811016D01*
X128285258Y-86747601D01*
X128285256Y-86747597D01*
X128285253Y-86747593D01*
X128285251Y-86747588D01*
X128242404Y-86681621D01*
X128206885Y-86626934D01*
X127607980Y-85942471D01*
X127607976Y-85942467D01*
X127557643Y-85892499D01*
X127531366Y-85869844D01*
X127531357Y-85869836D01*
X127494614Y-85842401D01*
X127474568Y-85827433D01*
X127474565Y-85827431D01*
X127474563Y-85827430D01*
X127343697Y-85767664D01*
X127343692Y-85767662D01*
X127343691Y-85767662D01*
X127276652Y-85747977D01*
X127276654Y-85747977D01*
X127276649Y-85747976D01*
X127213292Y-85738867D01*
X127134232Y-85727500D01*
X119825427Y-85727500D01*
X119718835Y-85738865D01*
X119667708Y-85749895D01*
X119565911Y-85783483D01*
X119551053Y-85792959D01*
X119483945Y-85812410D01*
X119416975Y-85792492D01*
X119414741Y-85790935D01*
X118103439Y-84947993D01*
X118057691Y-84895184D01*
X118047755Y-84826024D01*
X118052496Y-84807594D01*
X118051980Y-84807441D01*
X118058656Y-84784942D01*
X118073119Y-84736214D01*
X118094009Y-84593863D01*
X118108473Y-79632745D01*
X118111934Y-78445508D01*
X118111932Y-78445482D01*
X118103638Y-78368500D01*
X118100020Y-78334916D01*
X118088312Y-78281953D01*
X118052491Y-78176628D01*
X117973535Y-78056348D01*
X117973534Y-78056346D01*
X117927277Y-78003996D01*
X117927274Y-78003993D01*
X117927271Y-78003990D01*
X117817630Y-77910829D01*
X117686180Y-77852328D01*
X117652566Y-77842810D01*
X117618954Y-77833293D01*
X117618948Y-77833292D01*
X117476341Y-77814195D01*
X111830894Y-77868828D01*
X111807601Y-77870471D01*
X111769654Y-77873148D01*
X111769648Y-77873148D01*
X111769645Y-77873149D01*
X111769634Y-77873150D01*
X111739884Y-77877075D01*
X111739846Y-77877081D01*
X111679652Y-77888776D01*
X111679649Y-77888776D01*
X111546874Y-77944196D01*
X111490854Y-77977640D01*
X111488903Y-77978707D01*
X111486876Y-77980013D01*
X111375097Y-78070592D01*
X111375091Y-78070598D01*
X110304878Y-79226373D01*
X108679064Y-80982168D01*
X107421042Y-82340765D01*
X107389426Y-82378426D01*
X107389425Y-82378427D01*
X107374872Y-82397582D01*
X107347108Y-82438064D01*
X107289787Y-82570034D01*
X107289783Y-82570043D01*
X107271353Y-82637431D01*
X107253534Y-82780203D01*
X107273510Y-83852168D01*
X107273510Y-83852169D01*
X107274679Y-83914930D01*
X107336994Y-87259189D01*
X107337011Y-87262560D01*
X107326205Y-88525500D01*
X107318087Y-89474251D01*
X107294708Y-92206172D01*
X107294708Y-92206180D01*
X107305461Y-92314292D01*
X107305462Y-92314302D01*
X107316345Y-92366171D01*
X107316347Y-92366180D01*
X107333251Y-92418139D01*
X107335272Y-92487979D01*
X107299213Y-92547825D01*
X107236523Y-92578676D01*
X107215334Y-92580500D01*
X105686903Y-92580500D01*
X105453631Y-92617446D01*
X105229003Y-92690433D01*
X105018566Y-92797657D01*
X104945528Y-92850723D01*
X104827490Y-92936483D01*
X104827488Y-92936485D01*
X104827487Y-92936485D01*
X104660485Y-93103487D01*
X104660485Y-93103488D01*
X104660483Y-93103490D01*
X104623045Y-93155019D01*
X104521657Y-93294566D01*
X104414433Y-93505003D01*
X104341446Y-93729631D01*
X104304500Y-93962902D01*
X95500500Y-93962902D01*
X95500500Y-88070818D01*
X102105000Y-88070818D01*
X102105000Y-89081000D01*
X103005000Y-89081000D01*
X103005000Y-89481000D01*
X102105000Y-89481000D01*
X102105000Y-90491181D01*
X102139473Y-90708835D01*
X102207567Y-90918410D01*
X102307613Y-91114760D01*
X102437142Y-91293041D01*
X102592958Y-91448857D01*
X102771239Y-91578386D01*
X102967589Y-91678432D01*
X103177164Y-91746526D01*
X103305000Y-91766774D01*
X103305000Y-90842879D01*
X103312007Y-90846925D01*
X103439174Y-90881000D01*
X103570826Y-90881000D01*
X103697993Y-90846925D01*
X103705000Y-90842879D01*
X103705000Y-91766773D01*
X103832835Y-91746526D01*
X104042410Y-91678432D01*
X104238760Y-91578386D01*
X104417041Y-91448857D01*
X104572857Y-91293041D01*
X104702386Y-91114760D01*
X104802432Y-90918410D01*
X104870526Y-90708835D01*
X104905000Y-90491181D01*
X104905000Y-89481000D01*
X104005000Y-89481000D01*
X104005000Y-89081000D01*
X104905000Y-89081000D01*
X104905000Y-88070818D01*
X104870526Y-87853164D01*
X104802432Y-87643589D01*
X104702386Y-87447239D01*
X104572857Y-87268958D01*
X104417041Y-87113142D01*
X104238760Y-86983613D01*
X104042407Y-86883566D01*
X104042409Y-86883566D01*
X103832832Y-86815472D01*
X103705000Y-86795225D01*
X103705000Y-87719120D01*
X103697993Y-87715075D01*
X103570826Y-87681000D01*
X103439174Y-87681000D01*
X103312007Y-87715075D01*
X103305000Y-87719120D01*
X103305000Y-86795225D01*
X103304999Y-86795225D01*
X103177167Y-86815472D01*
X102967591Y-86883566D01*
X102771239Y-86983613D01*
X102592958Y-87113142D01*
X102437142Y-87268958D01*
X102307613Y-87447239D01*
X102207567Y-87643589D01*
X102139473Y-87853164D01*
X102105000Y-88070818D01*
X95500500Y-88070818D01*
X95500500Y-75624500D01*
X95520185Y-75557461D01*
X95572989Y-75511706D01*
X95624500Y-75500500D01*
X133963183Y-75500500D01*
X134030222Y-75520185D01*
G37*
%TD.AperFunction*%
%TD*%
M02*
