%TF.GenerationSoftware,KiCad,Pcbnew,9.0.5*%
%TF.CreationDate,2025-11-03T21:44:09+01:00*%
%TF.ProjectId,7_4V_battery_replacement,375f3456-5f62-4617-9474-6572795f7265,rev?*%
%TF.SameCoordinates,Original*%
%TF.FileFunction,Legend,Bot*%
%TF.FilePolarity,Positive*%
%FSLAX46Y46*%
G04 Gerber Fmt 4.6, Leading zero omitted, Abs format (unit mm)*
G04 Created by KiCad (PCBNEW 9.0.5) date 2025-11-03 21:44:09*
%MOMM*%
%LPD*%
G01*
G04 APERTURE LIST*
%ADD10C,0.300000*%
G04 APERTURE END LIST*
D10*
X156250774Y-87454828D02*
X155750774Y-88954828D01*
X155750774Y-88954828D02*
X155250774Y-87454828D01*
X155107918Y-89097685D02*
X153965060Y-89097685D01*
X153322203Y-87454828D02*
X153036489Y-87454828D01*
X153036489Y-87454828D02*
X152893632Y-87526257D01*
X152893632Y-87526257D02*
X152750775Y-87669114D01*
X152750775Y-87669114D02*
X152679346Y-87954828D01*
X152679346Y-87954828D02*
X152679346Y-88454828D01*
X152679346Y-88454828D02*
X152750775Y-88740542D01*
X152750775Y-88740542D02*
X152893632Y-88883400D01*
X152893632Y-88883400D02*
X153036489Y-88954828D01*
X153036489Y-88954828D02*
X153322203Y-88954828D01*
X153322203Y-88954828D02*
X153465061Y-88883400D01*
X153465061Y-88883400D02*
X153607918Y-88740542D01*
X153607918Y-88740542D02*
X153679346Y-88454828D01*
X153679346Y-88454828D02*
X153679346Y-87954828D01*
X153679346Y-87954828D02*
X153607918Y-87669114D01*
X153607918Y-87669114D02*
X153465061Y-87526257D01*
X153465061Y-87526257D02*
X153322203Y-87454828D01*
X152036489Y-87454828D02*
X152036489Y-88669114D01*
X152036489Y-88669114D02*
X151965060Y-88811971D01*
X151965060Y-88811971D02*
X151893632Y-88883400D01*
X151893632Y-88883400D02*
X151750774Y-88954828D01*
X151750774Y-88954828D02*
X151465060Y-88954828D01*
X151465060Y-88954828D02*
X151322203Y-88883400D01*
X151322203Y-88883400D02*
X151250774Y-88811971D01*
X151250774Y-88811971D02*
X151179346Y-88669114D01*
X151179346Y-88669114D02*
X151179346Y-87454828D01*
X150679345Y-87454828D02*
X149822203Y-87454828D01*
X150250774Y-88954828D02*
X150250774Y-87454828D01*
X111673774Y-84279828D02*
X111173774Y-85779828D01*
X111173774Y-85779828D02*
X110673774Y-84279828D01*
X110530918Y-85922685D02*
X109388060Y-85922685D01*
X109030918Y-85779828D02*
X109030918Y-84279828D01*
X108316632Y-85779828D02*
X108316632Y-84279828D01*
X108316632Y-84279828D02*
X107459489Y-85779828D01*
X107459489Y-85779828D02*
X107459489Y-84279828D01*
X155250774Y-92352257D02*
X155393632Y-92280828D01*
X155393632Y-92280828D02*
X155607917Y-92280828D01*
X155607917Y-92280828D02*
X155822203Y-92352257D01*
X155822203Y-92352257D02*
X155965060Y-92495114D01*
X155965060Y-92495114D02*
X156036489Y-92637971D01*
X156036489Y-92637971D02*
X156107917Y-92923685D01*
X156107917Y-92923685D02*
X156107917Y-93137971D01*
X156107917Y-93137971D02*
X156036489Y-93423685D01*
X156036489Y-93423685D02*
X155965060Y-93566542D01*
X155965060Y-93566542D02*
X155822203Y-93709400D01*
X155822203Y-93709400D02*
X155607917Y-93780828D01*
X155607917Y-93780828D02*
X155465060Y-93780828D01*
X155465060Y-93780828D02*
X155250774Y-93709400D01*
X155250774Y-93709400D02*
X155179346Y-93637971D01*
X155179346Y-93637971D02*
X155179346Y-93137971D01*
X155179346Y-93137971D02*
X155465060Y-93137971D01*
X154536489Y-93780828D02*
X154536489Y-92280828D01*
X154536489Y-92280828D02*
X153679346Y-93780828D01*
X153679346Y-93780828D02*
X153679346Y-92280828D01*
X152965060Y-93780828D02*
X152965060Y-92280828D01*
X152965060Y-92280828D02*
X152607917Y-92280828D01*
X152607917Y-92280828D02*
X152393631Y-92352257D01*
X152393631Y-92352257D02*
X152250774Y-92495114D01*
X152250774Y-92495114D02*
X152179345Y-92637971D01*
X152179345Y-92637971D02*
X152107917Y-92923685D01*
X152107917Y-92923685D02*
X152107917Y-93137971D01*
X152107917Y-93137971D02*
X152179345Y-93423685D01*
X152179345Y-93423685D02*
X152250774Y-93566542D01*
X152250774Y-93566542D02*
X152393631Y-93709400D01*
X152393631Y-93709400D02*
X152607917Y-93780828D01*
X152607917Y-93780828D02*
X152965060Y-93780828D01*
X104323774Y-84478257D02*
X104466632Y-84406828D01*
X104466632Y-84406828D02*
X104680917Y-84406828D01*
X104680917Y-84406828D02*
X104895203Y-84478257D01*
X104895203Y-84478257D02*
X105038060Y-84621114D01*
X105038060Y-84621114D02*
X105109489Y-84763971D01*
X105109489Y-84763971D02*
X105180917Y-85049685D01*
X105180917Y-85049685D02*
X105180917Y-85263971D01*
X105180917Y-85263971D02*
X105109489Y-85549685D01*
X105109489Y-85549685D02*
X105038060Y-85692542D01*
X105038060Y-85692542D02*
X104895203Y-85835400D01*
X104895203Y-85835400D02*
X104680917Y-85906828D01*
X104680917Y-85906828D02*
X104538060Y-85906828D01*
X104538060Y-85906828D02*
X104323774Y-85835400D01*
X104323774Y-85835400D02*
X104252346Y-85763971D01*
X104252346Y-85763971D02*
X104252346Y-85263971D01*
X104252346Y-85263971D02*
X104538060Y-85263971D01*
X103609489Y-85906828D02*
X103609489Y-84406828D01*
X103609489Y-84406828D02*
X102752346Y-85906828D01*
X102752346Y-85906828D02*
X102752346Y-84406828D01*
X102038060Y-85906828D02*
X102038060Y-84406828D01*
X102038060Y-84406828D02*
X101680917Y-84406828D01*
X101680917Y-84406828D02*
X101466631Y-84478257D01*
X101466631Y-84478257D02*
X101323774Y-84621114D01*
X101323774Y-84621114D02*
X101252345Y-84763971D01*
X101252345Y-84763971D02*
X101180917Y-85049685D01*
X101180917Y-85049685D02*
X101180917Y-85263971D01*
X101180917Y-85263971D02*
X101252345Y-85549685D01*
X101252345Y-85549685D02*
X101323774Y-85692542D01*
X101323774Y-85692542D02*
X101466631Y-85835400D01*
X101466631Y-85835400D02*
X101680917Y-85906828D01*
X101680917Y-85906828D02*
X102038060Y-85906828D01*
M02*
