%TF.GenerationSoftware,KiCad,Pcbnew,9.0.5*%
%TF.CreationDate,2025-11-03T21:44:09+01:00*%
%TF.ProjectId,7_4V_battery_replacement,375f3456-5f62-4617-9474-6572795f7265,rev?*%
%TF.SameCoordinates,Original*%
%TF.FileFunction,Legend,Top*%
%TF.FilePolarity,Positive*%
%FSLAX46Y46*%
G04 Gerber Fmt 4.6, Leading zero omitted, Abs format (unit mm)*
G04 Created by KiCad (PCBNEW 9.0.5) date 2025-11-03 21:44:09*
%MOMM*%
%LPD*%
G01*
G04 APERTURE LIST*
%ADD10C,0.200000*%
%ADD11C,0.150000*%
%ADD12C,0.120000*%
%ADD13C,0.127000*%
G04 APERTURE END LIST*
D10*
X148308816Y-79893219D02*
X148642149Y-80893219D01*
X148642149Y-80893219D02*
X148975482Y-79893219D01*
X149070721Y-80988457D02*
X149832625Y-80988457D01*
X150261197Y-79893219D02*
X150451673Y-79893219D01*
X150451673Y-79893219D02*
X150546911Y-79940838D01*
X150546911Y-79940838D02*
X150642149Y-80036076D01*
X150642149Y-80036076D02*
X150689768Y-80226552D01*
X150689768Y-80226552D02*
X150689768Y-80559885D01*
X150689768Y-80559885D02*
X150642149Y-80750361D01*
X150642149Y-80750361D02*
X150546911Y-80845600D01*
X150546911Y-80845600D02*
X150451673Y-80893219D01*
X150451673Y-80893219D02*
X150261197Y-80893219D01*
X150261197Y-80893219D02*
X150165959Y-80845600D01*
X150165959Y-80845600D02*
X150070721Y-80750361D01*
X150070721Y-80750361D02*
X150023102Y-80559885D01*
X150023102Y-80559885D02*
X150023102Y-80226552D01*
X150023102Y-80226552D02*
X150070721Y-80036076D01*
X150070721Y-80036076D02*
X150165959Y-79940838D01*
X150165959Y-79940838D02*
X150261197Y-79893219D01*
X151118340Y-79893219D02*
X151118340Y-80702742D01*
X151118340Y-80702742D02*
X151165959Y-80797980D01*
X151165959Y-80797980D02*
X151213578Y-80845600D01*
X151213578Y-80845600D02*
X151308816Y-80893219D01*
X151308816Y-80893219D02*
X151499292Y-80893219D01*
X151499292Y-80893219D02*
X151594530Y-80845600D01*
X151594530Y-80845600D02*
X151642149Y-80797980D01*
X151642149Y-80797980D02*
X151689768Y-80702742D01*
X151689768Y-80702742D02*
X151689768Y-79893219D01*
X152023102Y-79893219D02*
X152594530Y-79893219D01*
X152308816Y-80893219D02*
X152308816Y-79893219D01*
X152689769Y-80988457D02*
X153451673Y-80988457D01*
X154165959Y-80893219D02*
X153689769Y-80893219D01*
X153689769Y-80893219D02*
X153689769Y-79893219D01*
X154499293Y-80369409D02*
X154832626Y-80369409D01*
X154975483Y-80893219D02*
X154499293Y-80893219D01*
X154499293Y-80893219D02*
X154499293Y-79893219D01*
X154499293Y-79893219D02*
X154975483Y-79893219D01*
X155404055Y-80893219D02*
X155404055Y-79893219D01*
X155404055Y-79893219D02*
X155642150Y-79893219D01*
X155642150Y-79893219D02*
X155785007Y-79940838D01*
X155785007Y-79940838D02*
X155880245Y-80036076D01*
X155880245Y-80036076D02*
X155927864Y-80131314D01*
X155927864Y-80131314D02*
X155975483Y-80321790D01*
X155975483Y-80321790D02*
X155975483Y-80464647D01*
X155975483Y-80464647D02*
X155927864Y-80655123D01*
X155927864Y-80655123D02*
X155880245Y-80750361D01*
X155880245Y-80750361D02*
X155785007Y-80845600D01*
X155785007Y-80845600D02*
X155642150Y-80893219D01*
X155642150Y-80893219D02*
X155404055Y-80893219D01*
D11*
X108251666Y-82781819D02*
X108251666Y-83496104D01*
X108251666Y-83496104D02*
X108204047Y-83638961D01*
X108204047Y-83638961D02*
X108108809Y-83734200D01*
X108108809Y-83734200D02*
X107965952Y-83781819D01*
X107965952Y-83781819D02*
X107870714Y-83781819D01*
X109251666Y-83781819D02*
X108680238Y-83781819D01*
X108965952Y-83781819D02*
X108965952Y-82781819D01*
X108965952Y-82781819D02*
X108870714Y-82924676D01*
X108870714Y-82924676D02*
X108775476Y-83019914D01*
X108775476Y-83019914D02*
X108680238Y-83067533D01*
X129994819Y-102909666D02*
X129518628Y-103242999D01*
X129994819Y-103481094D02*
X128994819Y-103481094D01*
X128994819Y-103481094D02*
X128994819Y-103100142D01*
X128994819Y-103100142D02*
X129042438Y-103004904D01*
X129042438Y-103004904D02*
X129090057Y-102957285D01*
X129090057Y-102957285D02*
X129185295Y-102909666D01*
X129185295Y-102909666D02*
X129328152Y-102909666D01*
X129328152Y-102909666D02*
X129423390Y-102957285D01*
X129423390Y-102957285D02*
X129471009Y-103004904D01*
X129471009Y-103004904D02*
X129518628Y-103100142D01*
X129518628Y-103100142D02*
X129518628Y-103481094D01*
X128994819Y-102004904D02*
X128994819Y-102481094D01*
X128994819Y-102481094D02*
X129471009Y-102528713D01*
X129471009Y-102528713D02*
X129423390Y-102481094D01*
X129423390Y-102481094D02*
X129375771Y-102385856D01*
X129375771Y-102385856D02*
X129375771Y-102147761D01*
X129375771Y-102147761D02*
X129423390Y-102052523D01*
X129423390Y-102052523D02*
X129471009Y-102004904D01*
X129471009Y-102004904D02*
X129566247Y-101957285D01*
X129566247Y-101957285D02*
X129804342Y-101957285D01*
X129804342Y-101957285D02*
X129899580Y-102004904D01*
X129899580Y-102004904D02*
X129947200Y-102052523D01*
X129947200Y-102052523D02*
X129994819Y-102147761D01*
X129994819Y-102147761D02*
X129994819Y-102385856D01*
X129994819Y-102385856D02*
X129947200Y-102481094D01*
X129947200Y-102481094D02*
X129899580Y-102528713D01*
X149208833Y-82750819D02*
X148875500Y-82274628D01*
X148637405Y-82750819D02*
X148637405Y-81750819D01*
X148637405Y-81750819D02*
X149018357Y-81750819D01*
X149018357Y-81750819D02*
X149113595Y-81798438D01*
X149113595Y-81798438D02*
X149161214Y-81846057D01*
X149161214Y-81846057D02*
X149208833Y-81941295D01*
X149208833Y-81941295D02*
X149208833Y-82084152D01*
X149208833Y-82084152D02*
X149161214Y-82179390D01*
X149161214Y-82179390D02*
X149113595Y-82227009D01*
X149113595Y-82227009D02*
X149018357Y-82274628D01*
X149018357Y-82274628D02*
X148637405Y-82274628D01*
X149542167Y-81750819D02*
X150208833Y-81750819D01*
X150208833Y-81750819D02*
X149780262Y-82750819D01*
X150092580Y-100750666D02*
X150140200Y-100798285D01*
X150140200Y-100798285D02*
X150187819Y-100941142D01*
X150187819Y-100941142D02*
X150187819Y-101036380D01*
X150187819Y-101036380D02*
X150140200Y-101179237D01*
X150140200Y-101179237D02*
X150044961Y-101274475D01*
X150044961Y-101274475D02*
X149949723Y-101322094D01*
X149949723Y-101322094D02*
X149759247Y-101369713D01*
X149759247Y-101369713D02*
X149616390Y-101369713D01*
X149616390Y-101369713D02*
X149425914Y-101322094D01*
X149425914Y-101322094D02*
X149330676Y-101274475D01*
X149330676Y-101274475D02*
X149235438Y-101179237D01*
X149235438Y-101179237D02*
X149187819Y-101036380D01*
X149187819Y-101036380D02*
X149187819Y-100941142D01*
X149187819Y-100941142D02*
X149235438Y-100798285D01*
X149235438Y-100798285D02*
X149283057Y-100750666D01*
X149616390Y-100179237D02*
X149568771Y-100274475D01*
X149568771Y-100274475D02*
X149521152Y-100322094D01*
X149521152Y-100322094D02*
X149425914Y-100369713D01*
X149425914Y-100369713D02*
X149378295Y-100369713D01*
X149378295Y-100369713D02*
X149283057Y-100322094D01*
X149283057Y-100322094D02*
X149235438Y-100274475D01*
X149235438Y-100274475D02*
X149187819Y-100179237D01*
X149187819Y-100179237D02*
X149187819Y-99988761D01*
X149187819Y-99988761D02*
X149235438Y-99893523D01*
X149235438Y-99893523D02*
X149283057Y-99845904D01*
X149283057Y-99845904D02*
X149378295Y-99798285D01*
X149378295Y-99798285D02*
X149425914Y-99798285D01*
X149425914Y-99798285D02*
X149521152Y-99845904D01*
X149521152Y-99845904D02*
X149568771Y-99893523D01*
X149568771Y-99893523D02*
X149616390Y-99988761D01*
X149616390Y-99988761D02*
X149616390Y-100179237D01*
X149616390Y-100179237D02*
X149664009Y-100274475D01*
X149664009Y-100274475D02*
X149711628Y-100322094D01*
X149711628Y-100322094D02*
X149806866Y-100369713D01*
X149806866Y-100369713D02*
X149997342Y-100369713D01*
X149997342Y-100369713D02*
X150092580Y-100322094D01*
X150092580Y-100322094D02*
X150140200Y-100274475D01*
X150140200Y-100274475D02*
X150187819Y-100179237D01*
X150187819Y-100179237D02*
X150187819Y-99988761D01*
X150187819Y-99988761D02*
X150140200Y-99893523D01*
X150140200Y-99893523D02*
X150092580Y-99845904D01*
X150092580Y-99845904D02*
X149997342Y-99798285D01*
X149997342Y-99798285D02*
X149806866Y-99798285D01*
X149806866Y-99798285D02*
X149711628Y-99845904D01*
X149711628Y-99845904D02*
X149664009Y-99893523D01*
X149664009Y-99893523D02*
X149616390Y-99988761D01*
X124039333Y-101165819D02*
X123706000Y-100689628D01*
X123467905Y-101165819D02*
X123467905Y-100165819D01*
X123467905Y-100165819D02*
X123848857Y-100165819D01*
X123848857Y-100165819D02*
X123944095Y-100213438D01*
X123944095Y-100213438D02*
X123991714Y-100261057D01*
X123991714Y-100261057D02*
X124039333Y-100356295D01*
X124039333Y-100356295D02*
X124039333Y-100499152D01*
X124039333Y-100499152D02*
X123991714Y-100594390D01*
X123991714Y-100594390D02*
X123944095Y-100642009D01*
X123944095Y-100642009D02*
X123848857Y-100689628D01*
X123848857Y-100689628D02*
X123467905Y-100689628D01*
X124420286Y-100261057D02*
X124467905Y-100213438D01*
X124467905Y-100213438D02*
X124563143Y-100165819D01*
X124563143Y-100165819D02*
X124801238Y-100165819D01*
X124801238Y-100165819D02*
X124896476Y-100213438D01*
X124896476Y-100213438D02*
X124944095Y-100261057D01*
X124944095Y-100261057D02*
X124991714Y-100356295D01*
X124991714Y-100356295D02*
X124991714Y-100451533D01*
X124991714Y-100451533D02*
X124944095Y-100594390D01*
X124944095Y-100594390D02*
X124372667Y-101165819D01*
X124372667Y-101165819D02*
X124991714Y-101165819D01*
X128343819Y-102909666D02*
X127867628Y-103242999D01*
X128343819Y-103481094D02*
X127343819Y-103481094D01*
X127343819Y-103481094D02*
X127343819Y-103100142D01*
X127343819Y-103100142D02*
X127391438Y-103004904D01*
X127391438Y-103004904D02*
X127439057Y-102957285D01*
X127439057Y-102957285D02*
X127534295Y-102909666D01*
X127534295Y-102909666D02*
X127677152Y-102909666D01*
X127677152Y-102909666D02*
X127772390Y-102957285D01*
X127772390Y-102957285D02*
X127820009Y-103004904D01*
X127820009Y-103004904D02*
X127867628Y-103100142D01*
X127867628Y-103100142D02*
X127867628Y-103481094D01*
X127343819Y-102052523D02*
X127343819Y-102242999D01*
X127343819Y-102242999D02*
X127391438Y-102338237D01*
X127391438Y-102338237D02*
X127439057Y-102385856D01*
X127439057Y-102385856D02*
X127581914Y-102481094D01*
X127581914Y-102481094D02*
X127772390Y-102528713D01*
X127772390Y-102528713D02*
X128153342Y-102528713D01*
X128153342Y-102528713D02*
X128248580Y-102481094D01*
X128248580Y-102481094D02*
X128296200Y-102433475D01*
X128296200Y-102433475D02*
X128343819Y-102338237D01*
X128343819Y-102338237D02*
X128343819Y-102147761D01*
X128343819Y-102147761D02*
X128296200Y-102052523D01*
X128296200Y-102052523D02*
X128248580Y-102004904D01*
X128248580Y-102004904D02*
X128153342Y-101957285D01*
X128153342Y-101957285D02*
X127915247Y-101957285D01*
X127915247Y-101957285D02*
X127820009Y-102004904D01*
X127820009Y-102004904D02*
X127772390Y-102052523D01*
X127772390Y-102052523D02*
X127724771Y-102147761D01*
X127724771Y-102147761D02*
X127724771Y-102338237D01*
X127724771Y-102338237D02*
X127772390Y-102433475D01*
X127772390Y-102433475D02*
X127820009Y-102481094D01*
X127820009Y-102481094D02*
X127915247Y-102528713D01*
X125817333Y-93164819D02*
X125484000Y-92688628D01*
X125245905Y-93164819D02*
X125245905Y-92164819D01*
X125245905Y-92164819D02*
X125626857Y-92164819D01*
X125626857Y-92164819D02*
X125722095Y-92212438D01*
X125722095Y-92212438D02*
X125769714Y-92260057D01*
X125769714Y-92260057D02*
X125817333Y-92355295D01*
X125817333Y-92355295D02*
X125817333Y-92498152D01*
X125817333Y-92498152D02*
X125769714Y-92593390D01*
X125769714Y-92593390D02*
X125722095Y-92641009D01*
X125722095Y-92641009D02*
X125626857Y-92688628D01*
X125626857Y-92688628D02*
X125245905Y-92688628D01*
X126150667Y-92164819D02*
X126769714Y-92164819D01*
X126769714Y-92164819D02*
X126436381Y-92545771D01*
X126436381Y-92545771D02*
X126579238Y-92545771D01*
X126579238Y-92545771D02*
X126674476Y-92593390D01*
X126674476Y-92593390D02*
X126722095Y-92641009D01*
X126722095Y-92641009D02*
X126769714Y-92736247D01*
X126769714Y-92736247D02*
X126769714Y-92974342D01*
X126769714Y-92974342D02*
X126722095Y-93069580D01*
X126722095Y-93069580D02*
X126674476Y-93117200D01*
X126674476Y-93117200D02*
X126579238Y-93164819D01*
X126579238Y-93164819D02*
X126293524Y-93164819D01*
X126293524Y-93164819D02*
X126198286Y-93117200D01*
X126198286Y-93117200D02*
X126150667Y-93069580D01*
X99238095Y-76704819D02*
X99238095Y-75704819D01*
X99238095Y-76181009D02*
X99809523Y-76181009D01*
X99809523Y-76704819D02*
X99809523Y-75704819D01*
X100714285Y-76038152D02*
X100714285Y-76704819D01*
X100476190Y-75657200D02*
X100238095Y-76371485D01*
X100238095Y-76371485D02*
X100857142Y-76371485D01*
X147173819Y-84240666D02*
X147173819Y-84716856D01*
X147173819Y-84716856D02*
X146173819Y-84716856D01*
X147173819Y-83383523D02*
X147173819Y-83954951D01*
X147173819Y-83669237D02*
X146173819Y-83669237D01*
X146173819Y-83669237D02*
X146316676Y-83764475D01*
X146316676Y-83764475D02*
X146411914Y-83859713D01*
X146411914Y-83859713D02*
X146459533Y-83954951D01*
X137501333Y-98403580D02*
X137453714Y-98451200D01*
X137453714Y-98451200D02*
X137310857Y-98498819D01*
X137310857Y-98498819D02*
X137215619Y-98498819D01*
X137215619Y-98498819D02*
X137072762Y-98451200D01*
X137072762Y-98451200D02*
X136977524Y-98355961D01*
X136977524Y-98355961D02*
X136929905Y-98260723D01*
X136929905Y-98260723D02*
X136882286Y-98070247D01*
X136882286Y-98070247D02*
X136882286Y-97927390D01*
X136882286Y-97927390D02*
X136929905Y-97736914D01*
X136929905Y-97736914D02*
X136977524Y-97641676D01*
X136977524Y-97641676D02*
X137072762Y-97546438D01*
X137072762Y-97546438D02*
X137215619Y-97498819D01*
X137215619Y-97498819D02*
X137310857Y-97498819D01*
X137310857Y-97498819D02*
X137453714Y-97546438D01*
X137453714Y-97546438D02*
X137501333Y-97594057D01*
X138358476Y-97832152D02*
X138358476Y-98498819D01*
X138120381Y-97451200D02*
X137882286Y-98165485D01*
X137882286Y-98165485D02*
X138501333Y-98165485D01*
X150391905Y-96974819D02*
X150391905Y-95974819D01*
X150391905Y-95974819D02*
X150630000Y-95974819D01*
X150630000Y-95974819D02*
X150772857Y-96022438D01*
X150772857Y-96022438D02*
X150868095Y-96117676D01*
X150868095Y-96117676D02*
X150915714Y-96212914D01*
X150915714Y-96212914D02*
X150963333Y-96403390D01*
X150963333Y-96403390D02*
X150963333Y-96546247D01*
X150963333Y-96546247D02*
X150915714Y-96736723D01*
X150915714Y-96736723D02*
X150868095Y-96831961D01*
X150868095Y-96831961D02*
X150772857Y-96927200D01*
X150772857Y-96927200D02*
X150630000Y-96974819D01*
X150630000Y-96974819D02*
X150391905Y-96974819D01*
X151915714Y-96974819D02*
X151344286Y-96974819D01*
X151630000Y-96974819D02*
X151630000Y-95974819D01*
X151630000Y-95974819D02*
X151534762Y-96117676D01*
X151534762Y-96117676D02*
X151439524Y-96212914D01*
X151439524Y-96212914D02*
X151344286Y-96260533D01*
X125309333Y-91103580D02*
X125261714Y-91151200D01*
X125261714Y-91151200D02*
X125118857Y-91198819D01*
X125118857Y-91198819D02*
X125023619Y-91198819D01*
X125023619Y-91198819D02*
X124880762Y-91151200D01*
X124880762Y-91151200D02*
X124785524Y-91055961D01*
X124785524Y-91055961D02*
X124737905Y-90960723D01*
X124737905Y-90960723D02*
X124690286Y-90770247D01*
X124690286Y-90770247D02*
X124690286Y-90627390D01*
X124690286Y-90627390D02*
X124737905Y-90436914D01*
X124737905Y-90436914D02*
X124785524Y-90341676D01*
X124785524Y-90341676D02*
X124880762Y-90246438D01*
X124880762Y-90246438D02*
X125023619Y-90198819D01*
X125023619Y-90198819D02*
X125118857Y-90198819D01*
X125118857Y-90198819D02*
X125261714Y-90246438D01*
X125261714Y-90246438D02*
X125309333Y-90294057D01*
X125690286Y-90294057D02*
X125737905Y-90246438D01*
X125737905Y-90246438D02*
X125833143Y-90198819D01*
X125833143Y-90198819D02*
X126071238Y-90198819D01*
X126071238Y-90198819D02*
X126166476Y-90246438D01*
X126166476Y-90246438D02*
X126214095Y-90294057D01*
X126214095Y-90294057D02*
X126261714Y-90389295D01*
X126261714Y-90389295D02*
X126261714Y-90484533D01*
X126261714Y-90484533D02*
X126214095Y-90627390D01*
X126214095Y-90627390D02*
X125642667Y-91198819D01*
X125642667Y-91198819D02*
X126261714Y-91198819D01*
X131804580Y-103036666D02*
X131852200Y-103084285D01*
X131852200Y-103084285D02*
X131899819Y-103227142D01*
X131899819Y-103227142D02*
X131899819Y-103322380D01*
X131899819Y-103322380D02*
X131852200Y-103465237D01*
X131852200Y-103465237D02*
X131756961Y-103560475D01*
X131756961Y-103560475D02*
X131661723Y-103608094D01*
X131661723Y-103608094D02*
X131471247Y-103655713D01*
X131471247Y-103655713D02*
X131328390Y-103655713D01*
X131328390Y-103655713D02*
X131137914Y-103608094D01*
X131137914Y-103608094D02*
X131042676Y-103560475D01*
X131042676Y-103560475D02*
X130947438Y-103465237D01*
X130947438Y-103465237D02*
X130899819Y-103322380D01*
X130899819Y-103322380D02*
X130899819Y-103227142D01*
X130899819Y-103227142D02*
X130947438Y-103084285D01*
X130947438Y-103084285D02*
X130995057Y-103036666D01*
X130899819Y-102179523D02*
X130899819Y-102369999D01*
X130899819Y-102369999D02*
X130947438Y-102465237D01*
X130947438Y-102465237D02*
X130995057Y-102512856D01*
X130995057Y-102512856D02*
X131137914Y-102608094D01*
X131137914Y-102608094D02*
X131328390Y-102655713D01*
X131328390Y-102655713D02*
X131709342Y-102655713D01*
X131709342Y-102655713D02*
X131804580Y-102608094D01*
X131804580Y-102608094D02*
X131852200Y-102560475D01*
X131852200Y-102560475D02*
X131899819Y-102465237D01*
X131899819Y-102465237D02*
X131899819Y-102274761D01*
X131899819Y-102274761D02*
X131852200Y-102179523D01*
X131852200Y-102179523D02*
X131804580Y-102131904D01*
X131804580Y-102131904D02*
X131709342Y-102084285D01*
X131709342Y-102084285D02*
X131471247Y-102084285D01*
X131471247Y-102084285D02*
X131376009Y-102131904D01*
X131376009Y-102131904D02*
X131328390Y-102179523D01*
X131328390Y-102179523D02*
X131280771Y-102274761D01*
X131280771Y-102274761D02*
X131280771Y-102465237D01*
X131280771Y-102465237D02*
X131328390Y-102560475D01*
X131328390Y-102560475D02*
X131376009Y-102608094D01*
X131376009Y-102608094D02*
X131471247Y-102655713D01*
X110151764Y-98595303D02*
X110151764Y-97595303D01*
X110151764Y-97595303D02*
X110389859Y-97595303D01*
X110389859Y-97595303D02*
X110532716Y-97642922D01*
X110532716Y-97642922D02*
X110627954Y-97738160D01*
X110627954Y-97738160D02*
X110675573Y-97833398D01*
X110675573Y-97833398D02*
X110723192Y-98023874D01*
X110723192Y-98023874D02*
X110723192Y-98166731D01*
X110723192Y-98166731D02*
X110675573Y-98357207D01*
X110675573Y-98357207D02*
X110627954Y-98452445D01*
X110627954Y-98452445D02*
X110532716Y-98547684D01*
X110532716Y-98547684D02*
X110389859Y-98595303D01*
X110389859Y-98595303D02*
X110151764Y-98595303D01*
X111104145Y-97690541D02*
X111151764Y-97642922D01*
X111151764Y-97642922D02*
X111247002Y-97595303D01*
X111247002Y-97595303D02*
X111485097Y-97595303D01*
X111485097Y-97595303D02*
X111580335Y-97642922D01*
X111580335Y-97642922D02*
X111627954Y-97690541D01*
X111627954Y-97690541D02*
X111675573Y-97785779D01*
X111675573Y-97785779D02*
X111675573Y-97881017D01*
X111675573Y-97881017D02*
X111627954Y-98023874D01*
X111627954Y-98023874D02*
X111056526Y-98595303D01*
X111056526Y-98595303D02*
X111675573Y-98595303D01*
X122197905Y-91640819D02*
X122197905Y-90640819D01*
X122197905Y-90640819D02*
X122436000Y-90640819D01*
X122436000Y-90640819D02*
X122578857Y-90688438D01*
X122578857Y-90688438D02*
X122674095Y-90783676D01*
X122674095Y-90783676D02*
X122721714Y-90878914D01*
X122721714Y-90878914D02*
X122769333Y-91069390D01*
X122769333Y-91069390D02*
X122769333Y-91212247D01*
X122769333Y-91212247D02*
X122721714Y-91402723D01*
X122721714Y-91402723D02*
X122674095Y-91497961D01*
X122674095Y-91497961D02*
X122578857Y-91593200D01*
X122578857Y-91593200D02*
X122436000Y-91640819D01*
X122436000Y-91640819D02*
X122197905Y-91640819D01*
X123102667Y-90640819D02*
X123721714Y-90640819D01*
X123721714Y-90640819D02*
X123388381Y-91021771D01*
X123388381Y-91021771D02*
X123531238Y-91021771D01*
X123531238Y-91021771D02*
X123626476Y-91069390D01*
X123626476Y-91069390D02*
X123674095Y-91117009D01*
X123674095Y-91117009D02*
X123721714Y-91212247D01*
X123721714Y-91212247D02*
X123721714Y-91450342D01*
X123721714Y-91450342D02*
X123674095Y-91545580D01*
X123674095Y-91545580D02*
X123626476Y-91593200D01*
X123626476Y-91593200D02*
X123531238Y-91640819D01*
X123531238Y-91640819D02*
X123245524Y-91640819D01*
X123245524Y-91640819D02*
X123150286Y-91593200D01*
X123150286Y-91593200D02*
X123102667Y-91545580D01*
X99238095Y-96704819D02*
X99238095Y-95704819D01*
X99238095Y-96181009D02*
X99809523Y-96181009D01*
X99809523Y-96704819D02*
X99809523Y-95704819D01*
X100809523Y-96704819D02*
X100238095Y-96704819D01*
X100523809Y-96704819D02*
X100523809Y-95704819D01*
X100523809Y-95704819D02*
X100428571Y-95847676D01*
X100428571Y-95847676D02*
X100333333Y-95942914D01*
X100333333Y-95942914D02*
X100238095Y-95990533D01*
X147597905Y-78940819D02*
X147597905Y-77940819D01*
X147597905Y-77940819D02*
X147836000Y-77940819D01*
X147836000Y-77940819D02*
X147978857Y-77988438D01*
X147978857Y-77988438D02*
X148074095Y-78083676D01*
X148074095Y-78083676D02*
X148121714Y-78178914D01*
X148121714Y-78178914D02*
X148169333Y-78369390D01*
X148169333Y-78369390D02*
X148169333Y-78512247D01*
X148169333Y-78512247D02*
X148121714Y-78702723D01*
X148121714Y-78702723D02*
X148074095Y-78797961D01*
X148074095Y-78797961D02*
X147978857Y-78893200D01*
X147978857Y-78893200D02*
X147836000Y-78940819D01*
X147836000Y-78940819D02*
X147597905Y-78940819D01*
X149026476Y-78274152D02*
X149026476Y-78940819D01*
X148788381Y-77893200D02*
X148550286Y-78607485D01*
X148550286Y-78607485D02*
X149169333Y-78607485D01*
X130322380Y-91977276D02*
X130322380Y-92495371D01*
X130322380Y-92495371D02*
X130352857Y-92556323D01*
X130352857Y-92556323D02*
X130383333Y-92586800D01*
X130383333Y-92586800D02*
X130444285Y-92617276D01*
X130444285Y-92617276D02*
X130566190Y-92617276D01*
X130566190Y-92617276D02*
X130627142Y-92586800D01*
X130627142Y-92586800D02*
X130657619Y-92556323D01*
X130657619Y-92556323D02*
X130688095Y-92495371D01*
X130688095Y-92495371D02*
X130688095Y-91977276D01*
X131328095Y-92617276D02*
X130962380Y-92617276D01*
X131145237Y-92617276D02*
X131145237Y-91977276D01*
X131145237Y-91977276D02*
X131084285Y-92068704D01*
X131084285Y-92068704D02*
X131023333Y-92129657D01*
X131023333Y-92129657D02*
X130962380Y-92160133D01*
X159238095Y-76704819D02*
X159238095Y-75704819D01*
X159238095Y-76181009D02*
X159809523Y-76181009D01*
X159809523Y-76704819D02*
X159809523Y-75704819D01*
X160190476Y-75704819D02*
X160809523Y-75704819D01*
X160809523Y-75704819D02*
X160476190Y-76085771D01*
X160476190Y-76085771D02*
X160619047Y-76085771D01*
X160619047Y-76085771D02*
X160714285Y-76133390D01*
X160714285Y-76133390D02*
X160761904Y-76181009D01*
X160761904Y-76181009D02*
X160809523Y-76276247D01*
X160809523Y-76276247D02*
X160809523Y-76514342D01*
X160809523Y-76514342D02*
X160761904Y-76609580D01*
X160761904Y-76609580D02*
X160714285Y-76657200D01*
X160714285Y-76657200D02*
X160619047Y-76704819D01*
X160619047Y-76704819D02*
X160333333Y-76704819D01*
X160333333Y-76704819D02*
X160238095Y-76657200D01*
X160238095Y-76657200D02*
X160190476Y-76609580D01*
X110119973Y-80156763D02*
X109786640Y-80156763D01*
X109786640Y-80680573D02*
X109786640Y-79680573D01*
X109786640Y-79680573D02*
X110262830Y-79680573D01*
X111167592Y-80680573D02*
X110596164Y-80680573D01*
X110881878Y-80680573D02*
X110881878Y-79680573D01*
X110881878Y-79680573D02*
X110786640Y-79823430D01*
X110786640Y-79823430D02*
X110691402Y-79918668D01*
X110691402Y-79918668D02*
X110596164Y-79966287D01*
X157099095Y-103832819D02*
X157099095Y-102832819D01*
X157099095Y-103309009D02*
X157670523Y-103309009D01*
X157670523Y-103832819D02*
X157670523Y-102832819D01*
X158099095Y-102928057D02*
X158146714Y-102880438D01*
X158146714Y-102880438D02*
X158241952Y-102832819D01*
X158241952Y-102832819D02*
X158480047Y-102832819D01*
X158480047Y-102832819D02*
X158575285Y-102880438D01*
X158575285Y-102880438D02*
X158622904Y-102928057D01*
X158622904Y-102928057D02*
X158670523Y-103023295D01*
X158670523Y-103023295D02*
X158670523Y-103118533D01*
X158670523Y-103118533D02*
X158622904Y-103261390D01*
X158622904Y-103261390D02*
X158051476Y-103832819D01*
X158051476Y-103832819D02*
X158670523Y-103832819D01*
X118546666Y-85560819D02*
X118546666Y-86275104D01*
X118546666Y-86275104D02*
X118499047Y-86417961D01*
X118499047Y-86417961D02*
X118403809Y-86513200D01*
X118403809Y-86513200D02*
X118260952Y-86560819D01*
X118260952Y-86560819D02*
X118165714Y-86560819D01*
X119022857Y-86560819D02*
X119022857Y-85560819D01*
X119022857Y-85560819D02*
X119403809Y-85560819D01*
X119403809Y-85560819D02*
X119499047Y-85608438D01*
X119499047Y-85608438D02*
X119546666Y-85656057D01*
X119546666Y-85656057D02*
X119594285Y-85751295D01*
X119594285Y-85751295D02*
X119594285Y-85894152D01*
X119594285Y-85894152D02*
X119546666Y-85989390D01*
X119546666Y-85989390D02*
X119499047Y-86037009D01*
X119499047Y-86037009D02*
X119403809Y-86084628D01*
X119403809Y-86084628D02*
X119022857Y-86084628D01*
X120546666Y-86560819D02*
X119975238Y-86560819D01*
X120260952Y-86560819D02*
X120260952Y-85560819D01*
X120260952Y-85560819D02*
X120165714Y-85703676D01*
X120165714Y-85703676D02*
X120070476Y-85798914D01*
X120070476Y-85798914D02*
X119975238Y-85846533D01*
X119121893Y-98912819D02*
X118788560Y-98436628D01*
X118550465Y-98912819D02*
X118550465Y-97912819D01*
X118550465Y-97912819D02*
X118931417Y-97912819D01*
X118931417Y-97912819D02*
X119026655Y-97960438D01*
X119026655Y-97960438D02*
X119074274Y-98008057D01*
X119074274Y-98008057D02*
X119121893Y-98103295D01*
X119121893Y-98103295D02*
X119121893Y-98246152D01*
X119121893Y-98246152D02*
X119074274Y-98341390D01*
X119074274Y-98341390D02*
X119026655Y-98389009D01*
X119026655Y-98389009D02*
X118931417Y-98436628D01*
X118931417Y-98436628D02*
X118550465Y-98436628D01*
X120074274Y-98912819D02*
X119502846Y-98912819D01*
X119788560Y-98912819D02*
X119788560Y-97912819D01*
X119788560Y-97912819D02*
X119693322Y-98055676D01*
X119693322Y-98055676D02*
X119598084Y-98150914D01*
X119598084Y-98150914D02*
X119502846Y-98198533D01*
X133289221Y-96791416D02*
X133336841Y-96839035D01*
X133336841Y-96839035D02*
X133384460Y-96981892D01*
X133384460Y-96981892D02*
X133384460Y-97077130D01*
X133384460Y-97077130D02*
X133336841Y-97219987D01*
X133336841Y-97219987D02*
X133241602Y-97315225D01*
X133241602Y-97315225D02*
X133146364Y-97362844D01*
X133146364Y-97362844D02*
X132955888Y-97410463D01*
X132955888Y-97410463D02*
X132813031Y-97410463D01*
X132813031Y-97410463D02*
X132622555Y-97362844D01*
X132622555Y-97362844D02*
X132527317Y-97315225D01*
X132527317Y-97315225D02*
X132432079Y-97219987D01*
X132432079Y-97219987D02*
X132384460Y-97077130D01*
X132384460Y-97077130D02*
X132384460Y-96981892D01*
X132384460Y-96981892D02*
X132432079Y-96839035D01*
X132432079Y-96839035D02*
X132479698Y-96791416D01*
X132384460Y-96458082D02*
X132384460Y-95839035D01*
X132384460Y-95839035D02*
X132765412Y-96172368D01*
X132765412Y-96172368D02*
X132765412Y-96029511D01*
X132765412Y-96029511D02*
X132813031Y-95934273D01*
X132813031Y-95934273D02*
X132860650Y-95886654D01*
X132860650Y-95886654D02*
X132955888Y-95839035D01*
X132955888Y-95839035D02*
X133193983Y-95839035D01*
X133193983Y-95839035D02*
X133289221Y-95886654D01*
X133289221Y-95886654D02*
X133336841Y-95934273D01*
X133336841Y-95934273D02*
X133384460Y-96029511D01*
X133384460Y-96029511D02*
X133384460Y-96315225D01*
X133384460Y-96315225D02*
X133336841Y-96410463D01*
X133336841Y-96410463D02*
X133289221Y-96458082D01*
X132421333Y-92688580D02*
X132373714Y-92736200D01*
X132373714Y-92736200D02*
X132230857Y-92783819D01*
X132230857Y-92783819D02*
X132135619Y-92783819D01*
X132135619Y-92783819D02*
X131992762Y-92736200D01*
X131992762Y-92736200D02*
X131897524Y-92640961D01*
X131897524Y-92640961D02*
X131849905Y-92545723D01*
X131849905Y-92545723D02*
X131802286Y-92355247D01*
X131802286Y-92355247D02*
X131802286Y-92212390D01*
X131802286Y-92212390D02*
X131849905Y-92021914D01*
X131849905Y-92021914D02*
X131897524Y-91926676D01*
X131897524Y-91926676D02*
X131992762Y-91831438D01*
X131992762Y-91831438D02*
X132135619Y-91783819D01*
X132135619Y-91783819D02*
X132230857Y-91783819D01*
X132230857Y-91783819D02*
X132373714Y-91831438D01*
X132373714Y-91831438D02*
X132421333Y-91879057D01*
X133326095Y-91783819D02*
X132849905Y-91783819D01*
X132849905Y-91783819D02*
X132802286Y-92260009D01*
X132802286Y-92260009D02*
X132849905Y-92212390D01*
X132849905Y-92212390D02*
X132945143Y-92164771D01*
X132945143Y-92164771D02*
X133183238Y-92164771D01*
X133183238Y-92164771D02*
X133278476Y-92212390D01*
X133278476Y-92212390D02*
X133326095Y-92260009D01*
X133326095Y-92260009D02*
X133373714Y-92355247D01*
X133373714Y-92355247D02*
X133373714Y-92593342D01*
X133373714Y-92593342D02*
X133326095Y-92688580D01*
X133326095Y-92688580D02*
X133278476Y-92736200D01*
X133278476Y-92736200D02*
X133183238Y-92783819D01*
X133183238Y-92783819D02*
X132945143Y-92783819D01*
X132945143Y-92783819D02*
X132849905Y-92736200D01*
X132849905Y-92736200D02*
X132802286Y-92688580D01*
X162181166Y-83528819D02*
X162181166Y-84243104D01*
X162181166Y-84243104D02*
X162133547Y-84385961D01*
X162133547Y-84385961D02*
X162038309Y-84481200D01*
X162038309Y-84481200D02*
X161895452Y-84528819D01*
X161895452Y-84528819D02*
X161800214Y-84528819D01*
X162609738Y-83624057D02*
X162657357Y-83576438D01*
X162657357Y-83576438D02*
X162752595Y-83528819D01*
X162752595Y-83528819D02*
X162990690Y-83528819D01*
X162990690Y-83528819D02*
X163085928Y-83576438D01*
X163085928Y-83576438D02*
X163133547Y-83624057D01*
X163133547Y-83624057D02*
X163181166Y-83719295D01*
X163181166Y-83719295D02*
X163181166Y-83814533D01*
X163181166Y-83814533D02*
X163133547Y-83957390D01*
X163133547Y-83957390D02*
X162562119Y-84528819D01*
X162562119Y-84528819D02*
X163181166Y-84528819D01*
X119118906Y-91274067D02*
X119023668Y-91226448D01*
X119023668Y-91226448D02*
X118928430Y-91131210D01*
X118928430Y-91131210D02*
X118785573Y-90988352D01*
X118785573Y-90988352D02*
X118690335Y-90940733D01*
X118690335Y-90940733D02*
X118595097Y-90940733D01*
X118642716Y-91178829D02*
X118547478Y-91131210D01*
X118547478Y-91131210D02*
X118452240Y-91035971D01*
X118452240Y-91035971D02*
X118404621Y-90845495D01*
X118404621Y-90845495D02*
X118404621Y-90512162D01*
X118404621Y-90512162D02*
X118452240Y-90321686D01*
X118452240Y-90321686D02*
X118547478Y-90226448D01*
X118547478Y-90226448D02*
X118642716Y-90178829D01*
X118642716Y-90178829D02*
X118833192Y-90178829D01*
X118833192Y-90178829D02*
X118928430Y-90226448D01*
X118928430Y-90226448D02*
X119023668Y-90321686D01*
X119023668Y-90321686D02*
X119071287Y-90512162D01*
X119071287Y-90512162D02*
X119071287Y-90845495D01*
X119071287Y-90845495D02*
X119023668Y-91035971D01*
X119023668Y-91035971D02*
X118928430Y-91131210D01*
X118928430Y-91131210D02*
X118833192Y-91178829D01*
X118833192Y-91178829D02*
X118642716Y-91178829D01*
X119452240Y-90274067D02*
X119499859Y-90226448D01*
X119499859Y-90226448D02*
X119595097Y-90178829D01*
X119595097Y-90178829D02*
X119833192Y-90178829D01*
X119833192Y-90178829D02*
X119928430Y-90226448D01*
X119928430Y-90226448D02*
X119976049Y-90274067D01*
X119976049Y-90274067D02*
X120023668Y-90369305D01*
X120023668Y-90369305D02*
X120023668Y-90464543D01*
X120023668Y-90464543D02*
X119976049Y-90607400D01*
X119976049Y-90607400D02*
X119404621Y-91178829D01*
X119404621Y-91178829D02*
X120023668Y-91178829D01*
X124547333Y-88624580D02*
X124499714Y-88672200D01*
X124499714Y-88672200D02*
X124356857Y-88719819D01*
X124356857Y-88719819D02*
X124261619Y-88719819D01*
X124261619Y-88719819D02*
X124118762Y-88672200D01*
X124118762Y-88672200D02*
X124023524Y-88576961D01*
X124023524Y-88576961D02*
X123975905Y-88481723D01*
X123975905Y-88481723D02*
X123928286Y-88291247D01*
X123928286Y-88291247D02*
X123928286Y-88148390D01*
X123928286Y-88148390D02*
X123975905Y-87957914D01*
X123975905Y-87957914D02*
X124023524Y-87862676D01*
X124023524Y-87862676D02*
X124118762Y-87767438D01*
X124118762Y-87767438D02*
X124261619Y-87719819D01*
X124261619Y-87719819D02*
X124356857Y-87719819D01*
X124356857Y-87719819D02*
X124499714Y-87767438D01*
X124499714Y-87767438D02*
X124547333Y-87815057D01*
X125499714Y-88719819D02*
X124928286Y-88719819D01*
X125214000Y-88719819D02*
X125214000Y-87719819D01*
X125214000Y-87719819D02*
X125118762Y-87862676D01*
X125118762Y-87862676D02*
X125023524Y-87957914D01*
X125023524Y-87957914D02*
X124928286Y-88005533D01*
X148954833Y-84560580D02*
X148907214Y-84608200D01*
X148907214Y-84608200D02*
X148764357Y-84655819D01*
X148764357Y-84655819D02*
X148669119Y-84655819D01*
X148669119Y-84655819D02*
X148526262Y-84608200D01*
X148526262Y-84608200D02*
X148431024Y-84512961D01*
X148431024Y-84512961D02*
X148383405Y-84417723D01*
X148383405Y-84417723D02*
X148335786Y-84227247D01*
X148335786Y-84227247D02*
X148335786Y-84084390D01*
X148335786Y-84084390D02*
X148383405Y-83893914D01*
X148383405Y-83893914D02*
X148431024Y-83798676D01*
X148431024Y-83798676D02*
X148526262Y-83703438D01*
X148526262Y-83703438D02*
X148669119Y-83655819D01*
X148669119Y-83655819D02*
X148764357Y-83655819D01*
X148764357Y-83655819D02*
X148907214Y-83703438D01*
X148907214Y-83703438D02*
X148954833Y-83751057D01*
X149288167Y-83655819D02*
X149954833Y-83655819D01*
X149954833Y-83655819D02*
X149526262Y-84655819D01*
X134058819Y-103036666D02*
X133582628Y-103369999D01*
X134058819Y-103608094D02*
X133058819Y-103608094D01*
X133058819Y-103608094D02*
X133058819Y-103227142D01*
X133058819Y-103227142D02*
X133106438Y-103131904D01*
X133106438Y-103131904D02*
X133154057Y-103084285D01*
X133154057Y-103084285D02*
X133249295Y-103036666D01*
X133249295Y-103036666D02*
X133392152Y-103036666D01*
X133392152Y-103036666D02*
X133487390Y-103084285D01*
X133487390Y-103084285D02*
X133535009Y-103131904D01*
X133535009Y-103131904D02*
X133582628Y-103227142D01*
X133582628Y-103227142D02*
X133582628Y-103608094D01*
X133392152Y-102179523D02*
X134058819Y-102179523D01*
X133011200Y-102417618D02*
X133725485Y-102655713D01*
X133725485Y-102655713D02*
X133725485Y-102036666D01*
D12*
%TO.C,J1*%
X96005000Y-84681000D02*
X110505000Y-84681000D01*
X96005000Y-93881000D02*
X96005000Y-84681000D01*
X104605000Y-93881000D02*
X96005000Y-93881000D01*
X110505000Y-84681000D02*
X110505000Y-86681000D01*
X110505000Y-91881000D02*
X110505000Y-93881000D01*
X110505000Y-93881000D02*
X109205000Y-93881000D01*
X110805000Y-84381000D02*
X109505000Y-84381000D01*
X110805000Y-86081000D02*
X110805000Y-84381000D01*
%TO.C,R5*%
X129144500Y-100203724D02*
X129144500Y-99694276D01*
X130189500Y-100203724D02*
X130189500Y-99694276D01*
%TO.C,R7*%
X151787776Y-81773500D02*
X152297224Y-81773500D01*
X151787776Y-82818500D02*
X152297224Y-82818500D01*
%TO.C,C8*%
X139658000Y-94621437D02*
X139658000Y-102277000D01*
X139658000Y-102277000D02*
X142508000Y-102277000D01*
X140722437Y-93557000D02*
X139658000Y-94621437D01*
X140722437Y-93557000D02*
X142508000Y-93557000D01*
X146528000Y-92317000D02*
X146528000Y-93317000D01*
X147028000Y-92817000D02*
X146028000Y-92817000D01*
X147313563Y-93557000D02*
X145528000Y-93557000D01*
X147313563Y-93557000D02*
X148378000Y-94621437D01*
X148378000Y-94621437D02*
X148378000Y-102277000D01*
X148378000Y-102277000D02*
X145528000Y-102277000D01*
%TO.C,R2*%
X125461500Y-99694276D02*
X125461500Y-100203724D01*
X126506500Y-99694276D02*
X126506500Y-100203724D01*
%TO.C,R6*%
X127366500Y-99694276D02*
X127366500Y-100203724D01*
X128411500Y-99694276D02*
X128411500Y-100203724D01*
%TO.C,R3*%
X125461500Y-94995276D02*
X125461500Y-95504724D01*
X126506500Y-94995276D02*
X126506500Y-95504724D01*
%TO.C,L1*%
X132819000Y-90174000D02*
X132819000Y-77974000D01*
X135569000Y-77574000D02*
X133219000Y-77574000D01*
X135569000Y-90574000D02*
X133219000Y-90574000D01*
X143069000Y-77574000D02*
X143069000Y-76824000D01*
X145419000Y-77574000D02*
X143069000Y-77574000D01*
X145419000Y-90574000D02*
X143069000Y-90574000D01*
X145819000Y-77974000D02*
X145819000Y-90174000D01*
X132819000Y-77974000D02*
G75*
G02*
X133219000Y-77574000I399999J1D01*
G01*
X133219000Y-90574000D02*
G75*
G02*
X132819000Y-90174000I0J400000D01*
G01*
X145419000Y-77574000D02*
G75*
G02*
X145819000Y-77974000I1J-399999D01*
G01*
X145819000Y-90174000D02*
G75*
G02*
X145419000Y-90574000I-400000J0D01*
G01*
%TO.C,C4*%
X136601252Y-95229000D02*
X135178748Y-95229000D01*
X136601252Y-97049000D02*
X135178748Y-97049000D01*
%TO.C,D1*%
X148726000Y-86222000D02*
X148726000Y-93632000D01*
X153026000Y-86222000D02*
X148726000Y-86222000D01*
X153026000Y-86222000D02*
X153026000Y-93632000D01*
%TO.C,C2*%
X128123733Y-90234000D02*
X128416267Y-90234000D01*
X128123733Y-91254000D02*
X128416267Y-91254000D01*
%TO.C,C6*%
X131062000Y-100095267D02*
X131062000Y-99802733D01*
X132082000Y-100095267D02*
X132082000Y-99802733D01*
%TO.C,D2*%
X112150000Y-91436000D02*
X112150000Y-98846000D01*
X116450000Y-91436000D02*
X112150000Y-91436000D01*
X116450000Y-91436000D02*
X116450000Y-98846000D01*
%TO.C,D3*%
X121826000Y-92336000D02*
X121826000Y-96746000D01*
X124046000Y-92336000D02*
X121826000Y-92336000D01*
X124046000Y-96746000D02*
X124046000Y-92336000D01*
%TO.C,D4*%
X150546000Y-79494000D02*
X154606000Y-79494000D01*
X154606000Y-77224000D02*
X150546000Y-77224000D01*
X154606000Y-79494000D02*
X154606000Y-77224000D01*
D13*
%TO.C,U1*%
X127323000Y-94944000D02*
X127323000Y-96544000D01*
X130453000Y-94944000D02*
X130453000Y-96544000D01*
D10*
X130188000Y-93344000D02*
G75*
G02*
X129988000Y-93344000I-100000J0D01*
G01*
X129988000Y-93344000D02*
G75*
G02*
X130188000Y-93344000I100000J0D01*
G01*
D12*
%TO.C,F1*%
X111844097Y-79947668D02*
X111844097Y-89897668D01*
X111844097Y-89897668D02*
X112304097Y-89897668D01*
X112304097Y-79947668D02*
X111844097Y-79947668D01*
X117094097Y-79947668D02*
X116634097Y-79947668D01*
X117094097Y-79947668D02*
X117094097Y-89897668D01*
X117094097Y-89897668D02*
X116634097Y-89897668D01*
%TO.C,JP1*%
X117888560Y-88438000D02*
X117888560Y-87838000D01*
X118588560Y-87138000D02*
X119988560Y-87138000D01*
X119988560Y-89138000D02*
X118588560Y-89138000D01*
X120688560Y-87838000D02*
X120688560Y-88438000D01*
X117888560Y-87838000D02*
G75*
G02*
X118588560Y-87138000I699999J1D01*
G01*
X118588560Y-89138000D02*
G75*
G02*
X117888560Y-88438000I-1J699999D01*
G01*
X119988560Y-87138000D02*
G75*
G02*
X120688560Y-87838000I0J-700000D01*
G01*
X120688560Y-88438000D02*
G75*
G02*
X119988560Y-89138000I-700000J0D01*
G01*
%TO.C,R1*%
X119543284Y-96505500D02*
X119033836Y-96505500D01*
X119543284Y-97550500D02*
X119033836Y-97550500D01*
%TO.C,C3*%
X130935000Y-96666267D02*
X130935000Y-96373733D01*
X131955000Y-96666267D02*
X131955000Y-96373733D01*
%TO.C,C5*%
X136601252Y-92308000D02*
X135178748Y-92308000D01*
X136601252Y-94128000D02*
X135178748Y-94128000D01*
%TO.C,J2*%
X153684000Y-85351000D02*
X163724000Y-85351000D01*
X153684000Y-95751000D02*
X153684000Y-85351000D01*
X156704000Y-95751000D02*
X156704000Y-85351000D01*
X161604000Y-95751000D02*
X161604000Y-85351000D01*
X163104000Y-95751000D02*
X163104000Y-85351000D01*
X163724000Y-85351000D02*
X163724000Y-92791000D01*
X163724000Y-93391000D02*
X163724000Y-95751000D01*
X163724000Y-95751000D02*
X153684000Y-95751000D01*
X164334000Y-93531000D02*
X163724000Y-93091000D01*
X164334000Y-92651000D01*
X164334000Y-93531000D01*
G36*
X164334000Y-93531000D02*
G01*
X163724000Y-93091000D01*
X164334000Y-92651000D01*
X164334000Y-93531000D01*
G37*
%TO.C,Q2*%
X119192560Y-92086000D02*
X118542560Y-92086000D01*
X119192560Y-92086000D02*
X119842560Y-92086000D01*
X119192560Y-95206000D02*
X118542560Y-95206000D01*
X119192560Y-95206000D02*
X119842560Y-95206000D01*
X120595060Y-95486000D02*
X120115060Y-95486000D01*
X120355060Y-95156000D01*
X120595060Y-95486000D01*
G36*
X120595060Y-95486000D02*
G01*
X120115060Y-95486000D01*
X120355060Y-95156000D01*
X120595060Y-95486000D01*
G37*
%TO.C,C1*%
X127812748Y-87355000D02*
X129235252Y-87355000D01*
X127812748Y-89175000D02*
X129235252Y-89175000D01*
%TO.C,C7*%
X151769233Y-83564000D02*
X152061767Y-83564000D01*
X151769233Y-84584000D02*
X152061767Y-84584000D01*
%TO.C,R4*%
X133081500Y-99694276D02*
X133081500Y-100203724D01*
X134126500Y-99694276D02*
X134126500Y-100203724D01*
%TD*%
M02*
