%TF.GenerationSoftware,KiCad,Pcbnew,9.0.5*%
%TF.CreationDate,2025-11-03T21:44:09+01:00*%
%TF.ProjectId,7_4V_battery_replacement,375f3456-5f62-4617-9474-6572795f7265,rev?*%
%TF.SameCoordinates,Original*%
%TF.FileFunction,Copper,L2,Bot*%
%TF.FilePolarity,Positive*%
%FSLAX46Y46*%
G04 Gerber Fmt 4.6, Leading zero omitted, Abs format (unit mm)*
G04 Created by KiCad (PCBNEW 9.0.5) date 2025-11-03 21:44:09*
%MOMM*%
%LPD*%
G01*
G04 APERTURE LIST*
G04 Aperture macros list*
%AMRoundRect*
0 Rectangle with rounded corners*
0 $1 Rounding radius*
0 $2 $3 $4 $5 $6 $7 $8 $9 X,Y pos of 4 corners*
0 Add a 4 corners polygon primitive as box body*
4,1,4,$2,$3,$4,$5,$6,$7,$8,$9,$2,$3,0*
0 Add four circle primitives for the rounded corners*
1,1,$1+$1,$2,$3*
1,1,$1+$1,$4,$5*
1,1,$1+$1,$6,$7*
1,1,$1+$1,$8,$9*
0 Add four rect primitives between the rounded corners*
20,1,$1+$1,$2,$3,$4,$5,0*
20,1,$1+$1,$4,$5,$6,$7,0*
20,1,$1+$1,$6,$7,$8,$9,0*
20,1,$1+$1,$8,$9,$2,$3,0*%
G04 Aperture macros list end*
%TA.AperFunction,ComponentPad*%
%ADD10R,2.000000X4.600000*%
%TD*%
%TA.AperFunction,ComponentPad*%
%ADD11O,2.000000X4.200000*%
%TD*%
%TA.AperFunction,ComponentPad*%
%ADD12O,4.200000X2.000000*%
%TD*%
%TA.AperFunction,ComponentPad*%
%ADD13C,3.600000*%
%TD*%
%TA.AperFunction,ConnectorPad*%
%ADD14C,5.600000*%
%TD*%
%TA.AperFunction,ComponentPad*%
%ADD15RoundRect,0.250000X1.050000X-1.050000X1.050000X1.050000X-1.050000X1.050000X-1.050000X-1.050000X0*%
%TD*%
%TA.AperFunction,ComponentPad*%
%ADD16C,2.600000*%
%TD*%
%TA.AperFunction,ViaPad*%
%ADD17C,0.600000*%
%TD*%
G04 APERTURE END LIST*
D10*
%TO.P,J1,1*%
%TO.N,Net-(F1-Pad1)*%
X109805000Y-89281000D03*
D11*
%TO.P,J1,2*%
%TO.N,GND*%
X103505000Y-89281000D03*
D12*
%TO.P,J1,3*%
%TO.N,unconnected-(J1-Pad3)*%
X106905000Y-94081000D03*
%TD*%
D13*
%TO.P,H4,1,1*%
%TO.N,GND*%
X100000000Y-80000000D03*
D14*
X100000000Y-80000000D03*
%TD*%
D13*
%TO.P,H1,1,1*%
%TO.N,GND*%
X100000000Y-100000000D03*
D14*
X100000000Y-100000000D03*
%TD*%
D13*
%TO.P,H3,1,1*%
%TO.N,GND*%
X160000000Y-80000000D03*
D14*
X160000000Y-80000000D03*
%TD*%
D13*
%TO.P,H2,1,1*%
%TO.N,GND*%
X160000000Y-100000000D03*
D14*
X160000000Y-100000000D03*
%TD*%
D15*
%TO.P,J2,1,Pin_1*%
%TO.N,GND*%
X159004000Y-93091000D03*
D16*
%TO.P,J2,2,Pin_2*%
%TO.N,+8.5V*%
X159004000Y-88011000D03*
%TD*%
D17*
%TO.N,GND*%
X109640414Y-77097195D03*
X127889000Y-76581000D03*
X135763000Y-100457000D03*
X131191000Y-76454000D03*
X96393000Y-83185000D03*
X103378000Y-76708000D03*
X132461000Y-102616000D03*
X106553000Y-78105000D03*
X122174000Y-80010000D03*
X113792000Y-102489000D03*
X121158000Y-102489000D03*
X131445000Y-91059000D03*
X135763000Y-102489000D03*
X106553000Y-82423000D03*
X96520000Y-76708000D03*
X108204000Y-97663000D03*
X97663000Y-91440000D03*
X162941000Y-93472000D03*
X108204000Y-102489000D03*
X108888868Y-79783972D03*
X118038941Y-76683844D03*
X151511000Y-98425000D03*
X147320000Y-77216000D03*
X163068000Y-76835000D03*
X122301000Y-82804000D03*
X105664000Y-102489000D03*
X103251000Y-96266000D03*
X120015000Y-82804000D03*
X162814000Y-103378000D03*
X155575000Y-83185000D03*
X131826000Y-89662000D03*
X148590000Y-103251000D03*
X155956000Y-98425000D03*
X124714000Y-80010000D03*
X121412000Y-98552000D03*
X103124000Y-103632000D03*
X124714000Y-77978000D03*
X123317000Y-102489000D03*
X162814000Y-96393000D03*
X132461000Y-93345000D03*
X155829000Y-100965000D03*
X108204000Y-99949000D03*
X156083000Y-96393000D03*
X112395000Y-76200000D03*
X155575000Y-81407000D03*
X99822000Y-91440000D03*
X162941000Y-91694000D03*
X106553000Y-80264000D03*
X117475000Y-100203000D03*
X115126700Y-77022040D03*
X156845000Y-76708000D03*
X155702000Y-103378000D03*
X122047000Y-100203000D03*
X105664000Y-100076000D03*
X122301000Y-77978000D03*
X119761000Y-100203000D03*
X99949000Y-89027000D03*
X116332000Y-102489000D03*
X124714000Y-82804000D03*
X131953000Y-83820000D03*
X118745000Y-102489000D03*
X105410000Y-97663000D03*
X125984000Y-102616000D03*
X153416000Y-102362000D03*
X99822000Y-86487000D03*
X110744000Y-102489000D03*
X138176000Y-100330000D03*
X97663000Y-89154000D03*
X96647000Y-103505000D03*
X97790000Y-86487000D03*
X147447000Y-80010000D03*
X103124000Y-83312000D03*
X131445000Y-93345000D03*
X119761000Y-78105000D03*
X147193000Y-82423000D03*
X132461000Y-94361000D03*
X96647000Y-96139000D03*
X153543000Y-99822000D03*
X138176000Y-102489000D03*
X119761000Y-80264000D03*
X131826000Y-86487000D03*
X153670000Y-97536000D03*
X151384000Y-103251000D03*
X131445000Y-94361000D03*
%TO.N,Net-(U1-SW)*%
X129413000Y-79629000D03*
X129388000Y-92075000D03*
X128638000Y-92075000D03*
X129413000Y-78867000D03*
X128651000Y-92837000D03*
X128651000Y-78867000D03*
X128651000Y-79629000D03*
X129413000Y-92837000D03*
%TD*%
%TA.AperFunction,Conductor*%
%TO.N,GND*%
G36*
X164442539Y-75520185D02*
G01*
X164488294Y-75572989D01*
X164499500Y-75624500D01*
X164499500Y-104375500D01*
X164479815Y-104442539D01*
X164427011Y-104488294D01*
X164375500Y-104499500D01*
X95624500Y-104499500D01*
X95557461Y-104479815D01*
X95511706Y-104427011D01*
X95500500Y-104375500D01*
X95500500Y-93962902D01*
X104304500Y-93962902D01*
X104304500Y-94199097D01*
X104341446Y-94432368D01*
X104414433Y-94656996D01*
X104482712Y-94790999D01*
X104521657Y-94867433D01*
X104660483Y-95058510D01*
X104827490Y-95225517D01*
X105018567Y-95364343D01*
X105117991Y-95415002D01*
X105229003Y-95471566D01*
X105229005Y-95471566D01*
X105229008Y-95471568D01*
X105349412Y-95510689D01*
X105453631Y-95544553D01*
X105686903Y-95581500D01*
X105686908Y-95581500D01*
X108123097Y-95581500D01*
X108356368Y-95544553D01*
X108580992Y-95471568D01*
X108791433Y-95364343D01*
X108982510Y-95225517D01*
X109149517Y-95058510D01*
X109288343Y-94867433D01*
X109395568Y-94656992D01*
X109468553Y-94432368D01*
X109473491Y-94401193D01*
X109505500Y-94199097D01*
X109505500Y-93962902D01*
X109468553Y-93729631D01*
X109395566Y-93505003D01*
X109315706Y-93348270D01*
X109288343Y-93294567D01*
X109149517Y-93103490D01*
X108982510Y-92936483D01*
X108791433Y-92797657D01*
X108762883Y-92783110D01*
X108580996Y-92690433D01*
X108356368Y-92617446D01*
X108123097Y-92580500D01*
X108123092Y-92580500D01*
X105686908Y-92580500D01*
X105686903Y-92580500D01*
X105453631Y-92617446D01*
X105229003Y-92690433D01*
X105018566Y-92797657D01*
X104909550Y-92876862D01*
X104827490Y-92936483D01*
X104827488Y-92936485D01*
X104827487Y-92936485D01*
X104660485Y-93103487D01*
X104660485Y-93103488D01*
X104660483Y-93103490D01*
X104623045Y-93155019D01*
X104521657Y-93294566D01*
X104414433Y-93505003D01*
X104341446Y-93729631D01*
X104304500Y-93962902D01*
X95500500Y-93962902D01*
X95500500Y-88070818D01*
X102105000Y-88070818D01*
X102105000Y-89081000D01*
X103005000Y-89081000D01*
X103005000Y-89481000D01*
X102105000Y-89481000D01*
X102105000Y-90491181D01*
X102139473Y-90708835D01*
X102207567Y-90918410D01*
X102307613Y-91114760D01*
X102437142Y-91293041D01*
X102592958Y-91448857D01*
X102771239Y-91578386D01*
X102967589Y-91678432D01*
X103177164Y-91746526D01*
X103305000Y-91766774D01*
X103305000Y-90842879D01*
X103312007Y-90846925D01*
X103439174Y-90881000D01*
X103570826Y-90881000D01*
X103697993Y-90846925D01*
X103705000Y-90842879D01*
X103705000Y-91766773D01*
X103832835Y-91746526D01*
X104042410Y-91678432D01*
X104238760Y-91578386D01*
X104417041Y-91448857D01*
X104572857Y-91293041D01*
X104702386Y-91114760D01*
X104802432Y-90918410D01*
X104870526Y-90708835D01*
X104905000Y-90491181D01*
X104905000Y-89481000D01*
X104005000Y-89481000D01*
X104005000Y-89081000D01*
X104905000Y-89081000D01*
X104905000Y-88070818D01*
X104870526Y-87853164D01*
X104802432Y-87643589D01*
X104702386Y-87447239D01*
X104572857Y-87268958D01*
X104417041Y-87113142D01*
X104302777Y-87030124D01*
X104302775Y-87030122D01*
X104238763Y-86983615D01*
X104139691Y-86933135D01*
X108304500Y-86933135D01*
X108304500Y-91628870D01*
X108304501Y-91628876D01*
X108310908Y-91688483D01*
X108361202Y-91823328D01*
X108361206Y-91823335D01*
X108447452Y-91938544D01*
X108447455Y-91938547D01*
X108562664Y-92024793D01*
X108562671Y-92024797D01*
X108697517Y-92075091D01*
X108697516Y-92075091D01*
X108704444Y-92075835D01*
X108757127Y-92081500D01*
X110852872Y-92081499D01*
X110912483Y-92075091D01*
X111047331Y-92024796D01*
X111162546Y-91938546D01*
X111248796Y-91823331D01*
X111299091Y-91688483D01*
X111305500Y-91628873D01*
X111305499Y-86933128D01*
X111299091Y-86873517D01*
X111279613Y-86821295D01*
X111248797Y-86738671D01*
X111248793Y-86738664D01*
X111162547Y-86623455D01*
X111162544Y-86623452D01*
X111047335Y-86537206D01*
X111047328Y-86537202D01*
X110912482Y-86486908D01*
X110912483Y-86486908D01*
X110852883Y-86480501D01*
X110852881Y-86480500D01*
X110852873Y-86480500D01*
X110852864Y-86480500D01*
X108757129Y-86480500D01*
X108757123Y-86480501D01*
X108697516Y-86486908D01*
X108562671Y-86537202D01*
X108562664Y-86537206D01*
X108447455Y-86623452D01*
X108447452Y-86623455D01*
X108361206Y-86738664D01*
X108361202Y-86738671D01*
X108310908Y-86873517D01*
X108304501Y-86933116D01*
X108304501Y-86933123D01*
X108304500Y-86933135D01*
X104139691Y-86933135D01*
X104042407Y-86883566D01*
X104042409Y-86883566D01*
X103832832Y-86815472D01*
X103705000Y-86795225D01*
X103705000Y-87719120D01*
X103697993Y-87715075D01*
X103570826Y-87681000D01*
X103439174Y-87681000D01*
X103312007Y-87715075D01*
X103305000Y-87719120D01*
X103305000Y-86795225D01*
X103304999Y-86795225D01*
X103177167Y-86815472D01*
X102967591Y-86883566D01*
X102771239Y-86983613D01*
X102592958Y-87113142D01*
X102437142Y-87268958D01*
X102307613Y-87447239D01*
X102207567Y-87643589D01*
X102139473Y-87853164D01*
X102105000Y-88070818D01*
X95500500Y-88070818D01*
X95500500Y-78365682D01*
X127539845Y-78365682D01*
X127539919Y-78370500D01*
X127539919Y-78370501D01*
X127645487Y-85232565D01*
X127644241Y-85252113D01*
X127637500Y-85299011D01*
X127637500Y-93152044D01*
X127647904Y-93254077D01*
X127653371Y-93280598D01*
X127658012Y-93303115D01*
X127688154Y-93398890D01*
X127688806Y-93400963D01*
X127688809Y-93400968D01*
X127763924Y-93523668D01*
X127763929Y-93523675D01*
X127808520Y-93577469D01*
X127808523Y-93577471D01*
X127915167Y-93674040D01*
X127915168Y-93674040D01*
X127915170Y-93674042D01*
X128209933Y-93872713D01*
X128214958Y-93876056D01*
X128217452Y-93877694D01*
X128222596Y-93881028D01*
X128353606Y-93940510D01*
X128420689Y-93960047D01*
X128420696Y-93960048D01*
X128420694Y-93960048D01*
X128554654Y-93979007D01*
X128563148Y-93980210D01*
X129671385Y-93977771D01*
X129678720Y-93976970D01*
X129778262Y-93966102D01*
X129778267Y-93966100D01*
X129778276Y-93966100D01*
X129829514Y-93954894D01*
X129931504Y-93920885D01*
X129993521Y-93881029D01*
X130052537Y-93843101D01*
X130052537Y-93843100D01*
X130052543Y-93843097D01*
X130105347Y-93797342D01*
X130199567Y-93688608D01*
X130259338Y-93557731D01*
X130279023Y-93490692D01*
X130279024Y-93490688D01*
X130299500Y-93348272D01*
X130299500Y-91975350D01*
X157304000Y-91975350D01*
X157304000Y-92891000D01*
X158383288Y-92891000D01*
X158378979Y-92901402D01*
X158354000Y-93026981D01*
X158354000Y-93155019D01*
X158378979Y-93280598D01*
X158383288Y-93291000D01*
X157304000Y-93291000D01*
X157304000Y-94206649D01*
X157306899Y-94243489D01*
X157306900Y-94243495D01*
X157352716Y-94401193D01*
X157352717Y-94401196D01*
X157436314Y-94542552D01*
X157436321Y-94542561D01*
X157552438Y-94658678D01*
X157552447Y-94658685D01*
X157693803Y-94742282D01*
X157693806Y-94742283D01*
X157851504Y-94788099D01*
X157851510Y-94788100D01*
X157888350Y-94790999D01*
X157888366Y-94791000D01*
X158804000Y-94791000D01*
X158804000Y-93711712D01*
X158814402Y-93716021D01*
X158939981Y-93741000D01*
X159068019Y-93741000D01*
X159193598Y-93716021D01*
X159204000Y-93711712D01*
X159204000Y-94791000D01*
X160119634Y-94791000D01*
X160119649Y-94790999D01*
X160156489Y-94788100D01*
X160156495Y-94788099D01*
X160314193Y-94742283D01*
X160314196Y-94742282D01*
X160455552Y-94658685D01*
X160455561Y-94658678D01*
X160571678Y-94542561D01*
X160571685Y-94542552D01*
X160655282Y-94401196D01*
X160655283Y-94401193D01*
X160701099Y-94243495D01*
X160701100Y-94243489D01*
X160703999Y-94206649D01*
X160704000Y-94206634D01*
X160704000Y-93291000D01*
X159624712Y-93291000D01*
X159629021Y-93280598D01*
X159654000Y-93155019D01*
X159654000Y-93026981D01*
X159629021Y-92901402D01*
X159624712Y-92891000D01*
X160704000Y-92891000D01*
X160704000Y-91975365D01*
X160703999Y-91975350D01*
X160701100Y-91938510D01*
X160701099Y-91938504D01*
X160655283Y-91780806D01*
X160655282Y-91780803D01*
X160571685Y-91639447D01*
X160571678Y-91639438D01*
X160455561Y-91523321D01*
X160455552Y-91523314D01*
X160314196Y-91439717D01*
X160314193Y-91439716D01*
X160156495Y-91393900D01*
X160156489Y-91393899D01*
X160119649Y-91391000D01*
X159204000Y-91391000D01*
X159204000Y-92470287D01*
X159193598Y-92465979D01*
X159068019Y-92441000D01*
X158939981Y-92441000D01*
X158814402Y-92465979D01*
X158804000Y-92470287D01*
X158804000Y-91391000D01*
X157888350Y-91391000D01*
X157851510Y-91393899D01*
X157851504Y-91393900D01*
X157693806Y-91439716D01*
X157693803Y-91439717D01*
X157552447Y-91523314D01*
X157552438Y-91523321D01*
X157436321Y-91639438D01*
X157436314Y-91639447D01*
X157352717Y-91780803D01*
X157352716Y-91780806D01*
X157306900Y-91938504D01*
X157306899Y-91938510D01*
X157304000Y-91975350D01*
X130299500Y-91975350D01*
X130299500Y-87892995D01*
X157203500Y-87892995D01*
X157203500Y-88129004D01*
X157203501Y-88129020D01*
X157234306Y-88363010D01*
X157295394Y-88590993D01*
X157385714Y-88809045D01*
X157385719Y-88809056D01*
X157456677Y-88931957D01*
X157503727Y-89013450D01*
X157503729Y-89013453D01*
X157503730Y-89013454D01*
X157647406Y-89200697D01*
X157647412Y-89200704D01*
X157814295Y-89367587D01*
X157814301Y-89367592D01*
X158001550Y-89511273D01*
X158132918Y-89587118D01*
X158205943Y-89629280D01*
X158205948Y-89629282D01*
X158205951Y-89629284D01*
X158424007Y-89719606D01*
X158651986Y-89780693D01*
X158885989Y-89811500D01*
X158885996Y-89811500D01*
X159122004Y-89811500D01*
X159122011Y-89811500D01*
X159356014Y-89780693D01*
X159583993Y-89719606D01*
X159802049Y-89629284D01*
X160006450Y-89511273D01*
X160193699Y-89367592D01*
X160360592Y-89200699D01*
X160504273Y-89013450D01*
X160622284Y-88809049D01*
X160712606Y-88590993D01*
X160773693Y-88363014D01*
X160804500Y-88129011D01*
X160804500Y-87892989D01*
X160773693Y-87658986D01*
X160712606Y-87431007D01*
X160622284Y-87212951D01*
X160622282Y-87212948D01*
X160622280Y-87212943D01*
X160564659Y-87113142D01*
X160504273Y-87008550D01*
X160360592Y-86821301D01*
X160360587Y-86821295D01*
X160193704Y-86654412D01*
X160193697Y-86654406D01*
X160006454Y-86510730D01*
X160006453Y-86510729D01*
X160006450Y-86510727D01*
X159924957Y-86463677D01*
X159802056Y-86392719D01*
X159802045Y-86392714D01*
X159583993Y-86302394D01*
X159356010Y-86241306D01*
X159122020Y-86210501D01*
X159122017Y-86210500D01*
X159122011Y-86210500D01*
X158885989Y-86210500D01*
X158885983Y-86210500D01*
X158885979Y-86210501D01*
X158651989Y-86241306D01*
X158424006Y-86302394D01*
X158205954Y-86392714D01*
X158205943Y-86392719D01*
X158001545Y-86510730D01*
X157814302Y-86654406D01*
X157814295Y-86654412D01*
X157647412Y-86821295D01*
X157647406Y-86821302D01*
X157503730Y-87008545D01*
X157385719Y-87212943D01*
X157385714Y-87212954D01*
X157295394Y-87431006D01*
X157234306Y-87658989D01*
X157203501Y-87892979D01*
X157203500Y-87892995D01*
X130299500Y-87892995D01*
X130299500Y-86366746D01*
X130319185Y-86299707D01*
X130335819Y-86279065D01*
X130404384Y-86210500D01*
X131004123Y-85610762D01*
X131040288Y-85570500D01*
X131056922Y-85549858D01*
X131088567Y-85505974D01*
X131148338Y-85375097D01*
X131168023Y-85308058D01*
X131168024Y-85308054D01*
X131188500Y-85165638D01*
X131188500Y-78356000D01*
X131176947Y-78248544D01*
X131165741Y-78197033D01*
X131165637Y-78196722D01*
X131131616Y-78094502D01*
X131131613Y-78094496D01*
X131053828Y-77973462D01*
X131053825Y-77973457D01*
X131053820Y-77973451D01*
X131008076Y-77920659D01*
X131008072Y-77920656D01*
X131008070Y-77920653D01*
X130899336Y-77826433D01*
X130899333Y-77826431D01*
X130899331Y-77826430D01*
X130768465Y-77766664D01*
X130768460Y-77766662D01*
X130768459Y-77766662D01*
X130701420Y-77746977D01*
X130701422Y-77746977D01*
X130701417Y-77746976D01*
X130653944Y-77740150D01*
X130559000Y-77726500D01*
X128169270Y-77726500D01*
X128169268Y-77726500D01*
X128058022Y-77738893D01*
X128004789Y-77750902D01*
X127898986Y-77787478D01*
X127779161Y-77867115D01*
X127779153Y-77867121D01*
X127727067Y-77913677D01*
X127727059Y-77913685D01*
X127634530Y-78023849D01*
X127634528Y-78023851D01*
X127576782Y-78155625D01*
X127576780Y-78155631D01*
X127561248Y-78211701D01*
X127561246Y-78211708D01*
X127558129Y-78222965D01*
X127558128Y-78222968D01*
X127539845Y-78365682D01*
X95500500Y-78365682D01*
X95500500Y-75624500D01*
X95520185Y-75557461D01*
X95572989Y-75511706D01*
X95624500Y-75500500D01*
X164375500Y-75500500D01*
X164442539Y-75520185D01*
G37*
%TD.AperFunction*%
%TD*%
%TA.AperFunction,Conductor*%
%TO.N,Net-(U1-SW)*%
G36*
X130626039Y-78251685D02*
G01*
X130671794Y-78304489D01*
X130683000Y-78356000D01*
X130683000Y-85165638D01*
X130663315Y-85232677D01*
X130646681Y-85253319D01*
X129794000Y-86105999D01*
X129794000Y-93348272D01*
X129774315Y-93415311D01*
X129721511Y-93461066D01*
X129670273Y-93472272D01*
X128562036Y-93474711D01*
X128494953Y-93455174D01*
X128492459Y-93453536D01*
X128197696Y-93254865D01*
X128153106Y-93201073D01*
X128143000Y-93152040D01*
X128143000Y-85299009D01*
X128151619Y-85269653D01*
X128150886Y-85221981D01*
X128045285Y-78357906D01*
X128063936Y-78290573D01*
X128116030Y-78244011D01*
X128169270Y-78232000D01*
X130559000Y-78232000D01*
X130626039Y-78251685D01*
G37*
%TD.AperFunction*%
%TD*%
M02*
